<svg width="40" height="40" viewBox="0 0 40 40" fill="none" xmlns="http://www.w3.org/2000/svg">
<path d="M21.8865 27.6678C20.8088 28.7538 19.0545 28.7538 17.9768 27.6678C17.7565 27.4457 17.3984 27.4457 17.1781 27.6678C16.957 27.8898 16.957 28.2506 17.1781 28.4727C17.9373 29.2377 18.9345 29.6206 19.9316 29.6206C20.9288 29.6206 21.926 29.2377 22.6852 28.4727C22.9063 28.2506 22.9063 27.8898 22.6852 27.6678C22.4649 27.445 22.1068 27.445 21.8865 27.6678Z" fill="#1475E6"/>
<path d="M32.7164 33.3151C31.393 31.8385 31.3372 28.0752 31.4932 24.1817C32.0695 23.6359 32.4311 22.8623 32.4311 22.0041C32.4311 21.2504 32.1522 20.5623 31.6945 20.0356C31.8873 16.0646 31.989 13.4087 30.739 10.9563C29.8859 9.2832 28.5059 7.88479 26.6373 6.80094C24.4593 5.53775 21.9748 4.9179 19.4528 5.00828C17.2374 5.08798 15.1745 6.12771 13.7522 7.87341C11.9153 7.98371 10.2444 8.99071 9.34538 10.5478C9.26841 10.6816 9.19355 10.819 9.12363 10.9563C7.87291 13.4101 7.97461 16.0653 8.16741 20.0363C7.70977 20.5623 7.43081 21.2511 7.43081 22.0041C7.43081 22.8616 7.79169 23.6359 8.36797 24.181C8.52475 28.0752 8.46826 31.8385 7.14479 33.3151C7.01979 33.4546 6.97106 33.6475 7.01485 33.8304C7.05863 34.0133 7.18929 34.1627 7.36443 34.2289C8.85385 34.7961 10.2967 34.9989 11.5989 34.9989C12.9514 34.9989 14.1526 34.7797 15.0955 34.5228C16.7339 34.0766 17.8886 33.4496 18.2833 33.2184C18.8201 33.3073 19.3702 33.355 19.9317 33.355C20.4924 33.355 21.0433 33.308 21.5793 33.2191C21.9734 33.4504 23.1287 34.0766 24.7665 34.5228C26.0243 34.8658 27.1902 34.9996 28.2446 34.9996C30.0017 34.9996 31.4495 34.6274 32.4968 34.2289C32.6712 34.1627 32.8026 34.0133 32.8464 33.8304C32.8902 33.6482 32.8414 33.4553 32.7164 33.3151ZM30.0299 23.179V20.353C30.0299 20.3459 30.0299 20.3381 30.0299 20.3303V20.2434C30.7665 20.484 31.3012 21.1821 31.3012 22.0041C31.3012 22.8324 30.7588 23.5348 30.0123 23.7704C30.0236 23.5747 30.0299 23.3776 30.0299 23.179ZM10.1286 11.4765C10.1893 11.357 10.255 11.2367 10.3221 11.1207C11.0657 9.83189 12.4888 9.01989 14.0361 9.0021C14.0382 9.0021 14.0418 9.0021 14.0439 9.0021C14.2155 8.99854 14.3758 8.9167 14.4803 8.77935C15.6993 7.1767 17.5263 6.21667 19.4924 6.14622C21.8032 6.06295 24.0786 6.63085 26.073 7.78801C27.7496 8.76084 28.9812 10.002 29.7333 11.4765C30.7341 13.4393 30.7637 15.5742 30.5999 19.2428C30.4184 19.1667 30.2277 19.1083 30.0299 19.0699V18.4913C30.0299 18.1768 29.7771 17.922 29.465 17.922C29.1528 17.922 28.9 18.1768 28.9 18.4913V19.7844C21.1174 19.8684 16.9048 16.0909 15.7805 14.9088C15.6484 14.7701 15.4549 14.7074 15.2678 14.7437C15.0799 14.7793 14.9231 14.9088 14.8504 15.0868C14.0291 17.0993 12.5947 18.1519 10.3362 18.4002C10.0495 18.4316 9.83268 18.6756 9.83268 18.966V19.0706C9.63494 19.109 9.44426 19.1674 9.26205 19.2436C9.0975 15.5757 9.12716 13.4407 10.1286 11.4765ZM9.84963 23.7704C9.10386 23.5348 8.56077 22.8324 8.56077 22.0041C8.56077 21.1821 9.09538 20.4847 9.83197 20.2434V23.179C9.83197 23.3776 9.83833 23.5747 9.84963 23.7704ZM8.46896 33.4048C9.47674 31.6719 9.65118 28.7911 9.52335 24.8599C9.67307 24.9069 9.82844 24.9411 9.98734 24.9631C10.63 28.609 13.2056 31.5894 16.6039 32.7871C14.9697 33.4966 11.8758 34.436 8.46896 33.4048ZM19.931 32.2171C14.9853 32.2171 10.9619 28.1627 10.9619 23.179V19.462C13.0806 19.1105 14.5891 18.0594 15.5453 16.266C16.3596 17.0139 17.6753 18.0409 19.5305 18.9397C22.3194 20.2918 25.4692 20.9594 28.9 20.9223V23.1783C28.9 28.1627 24.8766 32.2171 19.931 32.2171ZM25.0984 33.4347C24.3738 33.2397 23.7488 33.0042 23.2552 32.7885C26.6549 31.5908 29.2312 28.6104 29.8746 24.9639C30.0335 24.9418 30.1889 24.9069 30.3386 24.8607C30.21 28.7919 30.3852 31.6726 31.393 33.4055C29.3972 34.0133 27.2834 34.0232 25.0984 33.4347Z" fill="#1475E6"/>
<path d="M13.1788 21.492C12.9577 21.714 12.9577 22.0749 13.1788 22.2969C13.3991 22.5189 13.7572 22.5189 13.9775 22.2969C14.3398 21.9318 14.9288 21.9318 15.2911 22.2969C15.4012 22.4079 15.546 22.4634 15.6908 22.4634C15.8356 22.4634 15.9803 22.4079 16.0905 22.2969C16.3116 22.0749 16.3116 21.714 16.0905 21.492C15.2875 20.6836 13.981 20.6836 13.1788 21.492Z" fill="#1475E6"/>
<path d="M26.6846 22.2975C26.9056 22.0755 26.9056 21.7147 26.6846 21.4927C25.8816 20.6835 24.5758 20.6835 23.7728 21.4927C23.5518 21.7147 23.5518 22.0755 23.7728 22.2975C23.9931 22.5196 24.3512 22.5196 24.5715 22.2975C24.9338 21.9325 25.5228 21.9325 25.8851 22.2975C25.9953 22.4086 26.1401 22.4641 26.2848 22.4641C26.4296 22.4641 26.5744 22.4086 26.6846 22.2975Z" fill="#1475E6"/>
<path d="M21.8865 27.6678C20.8088 28.7538 19.0545 28.7538 17.9768 27.6678C17.7565 27.4457 17.3984 27.4457 17.1781 27.6678C16.957 27.8898 16.957 28.2506 17.1781 28.4727C17.9373 29.2377 18.9345 29.6206 19.9316 29.6206C20.9288 29.6206 21.926 29.2377 22.6852 28.4727C22.9063 28.2506 22.9063 27.8898 22.6852 27.6678C22.4649 27.445 22.1068 27.445 21.8865 27.6678Z" stroke="#1475E6" stroke-width="0.5"/>
<path d="M32.7164 33.3151C31.393 31.8385 31.3372 28.0752 31.4932 24.1817C32.0695 23.6359 32.4311 22.8623 32.4311 22.0041C32.4311 21.2504 32.1522 20.5623 31.6945 20.0356C31.8873 16.0646 31.989 13.4087 30.739 10.9563C29.8859 9.2832 28.5059 7.88479 26.6373 6.80094C24.4593 5.53775 21.9748 4.9179 19.4528 5.00828C17.2374 5.08798 15.1745 6.12771 13.7522 7.87341C11.9153 7.98371 10.2444 8.99071 9.34538 10.5478C9.26841 10.6816 9.19355 10.819 9.12363 10.9563C7.87291 13.4101 7.97461 16.0653 8.16741 20.0363C7.70977 20.5623 7.43081 21.2511 7.43081 22.0041C7.43081 22.8616 7.79169 23.6359 8.36797 24.181C8.52475 28.0752 8.46826 31.8385 7.14479 33.3151C7.01979 33.4546 6.97106 33.6475 7.01485 33.8304C7.05863 34.0133 7.18929 34.1627 7.36443 34.2289C8.85385 34.7961 10.2967 34.9989 11.5989 34.9989C12.9514 34.9989 14.1526 34.7797 15.0955 34.5228C16.7339 34.0766 17.8886 33.4496 18.2833 33.2184C18.8201 33.3073 19.3702 33.355 19.9317 33.355C20.4924 33.355 21.0433 33.308 21.5793 33.2191C21.9734 33.4504 23.1287 34.0766 24.7665 34.5228C26.0243 34.8658 27.1902 34.9996 28.2446 34.9996C30.0017 34.9996 31.4495 34.6274 32.4968 34.2289C32.6712 34.1627 32.8026 34.0133 32.8464 33.8304C32.8902 33.6482 32.8414 33.4553 32.7164 33.3151ZM30.0299 23.179V20.353C30.0299 20.3459 30.0299 20.3381 30.0299 20.3303V20.2434C30.7665 20.484 31.3012 21.1821 31.3012 22.0041C31.3012 22.8324 30.7588 23.5348 30.0123 23.7704C30.0236 23.5747 30.0299 23.3776 30.0299 23.179ZM10.1286 11.4765C10.1893 11.357 10.255 11.2367 10.3221 11.1207C11.0657 9.83189 12.4888 9.01989 14.0361 9.0021C14.0382 9.0021 14.0418 9.0021 14.0439 9.0021C14.2155 8.99854 14.3758 8.9167 14.4803 8.77935C15.6993 7.1767 17.5263 6.21667 19.4924 6.14622C21.8032 6.06295 24.0786 6.63085 26.073 7.78801C27.7496 8.76084 28.9812 10.002 29.7333 11.4765C30.7341 13.4393 30.7637 15.5742 30.5999 19.2428C30.4184 19.1667 30.2277 19.1083 30.0299 19.0699V18.4913C30.0299 18.1768 29.7771 17.922 29.465 17.922C29.1528 17.922 28.9 18.1768 28.9 18.4913V19.7844C21.1174 19.8684 16.9048 16.0909 15.7805 14.9088C15.6484 14.7701 15.4549 14.7074 15.2678 14.7437C15.0799 14.7793 14.9231 14.9088 14.8504 15.0868C14.0291 17.0993 12.5947 18.1519 10.3362 18.4002C10.0495 18.4316 9.83268 18.6756 9.83268 18.966V19.0706C9.63494 19.109 9.44426 19.1674 9.26205 19.2436C9.0975 15.5757 9.12716 13.4407 10.1286 11.4765ZM9.84963 23.7704C9.10386 23.5348 8.56077 22.8324 8.56077 22.0041C8.56077 21.1821 9.09538 20.4847 9.83197 20.2434V23.179C9.83197 23.3776 9.83833 23.5747 9.84963 23.7704ZM8.46896 33.4048C9.47674 31.6719 9.65118 28.7911 9.52335 24.8599C9.67307 24.9069 9.82844 24.9411 9.98734 24.9631C10.63 28.609 13.2056 31.5894 16.6039 32.7871C14.9697 33.4966 11.8758 34.436 8.46896 33.4048ZM19.931 32.2171C14.9853 32.2171 10.9619 28.1627 10.9619 23.179V19.462C13.0806 19.1105 14.5891 18.0594 15.5453 16.266C16.3596 17.0139 17.6753 18.0409 19.5305 18.9397C22.3194 20.2918 25.4692 20.9594 28.9 20.9223V23.1783C28.9 28.1627 24.8766 32.2171 19.931 32.2171ZM25.0984 33.4347C24.3738 33.2397 23.7488 33.0042 23.2552 32.7885C26.6549 31.5908 29.2312 28.6104 29.8746 24.9639C30.0335 24.9418 30.1889 24.9069 30.3386 24.8607C30.21 28.7919 30.3852 31.6726 31.393 33.4055C29.3972 34.0133 27.2834 34.0232 25.0984 33.4347Z" stroke="#1475E6" stroke-width="0.5"/>
<path d="M13.1788 21.492C12.9577 21.714 12.9577 22.0749 13.1788 22.2969C13.3991 22.5189 13.7572 22.5189 13.9775 22.2969C14.3398 21.9318 14.9288 21.9318 15.2911 22.2969C15.4012 22.4079 15.546 22.4634 15.6908 22.4634C15.8356 22.4634 15.9803 22.4079 16.0905 22.2969C16.3116 22.0749 16.3116 21.714 16.0905 21.492C15.2875 20.6836 13.981 20.6836 13.1788 21.492Z" stroke="#1475E6" stroke-width="0.5"/>
<path d="M26.6846 22.2975C26.9056 22.0755 26.9056 21.7147 26.6846 21.4927C25.8816 20.6835 24.5758 20.6835 23.7728 21.4927C23.5518 21.7147 23.5518 22.0755 23.7728 22.2975C23.9931 22.5196 24.3512 22.5196 24.5715 22.2975C24.9338 21.9325 25.5228 21.9325 25.8851 22.2975C25.9953 22.4086 26.1401 22.4641 26.2848 22.4641C26.4296 22.4641 26.5744 22.4086 26.6846 22.2975Z" stroke="#1475E6" stroke-width="0.5"/>
</svg>
