<svg width="40" height="40" viewBox="0 0 40 40" fill="none" xmlns="http://www.w3.org/2000/svg">
<path d="M20.4481 5C12.431 5 7 10.4593 7 18.6222C7 27.0971 15.3792 35 20.4481 35C25.517 35 33.8962 27.0451 33.8962 18.6222C33.9479 10.4593 28.5169 5 20.4481 5ZM20.4481 33.0763C16.7757 33.0763 8.91377 26.2132 8.91377 18.6222C8.91377 10.5113 14.7068 6.92374 20.4481 6.92374C26.1894 6.92374 32.0341 10.5113 32.0341 18.6222C32.0341 26.2132 24.1722 33.0763 20.4481 33.0763Z" fill="#1475E6"/>
<path d="M27.6894 12.9549C25.8791 12.279 24.017 12.9029 22.7756 14.5667C21.6895 16.0745 21.0688 19.1421 21.4308 21.1698C21.6377 22.2617 22.1032 23.0416 22.7756 23.5095C23.3963 23.9255 24.0687 24.1334 24.7411 24.1334C26.6032 24.1334 28.517 22.7816 29.7066 21.0659C30.0169 20.6499 29.9135 20.026 29.4997 19.714C29.0859 19.4021 28.4652 19.5061 28.1549 19.922C27.0687 21.4818 25.1032 22.6776 23.8618 21.8458C23.6032 21.6898 23.4481 21.3258 23.3446 20.7539C23.0343 19.0901 23.6549 16.5945 24.3274 15.6066C25.3101 14.2548 26.448 14.4107 27.017 14.6707C28.1032 15.0867 29.0859 16.3345 28.9307 17.9463C28.879 18.4662 29.2411 18.9341 29.81 18.9861C30.3273 19.0381 30.7928 18.6742 30.8445 18.1023C31.1031 15.9705 29.7583 13.7348 27.6894 12.9549Z" fill="#1475E6"/>
<path d="M19.3619 21.6898C19.5171 21.1698 19.2067 20.6499 18.6895 20.4939C18.1723 20.338 17.655 20.6499 17.4999 21.1698C17.3964 21.5338 17.2412 21.8458 17.0343 21.9497C16.3102 22.4177 15.4826 22.2097 14.9137 21.8977C13.4137 21.1698 12.0689 19.4541 11.9137 18.0503C11.7586 16.4385 12.793 15.1906 13.8275 14.7747C14.3965 14.5667 15.5344 14.3588 16.5171 15.7106C16.9826 16.3865 17.3964 17.6343 17.5516 18.9341C17.6033 19.4541 18.0688 19.818 18.586 19.766C19.1033 19.714 19.4653 19.2461 19.4136 18.7262C19.2067 17.1144 18.6895 15.5546 18.0171 14.6187C16.8275 12.9029 14.9137 12.279 13.1034 13.0069C11.0344 13.7868 9.74134 16.0225 9.94824 18.2582C10.1551 20.338 11.9137 22.6776 13.9827 23.6655C14.6551 23.9775 15.3792 24.1854 15.9999 24.1854C16.724 24.1854 17.3964 23.9775 17.9654 23.6135C18.7412 23.1456 19.155 22.5217 19.3619 21.6898Z" fill="#1475E6"/>
<path d="M21.7412 27.721H19.2067C18.6895 27.721 18.2757 28.1369 18.2757 28.6568C18.2757 29.1768 18.6895 29.5927 19.2067 29.5927H21.7412C22.2584 29.5927 22.6722 29.1768 22.6722 28.6568C22.7239 28.1369 22.2584 27.721 21.7412 27.721Z" fill="#1475E6"/>
</svg>
