<svg width="40" height="40" viewBox="0 0 40 40" fill="none" xmlns="http://www.w3.org/2000/svg">
<path d="M22.344 21.903C22.0206 21.903 21.7581 22.1598 21.7581 22.4762C21.7581 22.7926 22.0206 23.0494 22.344 23.0494C22.6675 23.0494 22.93 22.7926 22.93 22.4762C22.93 22.1598 22.6675 21.903 22.344 21.903Z" fill="#1475E6"/>
<path d="M27.5718 24.9897C27.0228 24.4526 25.6903 22.999 24.6397 20.6419C23.8581 18.8076 22.0411 17.6228 20.009 17.6228C17.9775 17.6228 16.1605 18.8076 15.3789 20.6425C14.0605 23.6008 12.2593 25.1663 12.2423 25.1806C12.2399 25.1823 12.2382 25.184 12.2358 25.1858C11.1735 26.1161 10.5641 27.4494 10.5641 28.8429C10.5641 30.5465 11.3933 32.0282 12.8323 32.9671C14.173 33.8419 15.8341 34.1044 17.3898 33.6871C18.1697 33.4779 19.0721 33.3678 20.0002 33.3678C20.9436 33.3678 21.8594 33.4819 22.6487 33.698C24.1587 34.1113 25.8169 33.8848 27.1851 33.0004C28.64 32.0597 29.4837 30.5642 29.4837 28.8434C29.4843 27.3296 28.7876 25.9275 27.5718 24.9897ZM26.5394 32.0431C25.4835 32.7258 24.1803 32.9264 22.9645 32.5934C22.0739 32.3498 21.0485 32.2208 20.0002 32.2208C18.9689 32.2208 17.9594 32.3452 17.0804 32.5814C15.8517 32.911 14.541 32.704 13.4827 32.0133C12.3782 31.2922 11.7366 30.1658 11.7366 28.8429C11.7366 27.7761 12.203 26.7552 13.0157 26.0421C13.1405 25.935 15.0425 24.2698 16.4558 21.0959C16.457 21.093 16.4582 21.0902 16.4599 21.0867C17.0582 19.6789 18.4516 18.7686 20.0096 18.7686C21.5688 18.7686 22.9622 19.6783 23.5604 21.0861C23.5616 21.089 23.5628 21.0919 23.5645 21.0953C24.7124 23.6719 26.1895 25.2626 26.772 25.8272C26.789 25.8432 26.8065 25.8587 26.8247 25.8725C27.771 26.5919 28.313 27.6741 28.313 28.8429C28.3124 30.1767 27.6597 31.3186 26.5394 32.0431Z" fill="#1475E6"/>
<path d="M23.9401 24.1849C23.7638 23.9195 23.4005 23.8444 23.1292 24.0175C22.8579 24.1906 22.7811 24.5455 22.9581 24.8109C23.8499 26.1499 24.6948 27.0418 25.1196 27.4545C25.3493 27.6775 25.7202 27.6764 25.9482 27.4517C26.1761 27.227 26.1749 26.8641 25.9452 26.6411C25.5538 26.2605 24.7728 25.4357 23.9401 24.1849Z" fill="#1475E6"/>
<path d="M18.1012 14.8278C18.6643 13.8653 18.8992 12.5865 18.7451 11.3203C18.4481 8.85429 16.7096 6.789 14.7677 7.01714C13.8906 7.1186 13.1113 7.68207 12.5722 8.60265C12.0097 9.5645 11.7747 10.8433 11.9282 12.1107C12.4134 16.1375 16.2455 17.9993 18.1012 14.8278ZM13.5888 9.17242C13.9093 8.62443 14.4097 8.14752 15.0548 8.14752C16.208 8.14752 17.3652 9.66195 17.5814 11.455C17.7062 12.4827 17.5252 13.5048 17.084 14.2586C15.7334 16.5663 13.4107 14.6208 13.0913 11.976C12.9671 10.9477 13.1482 9.92563 13.5888 9.17242Z" fill="#1475E6"/>
<path d="M12.4884 20.9932C12.6583 19.9718 12.4521 18.842 11.9083 17.8119C11.364 16.7818 10.5413 15.9633 9.59149 15.5076C8.58249 15.0232 7.54947 14.9986 6.68227 15.4371C5.81507 15.8756 5.2385 16.7142 5.05803 17.7993C4.88869 18.8208 5.09436 19.9506 5.63811 20.9812C6.18246 22.0113 7.00512 22.8292 7.95494 23.2849C8.89773 23.7372 9.94247 23.822 10.8642 23.356C11.7319 22.9169 12.3085 22.0778 12.4884 20.9932ZM10.3268 22.3368C9.79774 22.6045 9.13914 22.5753 8.47174 22.2555C7.74576 21.9069 7.10942 21.2672 6.67992 20.4544C6.25043 19.6416 6.08519 18.7634 6.21527 17.9827C6.33422 17.2651 6.69164 16.7228 7.22075 16.4551C7.80611 16.1593 8.48346 16.2522 9.07585 16.5365C9.80184 16.885 10.4382 17.5247 10.8677 18.3381C11.2972 19.1509 11.4624 20.0291 11.3323 20.8098C11.2128 21.5269 10.856 22.0692 10.3268 22.3368Z" fill="#1475E6"/>
<path d="M24.3948 16.4414C26.1714 16.4414 27.7927 14.5441 28.0863 12.1223C28.3986 9.54223 27.0691 7.01263 24.9585 7.01263C23.1819 7.01263 21.5606 8.90997 21.2676 11.3318C20.9553 13.9164 22.2877 16.4414 24.3948 16.4414ZM22.4313 11.4659C22.6481 9.67292 23.8053 8.15849 24.9585 8.15849C25.013 8.15849 25.0593 8.16078 25.1015 8.16651C25.7261 8.23472 26.2101 8.76839 26.4948 9.31409C26.8821 10.0558 27.038 11.0303 26.9226 11.987C26.6976 13.8442 25.439 15.4377 24.2518 15.287C24.2495 15.287 24.2477 15.2864 24.2454 15.2864C23.7128 15.2251 23.2071 14.8072 22.859 14.14C22.4717 13.3977 22.3159 12.4232 22.4313 11.4659Z" fill="#1475E6"/>
<path d="M34.9424 17.801C34.5721 15.5683 32.509 14.5016 30.409 15.5093C28.4443 16.4522 27.1605 18.8809 27.5115 20.9955C27.8865 23.2546 29.9701 24.2823 32.0449 23.2867C34.0108 22.3437 35.2934 19.915 34.9424 17.801ZM31.5293 22.2572C30.8619 22.577 30.2033 22.6063 29.6742 22.3386C29.1451 22.0709 28.7877 21.5286 28.6687 20.8109C28.401 19.1968 29.4211 17.2599 30.9252 16.5376C32.3039 15.8762 33.5391 16.4987 33.7858 17.9839C34.0536 19.5957 33.0364 21.5343 31.5293 22.2572Z" fill="#1475E6"/>
<path d="M22.344 21.903C22.0206 21.903 21.7581 22.1598 21.7581 22.4762C21.7581 22.7926 22.0206 23.0494 22.344 23.0494C22.6675 23.0494 22.93 22.7926 22.93 22.4762C22.93 22.1598 22.6675 21.903 22.344 21.903Z" stroke="#1475E6" stroke-width="0.5"/>
<path d="M27.5718 24.9897C27.0228 24.4526 25.6903 22.999 24.6397 20.6419C23.8581 18.8076 22.0411 17.6228 20.009 17.6228C17.9775 17.6228 16.1605 18.8076 15.3789 20.6425C14.0605 23.6008 12.2593 25.1663 12.2423 25.1806C12.2399 25.1823 12.2382 25.184 12.2358 25.1858C11.1735 26.1161 10.5641 27.4494 10.5641 28.8429C10.5641 30.5465 11.3933 32.0282 12.8323 32.9671C14.173 33.8419 15.8341 34.1044 17.3898 33.6871C18.1697 33.4779 19.0721 33.3678 20.0002 33.3678C20.9436 33.3678 21.8594 33.4819 22.6487 33.698C24.1587 34.1113 25.8169 33.8848 27.1851 33.0004C28.64 32.0597 29.4837 30.5642 29.4837 28.8434C29.4843 27.3296 28.7876 25.9275 27.5718 24.9897ZM26.5394 32.0431C25.4835 32.7258 24.1803 32.9264 22.9645 32.5934C22.0739 32.3498 21.0485 32.2208 20.0002 32.2208C18.9689 32.2208 17.9594 32.3452 17.0804 32.5814C15.8517 32.911 14.541 32.704 13.4827 32.0133C12.3782 31.2922 11.7366 30.1658 11.7366 28.8429C11.7366 27.7761 12.203 26.7552 13.0157 26.0421C13.1405 25.935 15.0425 24.2698 16.4558 21.0959C16.457 21.093 16.4582 21.0902 16.4599 21.0867C17.0582 19.6789 18.4516 18.7686 20.0096 18.7686C21.5688 18.7686 22.9622 19.6783 23.5604 21.0861C23.5616 21.089 23.5628 21.0919 23.5645 21.0953C24.7124 23.6719 26.1895 25.2626 26.772 25.8272C26.789 25.8432 26.8065 25.8587 26.8247 25.8725C27.771 26.5919 28.313 27.6741 28.313 28.8429C28.3124 30.1767 27.6597 31.3186 26.5394 32.0431Z" stroke="#1475E6" stroke-width="0.5"/>
<path d="M23.9401 24.1849C23.7638 23.9195 23.4005 23.8444 23.1292 24.0175C22.8579 24.1906 22.7811 24.5455 22.9581 24.8109C23.8499 26.1499 24.6948 27.0418 25.1196 27.4545C25.3493 27.6775 25.7202 27.6764 25.9482 27.4517C26.1761 27.227 26.1749 26.8641 25.9452 26.6411C25.5538 26.2605 24.7728 25.4357 23.9401 24.1849Z" stroke="#1475E6" stroke-width="0.5"/>
<path d="M18.1012 14.8278C18.6643 13.8653 18.8992 12.5865 18.7451 11.3203C18.4481 8.85429 16.7096 6.789 14.7677 7.01714C13.8906 7.1186 13.1113 7.68207 12.5722 8.60265C12.0097 9.5645 11.7747 10.8433 11.9282 12.1107C12.4134 16.1375 16.2455 17.9993 18.1012 14.8278ZM13.5888 9.17242C13.9093 8.62443 14.4097 8.14752 15.0548 8.14752C16.208 8.14752 17.3652 9.66195 17.5814 11.455C17.7062 12.4827 17.5252 13.5048 17.084 14.2586C15.7334 16.5663 13.4107 14.6208 13.0913 11.976C12.9671 10.9477 13.1482 9.92563 13.5888 9.17242Z" stroke="#1475E6" stroke-width="0.5"/>
<path d="M12.4884 20.9932C12.6583 19.9718 12.4521 18.842 11.9083 17.8119C11.364 16.7818 10.5413 15.9633 9.59149 15.5076C8.58249 15.0232 7.54947 14.9986 6.68227 15.4371C5.81507 15.8756 5.2385 16.7142 5.05803 17.7993C4.88869 18.8208 5.09436 19.9506 5.63811 20.9812C6.18246 22.0113 7.00512 22.8292 7.95494 23.2849C8.89773 23.7372 9.94247 23.822 10.8642 23.356C11.7319 22.9169 12.3085 22.0778 12.4884 20.9932ZM10.3268 22.3368C9.79774 22.6045 9.13914 22.5753 8.47174 22.2555C7.74576 21.9069 7.10942 21.2672 6.67992 20.4544C6.25043 19.6416 6.08519 18.7634 6.21527 17.9827C6.33422 17.2651 6.69164 16.7228 7.22075 16.4551C7.80611 16.1593 8.48346 16.2522 9.07585 16.5365C9.80184 16.885 10.4382 17.5247 10.8677 18.3381C11.2972 19.1509 11.4624 20.0291 11.3323 20.8098C11.2128 21.5269 10.856 22.0692 10.3268 22.3368Z" stroke="#1475E6" stroke-width="0.5"/>
<path d="M24.3948 16.4414C26.1714 16.4414 27.7927 14.5441 28.0863 12.1223C28.3986 9.54223 27.0691 7.01263 24.9585 7.01263C23.1819 7.01263 21.5606 8.90997 21.2676 11.3318C20.9553 13.9164 22.2877 16.4414 24.3948 16.4414ZM22.4313 11.4659C22.6481 9.67292 23.8053 8.15849 24.9585 8.15849C25.013 8.15849 25.0593 8.16078 25.1015 8.16651C25.7261 8.23472 26.2101 8.76839 26.4948 9.31409C26.8821 10.0558 27.038 11.0303 26.9226 11.987C26.6976 13.8442 25.439 15.4377 24.2518 15.287C24.2495 15.287 24.2477 15.2864 24.2454 15.2864C23.7128 15.2251 23.2071 14.8072 22.859 14.14C22.4717 13.3977 22.3159 12.4232 22.4313 11.4659Z" stroke="#1475E6" stroke-width="0.5"/>
<path d="M34.9424 17.801C34.5721 15.5683 32.509 14.5016 30.409 15.5093C28.4443 16.4522 27.1605 18.8809 27.5115 20.9955C27.8865 23.2546 29.9701 24.2823 32.0449 23.2867C34.0108 22.3437 35.2934 19.915 34.9424 17.801ZM31.5293 22.2572C30.8619 22.577 30.2033 22.6063 29.6742 22.3386C29.1451 22.0709 28.7877 21.5286 28.6687 20.8109C28.401 19.1968 29.4211 17.2599 30.9252 16.5376C32.3039 15.8762 33.5391 16.4987 33.7858 17.9839C34.0536 19.5957 33.0364 21.5343 31.5293 22.2572Z" stroke="#1475E6" stroke-width="0.5"/>
</svg>
