<svg width="40" height="40" viewBox="0 0 40 40" fill="none" xmlns="http://www.w3.org/2000/svg">
<path d="M19.4749 27.1354C22.188 27.1354 24.3485 25.8854 25.6046 23.6458C25.8558 23.1771 25.7051 22.6042 25.2529 22.3438C24.8007 22.0833 24.248 22.2396 23.9968 22.7083C23.0924 24.3229 21.5349 25.2083 19.4749 25.2083C17.1134 25.2083 15.4554 24.0625 14.6515 22.0313H25.5543C26.0568 22.0313 26.4587 21.6146 26.4587 21.0938C26.4587 20.5729 26.0568 20.1563 25.5543 20.1563H13.4457C13.1442 20.1563 12.893 20.3125 12.7423 20.5208C12.5413 20.7292 12.491 21.0417 12.5413 21.3021C13.2447 24.9479 15.8574 27.1354 19.4749 27.1354Z" fill="#1475E6"/>
<path d="M29.5738 33.125H10.4311C10.7325 30.3646 12.4408 28.9063 13.2949 28.3854C15.7066 30.5729 18.3695 30.8333 19.5251 30.8333C20.6807 30.8333 23.3436 30.5729 25.7553 28.3854C26.509 28.8542 27.765 29.9479 28.368 31.875C28.4685 32.2917 28.8704 32.5521 29.2723 32.5521C29.3728 32.5521 29.4733 32.5521 29.5738 32.5C30.0762 32.3438 30.3275 31.8229 30.1767 31.3021C29.4733 29.0625 28.0665 27.7083 27.0616 26.9792C28.2675 25.3646 29.3226 23.1771 29.9255 20C30.2772 18.1771 30.2772 16.3021 29.9758 14.5833C29.9758 14.4792 29.9758 14.4271 29.9255 14.3229C29.5236 12.2396 28.7197 10.3646 27.5138 8.85417C25.5041 6.35417 22.6905 5 19.4749 5C17.6159 5 15.9076 5.46875 14.4003 6.30208C14.35 6.30208 14.2998 6.35417 14.2998 6.35417C13.2447 6.97917 12.2901 7.76042 11.5364 8.80208C10.3306 10.3125 9.52668 12.1875 9.12473 14.2708C9.12473 14.3229 9.07449 14.4271 9.07449 14.5312C8.77303 16.3021 8.77303 18.1771 9.12473 20C9.72765 23.125 10.7828 25.3646 11.9886 26.9792C10.632 27.9167 8.52181 30.1042 8.52181 34.0625C8.52181 34.5833 8.92376 35 9.42619 35H29.5738C30.0762 35 30.4782 34.5833 30.4782 34.0625C30.4782 33.5417 30.0762 33.125 29.5738 33.125ZM26.0065 10.0521C26.8104 11.0938 27.4133 12.2917 27.8153 13.6458C23.2934 13.3854 18.269 11.7188 16.1086 7.65625C17.1637 7.1875 18.269 6.97917 19.5251 6.97917C22.1378 6.92708 24.3987 8.02083 26.0065 10.0521ZM10.833 15.4688C12.0389 15.3646 14.35 14.8438 16.3095 13.0208C16.7115 12.6563 16.7115 12.0313 16.3598 11.6667C16.0081 11.25 15.4052 11.25 15.0535 11.6146C13.7974 12.8125 12.2901 13.2813 11.235 13.4896C11.6369 12.1875 12.1896 11.0417 12.9935 10.0521C13.4457 9.47917 13.9481 9.01042 14.5008 8.59375C16.7617 12.8125 21.7358 15.3646 28.2172 15.5729C28.368 16.875 28.3177 18.2813 28.0665 19.6354C27.4636 22.9688 26.308 25.1042 25.0017 26.4583C24.9514 26.5104 24.9012 26.5625 24.8509 26.6146C22.9417 28.5938 20.731 28.9063 19.5251 28.9063C18.3193 28.9063 16.1086 28.5938 14.1993 26.6146C14.1491 26.5625 14.0988 26.5104 14.0486 26.4583C12.7423 25.0521 11.6369 22.9167 10.9837 19.6354C10.6823 18.2292 10.632 16.8229 10.833 15.4688Z" fill="#1475E6"/>
<path d="M22.389 18.2292C22.4895 18.2813 22.6402 18.2813 22.7407 18.2813C23.0924 18.2813 23.4441 18.0729 23.5948 17.7083C23.5948 17.6563 23.6451 17.6563 23.7456 17.6042C23.8963 17.6042 23.9465 17.7083 23.9968 17.7083C24.2982 18.125 24.9012 18.2292 25.3031 17.9167C25.7051 17.6042 25.8055 16.9792 25.5041 16.5625C25.0519 15.9375 24.2982 15.5729 23.5446 15.6771C22.8412 15.7813 22.188 16.25 21.9368 16.9271C21.7358 17.5 21.9368 18.0208 22.389 18.2292Z" fill="#1475E6"/>
<path d="M13.6969 17.9688C14.0988 18.2813 14.7018 18.1771 15.0032 17.7604C15.0032 17.7083 15.1037 17.6042 15.2544 17.6563C15.3047 17.6563 15.3549 17.7083 15.4052 17.7604C15.5559 18.125 15.9076 18.3333 16.2593 18.3333C16.3598 18.3333 16.5105 18.3333 16.611 18.2813C17.0632 18.0208 17.2642 17.5 17.0632 16.9792C16.812 16.3021 16.1588 15.8333 15.4554 15.7292C14.7018 15.625 13.9481 15.9896 13.4959 16.6146C13.1945 17.0833 13.2949 17.6563 13.6969 17.9688Z" fill="#1475E6"/>
<path d="M31.4328 25.8333L30.1265 25.0521C29.6743 24.7917 29.1216 24.9479 28.8704 25.4167C28.6192 25.8854 28.7699 26.4583 29.2221 26.7188L30.5284 27.5C30.6792 27.6042 30.8299 27.6042 30.9806 27.6042C31.2821 27.6042 31.6338 27.4479 31.7845 27.1354C31.9855 26.7188 31.8348 26.1458 31.4328 25.8333Z" fill="#1475E6"/>
<path d="M33.1913 19.375L31.684 19.1667C31.1816 19.1146 30.7294 19.4792 30.6289 20C30.5787 20.5208 30.9304 20.9896 31.4328 21.0938L32.9401 21.3021C32.9904 21.3021 33.0406 21.3021 33.0908 21.3021C33.543 21.3021 33.945 20.9375 33.9952 20.4688C34.0455 19.9479 33.6938 19.4792 33.1913 19.375Z" fill="#1475E6"/>
<path d="M32.6889 22.7604L31.2821 22.2396C30.7796 22.0833 30.2772 22.3438 30.1265 22.8125C29.9758 23.3333 30.227 23.8542 30.6792 24.0104L32.086 24.5313C32.1865 24.5833 32.287 24.5833 32.3874 24.5833C32.7894 24.5833 33.1411 24.3229 33.2416 23.9583C33.4426 23.4896 33.1913 22.9167 32.6889 22.7604Z" fill="#1475E6"/>
<path d="M9.82814 26.7188C10.2803 26.4583 10.4311 25.8854 10.1798 25.4167C9.92863 24.9479 9.37595 24.7917 8.92376 25.0521L7.56719 25.8333C7.115 26.0938 6.96427 26.6667 7.21548 27.1354C7.36621 27.4479 7.71792 27.6042 8.01938 27.6042C8.17011 27.6042 8.32084 27.5521 8.47157 27.5L9.82814 26.7188Z" fill="#1475E6"/>
<path d="M6.05989 21.3021L7.56719 21.0938C8.06962 21.0417 8.42133 20.5208 8.37108 20C8.32084 19.4792 7.81841 19.1146 7.31597 19.1667L5.80867 19.375C5.30623 19.4271 4.95453 19.9479 5.00477 20.4688C5.05502 20.9375 5.45696 21.3021 5.90916 21.3021C5.9594 21.3021 6.00964 21.3021 6.05989 21.3021Z" fill="#1475E6"/>
<path d="M8.92376 22.8646C8.77303 22.3438 8.22035 22.0833 7.76816 22.2917L6.36135 22.8125C5.85891 22.9688 5.60769 23.5417 5.80867 24.0104C5.9594 24.4271 6.3111 24.6354 6.66281 24.6354C6.76329 24.6354 6.86378 24.6354 6.96427 24.5833L8.37108 24.0625C8.82327 23.9062 9.07449 23.3333 8.92376 22.8646Z" fill="#1475E6"/>
</svg>
