<svg width="40" height="40" viewBox="0 0 40 40" fill="none" xmlns="http://www.w3.org/2000/svg">
<path d="M14.2567 22.3647C14.5246 22.3647 14.776 22.4721 14.9651 22.6673C15.0719 22.7776 15.2124 22.8328 15.3528 22.8328C15.4933 22.8328 15.6337 22.7776 15.7406 22.6673C15.955 22.4467 15.955 22.0882 15.7406 21.8675C15.3446 21.4588 14.8178 21.2332 14.2574 21.2332C13.697 21.2332 13.1702 21.4581 12.7743 21.8675C12.5599 22.0882 12.5599 22.4467 12.7743 22.6673C12.9887 22.8879 13.3353 22.8879 13.5491 22.6673C13.7375 22.4721 13.9889 22.3647 14.2567 22.3647Z" fill="#1475E6"/>
<path d="M24.1221 21.8675C23.9077 22.0881 23.9077 22.4467 24.1221 22.6673C24.3359 22.8879 24.6832 22.8879 24.8969 22.6673C25.2874 22.2642 25.9232 22.2642 26.3136 22.6673C26.4205 22.7776 26.5609 22.8328 26.7014 22.8328C26.8418 22.8328 26.9822 22.7776 27.0891 22.6673C27.3035 22.4467 27.3035 22.0881 27.0891 21.8675C26.2712 21.0232 24.9401 21.0232 24.1221 21.8675Z" fill="#1475E6"/>
<path d="M25.6025 27.4483C22.4753 30.6764 17.3867 30.6764 14.2595 27.4483C14.0457 27.2277 13.6984 27.2277 13.4847 27.4483C13.2703 27.6689 13.2703 28.0274 13.4847 28.2481C15.2617 30.0824 17.5964 31.0003 19.931 31.0003C22.2657 31.0003 24.6003 30.0831 26.3773 28.2481C26.5918 28.0274 26.5918 27.6689 26.3773 27.4483C26.1636 27.2269 25.817 27.2269 25.6025 27.4483Z" fill="#1475E6"/>
<path d="M32.862 22.9738C32.862 21.4372 31.7858 20.1558 30.3705 19.8885V10.4248C30.3705 9.19716 29.7786 8.05866 28.788 7.3798C27.8571 6.74195 26.7014 6.59769 25.6567 6.97743L22.2157 5.77175C19.5721 4.84539 16.7894 4.75063 14.1684 5.49737C10.7363 6.47465 8.76949 8.54093 8.46532 11.4791C8.19678 11.8447 7.98305 12.2563 7.83782 12.6989L7.57065 13.5143C7.42747 13.952 7.58503 14.4124 7.96387 14.6592C8.34201 14.906 8.81264 14.8565 9.13462 14.5347C9.24423 14.4251 9.3648 14.3325 9.49084 14.2547V19.8878C8.07621 20.1558 7 21.4372 7 22.9738C7 24.5719 8.1639 25.8943 9.66279 26.0859C10.0389 28.2314 11.0281 30.21 12.5407 31.7933C14.515 33.861 17.1401 34.9995 19.9317 34.9995C22.7199 34.9995 25.3422 33.878 27.3138 31.8428C28.8538 30.2531 29.8533 28.254 30.2177 26.0831C31.707 25.8837 32.862 24.5656 32.862 22.9738ZM28.1825 8.32242C28.8771 8.79763 29.2751 9.56417 29.2751 10.4241V17.8272C27.5741 17.5542 26.2677 16.0324 26.2677 14.2009L26.2225 7.98087C26.8918 7.79913 27.5892 7.91652 28.1825 8.32242ZM8.77017 13.3863L8.87704 13.061C9.15585 12.2082 9.77583 11.5166 10.5773 11.1623C11.3788 10.808 12.2913 10.8229 13.0819 11.2026C14.7418 12.0003 16.7476 11.5689 17.9608 10.1539L18.0965 9.99553C18.2972 9.76147 18.2759 9.40436 18.0492 9.19716C17.8224 8.98997 17.4758 9.01189 17.2758 9.24596L17.1388 9.40436C16.2448 10.4474 14.7664 10.7649 13.5436 10.1773C12.4715 9.66176 11.2322 9.64196 10.1451 10.1221C10.0464 10.166 9.94983 10.2147 9.85529 10.2657C10.4924 8.51265 12.0344 7.27797 14.4595 6.58709C16.8682 5.90115 19.4289 5.98955 21.8635 6.84237L25.1258 7.98582L25.1682 10.9092C23.7159 12.9479 21.5971 14.3282 19.1829 14.8027C16.7106 15.2885 14.1889 14.7744 12.0817 13.3552C11.0528 12.6615 9.75459 12.6912 8.77017 13.3863ZM8.09608 22.9738C8.09608 22.0644 8.68591 21.2943 9.49153 21.0496V24.1158C9.49153 24.381 9.50044 24.6441 9.51893 24.9057C8.69961 24.6702 8.09608 23.8938 8.09608 22.9738ZM26.5383 31.043C24.7736 32.8646 22.4273 33.8681 19.9324 33.8681C17.4367 33.8681 15.0877 32.8491 13.3216 30.9992C11.559 29.1535 10.5883 26.7089 10.5883 24.1158V13.9888C10.8986 14.0128 11.2069 14.1161 11.4837 14.3035C13.83 15.8839 16.6373 16.456 19.3891 15.9151C21.6231 15.4759 23.6296 14.3409 25.1723 12.6664V14.2016C25.1723 16.6576 26.9685 18.6878 29.2758 18.9685V24.2233C29.2751 26.7994 28.303 29.2214 26.5383 31.043ZM30.35 24.9043C30.3637 24.6787 30.3712 24.4517 30.3712 24.2233V21.0496C31.1768 21.2943 31.7666 22.0644 31.7666 22.9738C31.766 23.891 31.1659 24.666 30.35 24.9043Z" fill="#1475E6"/>
<path d="M14.2567 22.3647C14.5246 22.3647 14.776 22.4721 14.9651 22.6673C15.0719 22.7776 15.2124 22.8328 15.3528 22.8328C15.4933 22.8328 15.6337 22.7776 15.7406 22.6673C15.955 22.4467 15.955 22.0882 15.7406 21.8675C15.3446 21.4588 14.8178 21.2332 14.2574 21.2332C13.697 21.2332 13.1702 21.4581 12.7743 21.8675C12.5599 22.0882 12.5599 22.4467 12.7743 22.6673C12.9887 22.8879 13.3353 22.8879 13.5491 22.6673C13.7375 22.4721 13.9889 22.3647 14.2567 22.3647Z" stroke="#1475E6" stroke-width="0.5"/>
<path d="M24.1221 21.8675C23.9077 22.0881 23.9077 22.4467 24.1221 22.6673C24.3359 22.8879 24.6832 22.8879 24.8969 22.6673C25.2874 22.2642 25.9232 22.2642 26.3136 22.6673C26.4205 22.7776 26.5609 22.8328 26.7014 22.8328C26.8418 22.8328 26.9822 22.7776 27.0891 22.6673C27.3035 22.4467 27.3035 22.0881 27.0891 21.8675C26.2712 21.0232 24.9401 21.0232 24.1221 21.8675Z" stroke="#1475E6" stroke-width="0.5"/>
<path d="M25.6025 27.4483C22.4753 30.6764 17.3867 30.6764 14.2595 27.4483C14.0457 27.2277 13.6984 27.2277 13.4847 27.4483C13.2703 27.6689 13.2703 28.0274 13.4847 28.2481C15.2617 30.0824 17.5964 31.0003 19.931 31.0003C22.2657 31.0003 24.6003 30.0831 26.3773 28.2481C26.5918 28.0274 26.5918 27.6689 26.3773 27.4483C26.1636 27.2269 25.817 27.2269 25.6025 27.4483Z" stroke="#1475E6" stroke-width="0.5"/>
<path d="M32.862 22.9738C32.862 21.4372 31.7858 20.1558 30.3705 19.8885V10.4248C30.3705 9.19716 29.7786 8.05866 28.788 7.3798C27.8571 6.74195 26.7014 6.59769 25.6567 6.97743L22.2157 5.77175C19.5721 4.84539 16.7894 4.75063 14.1684 5.49737C10.7363 6.47465 8.76949 8.54093 8.46532 11.4791C8.19678 11.8447 7.98305 12.2563 7.83782 12.6989L7.57065 13.5143C7.42747 13.952 7.58503 14.4124 7.96387 14.6592C8.34201 14.906 8.81264 14.8565 9.13462 14.5347C9.24423 14.4251 9.3648 14.3325 9.49084 14.2547V19.8878C8.07621 20.1558 7 21.4372 7 22.9738C7 24.5719 8.1639 25.8943 9.66279 26.0859C10.0389 28.2314 11.0281 30.21 12.5407 31.7933C14.515 33.861 17.1401 34.9995 19.9317 34.9995C22.7199 34.9995 25.3422 33.878 27.3138 31.8428C28.8538 30.2531 29.8533 28.254 30.2177 26.0831C31.707 25.8837 32.862 24.5656 32.862 22.9738ZM28.1825 8.32242C28.8771 8.79763 29.2751 9.56417 29.2751 10.4241V17.8272C27.5741 17.5542 26.2677 16.0324 26.2677 14.2009L26.2225 7.98087C26.8918 7.79913 27.5892 7.91652 28.1825 8.32242ZM8.77017 13.3863L8.87704 13.061C9.15585 12.2082 9.77583 11.5166 10.5773 11.1623C11.3788 10.808 12.2913 10.8229 13.0819 11.2026C14.7418 12.0003 16.7476 11.5689 17.9608 10.1539L18.0965 9.99553C18.2972 9.76147 18.2759 9.40436 18.0492 9.19716C17.8224 8.98997 17.4758 9.01189 17.2758 9.24596L17.1388 9.40436C16.2448 10.4474 14.7664 10.7649 13.5436 10.1773C12.4715 9.66176 11.2322 9.64196 10.1451 10.1221C10.0464 10.166 9.94983 10.2147 9.85529 10.2657C10.4924 8.51265 12.0344 7.27797 14.4595 6.58709C16.8682 5.90115 19.4289 5.98955 21.8635 6.84237L25.1258 7.98582L25.1682 10.9092C23.7159 12.9479 21.5971 14.3282 19.1829 14.8027C16.7106 15.2885 14.1889 14.7744 12.0817 13.3552C11.0528 12.6615 9.75459 12.6912 8.77017 13.3863ZM8.09608 22.9738C8.09608 22.0644 8.68591 21.2943 9.49153 21.0496V24.1158C9.49153 24.381 9.50044 24.6441 9.51893 24.9057C8.69961 24.6702 8.09608 23.8938 8.09608 22.9738ZM26.5383 31.043C24.7736 32.8646 22.4273 33.8681 19.9324 33.8681C17.4367 33.8681 15.0877 32.8491 13.3216 30.9992C11.559 29.1535 10.5883 26.7089 10.5883 24.1158V13.9888C10.8986 14.0128 11.2069 14.1161 11.4837 14.3035C13.83 15.8839 16.6373 16.456 19.3891 15.9151C21.6231 15.4759 23.6296 14.3409 25.1723 12.6664V14.2016C25.1723 16.6576 26.9685 18.6878 29.2758 18.9685V24.2233C29.2751 26.7994 28.303 29.2214 26.5383 31.043ZM30.35 24.9043C30.3637 24.6787 30.3712 24.4517 30.3712 24.2233V21.0496C31.1768 21.2943 31.7666 22.0644 31.7666 22.9738C31.766 23.891 31.1659 24.666 30.35 24.9043Z" stroke="#1475E6" stroke-width="0.5"/>
</svg>
