<svg width="40" height="40" viewBox="0 0 40 40" fill="none" xmlns="http://www.w3.org/2000/svg">
<path d="M20 5C11.7314 5 5 11.7314 5 20C5 28.2686 11.7314 35 20 35C28.2686 35 35 28.2718 35 20C35 11.7282 28.275 5 20 5ZM20 32.683C13.0076 32.683 7.317 26.9924 7.317 20C7.317 13.0076 13.0076 7.317 20 7.317C26.9924 7.317 32.683 13.0076 32.683 20C32.683 26.9955 26.9955 32.683 20 32.683Z" fill="#1475E6"/>
<path d="M13.2718 21.3494C14.7589 21.3494 15.9644 20.1439 15.9644 18.6569C15.9644 17.1698 14.7589 15.9643 13.2718 15.9643C11.7848 15.9643 10.5793 17.1698 10.5793 18.6569C10.5793 20.1439 11.7848 21.3494 13.2718 21.3494Z" fill="#1475E6"/>
<path d="M22.7976 16.5882C24.2846 16.5882 25.4901 15.3827 25.4901 13.8956C25.4901 12.4086 24.2846 11.2031 22.7976 11.2031C21.3105 11.2031 20.105 12.4086 20.105 13.8956C20.105 15.3827 21.3105 16.5882 22.7976 16.5882Z" fill="#1475E6"/>
<path d="M29.3826 19.4303C28.6092 19.2234 27.8135 19.6818 27.6066 20.4551C26.7664 23.5837 25.2419 25.6588 23.0745 26.6168C21.098 27.4889 18.5201 27.5112 15.4074 26.6773C14.634 26.4704 13.8383 26.9287 13.6314 27.7021C13.4246 28.4755 13.8829 29.2712 14.6563 29.4781C16.4195 29.9491 18.0617 30.1878 19.5767 30.1878C21.3017 30.1878 22.8612 29.8823 24.2457 29.2712C27.2565 27.9408 29.3285 25.2292 30.4074 21.2094C30.6143 20.4329 30.156 19.6372 29.3826 19.4303Z" fill="#1475E6"/>
</svg>
