<svg width="69" height="69" viewBox="0 0 69 69" fill="none" xmlns="http://www.w3.org/2000/svg">
<circle cx="34.4999" cy="34.5" r="24.8158" fill="#1475E6"/>
<circle opacity="0.3" cx="34.5001" cy="34.5" r="26.8421" stroke="#1475E6" stroke-width="2"/>
<circle opacity="0.2" cx="34.5" cy="34.5" r="30.3684" stroke="#1475E6"/>
<circle opacity="0.1" cx="34.5" cy="34.5" r="34" stroke="#1475E6"/>
<path d="M35.6347 46.0461H35.1347V45.5461V43.5764V43.1166L35.5929 43.0782C40.3362 42.6807 44.2893 39.1478 44.2893 33.8947C44.2893 33.6993 44.1525 33.5625 43.9571 33.5625C43.7616 33.5625 43.6248 33.6993 43.6248 33.8947C43.6248 38.6205 39.7835 42.4397 34.8025 42.4397C29.8215 42.4397 25.9801 38.6205 25.9801 33.8947C25.9801 33.6993 25.8433 33.5625 25.6479 33.5625C25.4524 33.5625 25.3156 33.6993 25.3156 33.8947C25.3156 39.1478 29.2687 42.6807 34.012 43.0782L34.4702 43.1166V43.5764V45.5461V46.0461H33.9702H29.0045C28.7874 46.0461 28.6446 46.204 28.6446 46.3783C28.6446 46.5526 28.7874 46.7105 29.0045 46.7105H40.6004C40.8175 46.7105 40.9604 46.5526 40.9604 46.3783C40.9604 46.204 40.8175 46.0461 40.6004 46.0461H35.6347ZM29.309 28.9013V28.4013H29.809H32.0283C32.2238 28.4013 32.3606 28.2645 32.3606 28.0691C32.3606 27.8736 32.2238 27.7368 32.0283 27.7368H29.809H29.309V27.2368V27.1536C29.309 24.1498 31.7891 21.7434 34.8025 21.7434C37.8158 21.7434 40.2959 24.1498 40.2959 27.1536V27.2368V27.7368H39.7959H37.5766C37.3811 27.7368 37.2444 27.8736 37.2444 28.0691C37.2444 28.2645 37.3811 28.4013 37.5766 28.4013H39.7959H40.2959V28.9013V31.6754V32.1754H39.7959H37.5766C37.3811 32.1754 37.2444 32.3122 37.2444 32.5077C37.2444 32.7031 37.3811 32.8399 37.5766 32.8399H39.7959H40.2959V33.3399V33.7006C40.2959 36.7044 37.8158 39.1107 34.8025 39.1107C31.7891 39.1107 29.309 36.7044 29.309 33.7006V33.3399V32.8399H29.809H32.0283C32.2238 32.8399 32.3606 32.7031 32.3606 32.5077C32.3606 32.3122 32.2238 32.1754 32.0283 32.1754H29.809H29.309V31.6754V28.9013ZM34.8025 21.0789C31.3835 21.0789 28.6446 23.8011 28.6446 27.1536V33.7283C28.6446 37.0517 31.3822 39.7752 34.8025 39.7752C38.2214 39.7752 40.9604 37.0531 40.9604 33.7006V27.1536C40.9604 23.8011 38.2214 21.0789 34.8025 21.0789Z" fill="white" stroke="white"/>
</svg>
