<svg width="40" height="40" viewBox="0 0 40 40" fill="none" xmlns="http://www.w3.org/2000/svg">
<path d="M32.7047 34.4797L32.6851 18.6424C32.6851 14.883 31.4104 11.4178 29.0963 8.88535C26.8065 6.37988 23.714 5 20.3888 5H20.2957C16.971 5 13.8786 6.37988 11.5888 8.88594C9.27464 11.4184 8 14.883 8 18.6424V34.516C8 34.7832 8.21379 35 8.47727 35C10.1182 35 11.6153 34.1434 12.4612 32.7904C13.302 34.1434 14.7852 35 16.4071 35C18.0284 35 19.5111 34.1439 20.3524 32.7916C21.1937 34.1439 22.6763 35 24.2976 35C25.9195 35 27.4028 34.1434 28.2435 32.7904C29.0894 34.1434 30.5865 35 32.2275 35H32.2286C32.4921 35 32.7059 34.7832 32.7059 34.516C32.7059 34.5037 32.7059 34.492 32.7047 34.4797ZM28.2429 31.2055C28.0407 31.2055 27.8604 31.3344 27.7934 31.5277C27.2705 33.026 25.8652 34.032 24.2976 34.032C22.73 34.032 21.3248 33.0254 20.8019 31.5277C20.7343 31.3344 20.554 31.2055 20.3518 31.2055C20.1496 31.2055 19.9693 31.3344 19.9017 31.5277C19.3788 33.026 17.9735 34.032 16.4059 34.032C14.8383 34.032 13.4343 33.026 12.9114 31.5277C12.8438 31.3344 12.6635 31.2055 12.4618 31.2055C12.2596 31.2055 12.0793 31.3344 12.0117 31.5277C11.5414 32.8742 10.3465 33.8234 8.95396 34.0021V18.6424C8.95396 11.535 13.9358 5.96738 20.2957 5.96738H20.3888C26.7487 5.96738 31.7305 11.535 31.7305 18.643L31.7502 34.0016C30.3583 33.8229 29.1633 32.8736 28.693 31.5271C28.6254 31.3344 28.4451 31.2055 28.2429 31.2055Z" fill="#1475E6"/>
<path d="M24.9615 16.7393C23.8636 16.7393 22.8687 17.3979 22.4261 18.4168C22.3197 18.6612 22.4289 18.9471 22.6705 19.0549C22.9114 19.1627 23.1934 19.052 23.2997 18.8071C23.5898 18.1391 24.2421 17.7073 24.962 17.7073C25.6936 17.7073 26.3499 18.1485 26.6348 18.8317C26.7116 19.0162 26.8885 19.127 27.0745 19.127C27.1363 19.127 27.1993 19.1147 27.26 19.0889C27.5027 18.9846 27.6165 18.701 27.5136 18.4549C27.0786 17.4125 26.0772 16.7393 24.9615 16.7393Z" fill="#1475E6"/>
<path d="M15.5341 16.7393C14.4363 16.7393 13.4413 17.3979 12.9987 18.4168C12.8924 18.6612 13.0016 18.9471 13.2431 19.0549C13.4846 19.1627 13.766 19.052 13.8723 18.8071C14.1624 18.1391 14.8147 17.7073 15.5347 17.7073C16.2656 17.7073 16.9226 18.1485 17.2074 18.8317C17.2843 19.0162 17.4611 19.127 17.6472 19.127C17.709 19.127 17.772 19.1147 17.8326 19.0889C18.0753 18.9846 18.1891 18.701 18.0863 18.4549C17.6506 17.4125 16.6493 16.7393 15.5341 16.7393Z" fill="#1475E6"/>
<path d="M21.5906 21.2241C21.3272 21.2241 21.1134 21.4409 21.1134 21.708C21.1134 22.1885 20.728 22.5788 20.2542 22.5788C19.7804 22.5788 19.395 22.1879 19.395 21.708C19.395 21.4409 19.1812 21.2241 18.9177 21.2241C18.6542 21.2241 18.4404 21.4409 18.4404 21.708C18.4404 22.7217 19.254 23.5467 20.2536 23.5467C21.2532 23.5467 22.0667 22.7217 22.0667 21.708C22.0673 21.4409 21.8541 21.2241 21.5906 21.2241Z" fill="#1475E6"/>
<path d="M32.7047 34.4797L32.6851 18.6424C32.6851 14.883 31.4104 11.4178 29.0963 8.88535C26.8065 6.37988 23.714 5 20.3888 5H20.2957C16.971 5 13.8786 6.37988 11.5888 8.88594C9.27464 11.4184 8 14.883 8 18.6424V34.516C8 34.7832 8.21379 35 8.47727 35C10.1182 35 11.6153 34.1434 12.4612 32.7904C13.302 34.1434 14.7852 35 16.4071 35C18.0284 35 19.5111 34.1439 20.3524 32.7916C21.1937 34.1439 22.6763 35 24.2976 35C25.9195 35 27.4028 34.1434 28.2435 32.7904C29.0894 34.1434 30.5865 35 32.2275 35H32.2286C32.4921 35 32.7059 34.7832 32.7059 34.516C32.7059 34.5037 32.7059 34.492 32.7047 34.4797ZM28.2429 31.2055C28.0407 31.2055 27.8604 31.3344 27.7934 31.5277C27.2705 33.026 25.8652 34.032 24.2976 34.032C22.73 34.032 21.3248 33.0254 20.8019 31.5277C20.7343 31.3344 20.554 31.2055 20.3518 31.2055C20.1496 31.2055 19.9693 31.3344 19.9017 31.5277C19.3788 33.026 17.9735 34.032 16.4059 34.032C14.8383 34.032 13.4343 33.026 12.9114 31.5277C12.8438 31.3344 12.6635 31.2055 12.4618 31.2055C12.2596 31.2055 12.0793 31.3344 12.0117 31.5277C11.5414 32.8742 10.3465 33.8234 8.95396 34.0021V18.6424C8.95396 11.535 13.9358 5.96738 20.2957 5.96738H20.3888C26.7487 5.96738 31.7305 11.535 31.7305 18.643L31.7502 34.0016C30.3583 33.8229 29.1633 32.8736 28.693 31.5271C28.6254 31.3344 28.4451 31.2055 28.2429 31.2055Z" stroke="#1475E6" stroke-width="0.5"/>
<path d="M24.9615 16.7393C23.8636 16.7393 22.8687 17.3979 22.4261 18.4168C22.3197 18.6612 22.4289 18.9471 22.6705 19.0549C22.9114 19.1627 23.1934 19.052 23.2997 18.8071C23.5898 18.1391 24.2421 17.7073 24.962 17.7073C25.6936 17.7073 26.3499 18.1485 26.6348 18.8317C26.7116 19.0162 26.8885 19.127 27.0745 19.127C27.1363 19.127 27.1993 19.1147 27.26 19.0889C27.5027 18.9846 27.6165 18.701 27.5136 18.4549C27.0786 17.4125 26.0772 16.7393 24.9615 16.7393Z" stroke="#1475E6" stroke-width="0.5"/>
<path d="M15.5341 16.7393C14.4363 16.7393 13.4413 17.3979 12.9987 18.4168C12.8924 18.6612 13.0016 18.9471 13.2431 19.0549C13.4846 19.1627 13.766 19.052 13.8723 18.8071C14.1624 18.1391 14.8147 17.7073 15.5347 17.7073C16.2656 17.7073 16.9226 18.1485 17.2074 18.8317C17.2843 19.0162 17.4611 19.127 17.6472 19.127C17.709 19.127 17.772 19.1147 17.8326 19.0889C18.0753 18.9846 18.1891 18.701 18.0863 18.4549C17.6506 17.4125 16.6493 16.7393 15.5341 16.7393Z" stroke="#1475E6" stroke-width="0.5"/>
<path d="M21.5906 21.2241C21.3272 21.2241 21.1134 21.4409 21.1134 21.708C21.1134 22.1885 20.728 22.5788 20.2542 22.5788C19.7804 22.5788 19.395 22.1879 19.395 21.708C19.395 21.4409 19.1812 21.2241 18.9177 21.2241C18.6542 21.2241 18.4404 21.4409 18.4404 21.708C18.4404 22.7217 19.254 23.5467 20.2536 23.5467C21.2532 23.5467 22.0667 22.7217 22.0667 21.708C22.0673 21.4409 21.8541 21.2241 21.5906 21.2241Z" stroke="#1475E6" stroke-width="0.5"/>
</svg>
