<svg width="40" height="40" viewBox="0 0 40 40" fill="none" xmlns="http://www.w3.org/2000/svg">
<path d="M31.4267 13.8769C33.0177 11.0588 32.46 7.44825 30.006 5.2408C29.7301 4.99422 29.3308 4.92965 28.9962 5.08229C28.6557 5.23493 28.4385 5.56957 28.4385 5.93944C28.4385 7.28974 27.916 8.55197 26.9942 9.49131C24.8925 8.19385 22.4267 7.44825 19.7848 7.44825C17.1312 7.44825 14.6537 8.20559 12.546 9.50892C11.6067 8.56371 11.0842 7.29561 11.0842 5.93944C11.0842 5.56957 10.867 5.22906 10.5264 5.08229C10.1918 4.92965 9.79258 4.99422 9.51665 5.2408C7.05089 7.45999 6.49315 11.0823 8.10764 13.9062C6.77495 16.0315 6 18.5383 6 21.2213C6 28.8182 12.182 35.0002 19.7789 35.0002C27.3758 35.0002 33.5579 28.8182 33.5579 21.2213C33.552 18.5266 32.7712 16.0021 31.4267 13.8769ZM29.9355 8.21733C30.5285 9.44434 30.6107 10.871 30.1528 12.1626C29.6596 11.5931 29.1136 11.0706 28.5383 10.5892C29.1606 9.90227 29.6303 9.09209 29.9355 8.21733ZM9.58123 8.21733C9.88652 9.09796 10.3679 9.91401 11.002 10.6126C10.4208 11.0941 9.87477 11.6283 9.38162 12.1978C8.90608 10.8944 8.9824 9.45609 9.58123 8.21733ZM19.7789 33.1216C13.2153 33.1216 7.87868 27.7849 7.87868 21.2213C7.87868 14.6577 13.2153 9.32693 19.7789 9.32693C22.2682 9.32693 24.5754 10.096 26.4893 11.4052C26.5246 11.4346 26.5598 11.4581 26.6009 11.4815C27.7105 12.2624 28.6792 13.2252 29.4659 14.323C29.507 14.3994 29.5539 14.4698 29.6126 14.5344C30.916 16.4424 31.6733 18.7438 31.6733 21.2213C31.6733 27.7849 26.3367 33.1216 19.7789 33.1216Z" fill="#1475E6"/>
<path d="M26.0607 15.3386L26.9414 14.458C27.3112 14.0881 27.3112 13.4952 26.9414 13.1312C26.5715 12.7613 25.9785 12.7613 25.6145 13.1312L23.1136 15.6322C23.0783 15.6615 23.049 15.6909 23.0138 15.7261C22.5441 16.2017 22.2799 16.8298 22.2799 17.4932C22.2799 18.8729 23.4012 20.0001 24.7868 20.0001C26.1664 20.0001 27.2936 18.8788 27.2936 17.4932C27.2936 16.5774 26.8005 15.7789 26.0607 15.3386ZM24.7868 18.1214C24.4404 18.1214 24.1586 17.8396 24.1586 17.4932C24.1586 17.3289 24.2232 17.1703 24.3406 17.0471C24.458 16.9296 24.6165 16.8651 24.7809 16.8651C25.1273 16.8651 25.4091 17.1469 25.4091 17.4932C25.4149 17.8396 25.1331 18.1214 24.7868 18.1214Z" fill="#1475E6"/>
<path d="M12.2643 17.4932C12.2643 18.8728 13.3856 20 14.7711 20C16.1566 20 17.278 18.8787 17.278 17.4932C17.278 16.8239 17.0197 16.1957 16.5441 15.7261C16.5148 15.6967 16.4854 15.6673 16.4561 15.6439L13.9492 13.137C13.5793 12.7671 12.9864 12.7671 12.6224 13.137C12.2584 13.5069 12.2525 14.0998 12.6224 14.4638L13.503 15.3444C12.7574 15.7789 12.2643 16.5773 12.2643 17.4932ZM14.7653 18.1214C14.4189 18.1214 14.1371 17.8396 14.1371 17.4932C14.1371 17.1468 14.4189 16.865 14.7653 16.865C14.9355 16.865 15.0881 16.9296 15.2056 17.047C15.323 17.1644 15.3876 17.3229 15.3876 17.4932C15.3934 17.8396 15.1116 18.1214 14.7653 18.1214Z" fill="#1475E6"/>
<path d="M13.1625 27.7673C12.7926 28.1371 12.7926 28.7301 13.1625 29.0941C13.5323 29.4639 14.1253 29.4639 14.4893 29.0941C17.4012 26.1821 22.1449 26.1821 25.0569 29.0941C25.2389 29.2761 25.4796 29.37 25.7203 29.37C25.961 29.37 26.2017 29.2761 26.3837 29.0941C26.7535 28.7242 26.7535 28.1312 26.3837 27.7673C22.7437 24.1214 16.8083 24.1214 13.1625 27.7673Z" fill="#1475E6"/>
</svg>
