<svg width="206" height="171" viewBox="0 0 206 171" fill="none" xmlns="http://www.w3.org/2000/svg">
<path opacity="0.5" d="M61.2888 64.5386C62.6741 66.476 61.5236 68.9969 60.1618 70.4207C58.4713 72.1713 56.7572 71.8913 55.9824 73.4318C55.0432 75.2991 57.039 76.6763 56.0059 78.6136C55.3719 79.8041 54.4797 79.524 53.1883 81.0412C51.6387 82.8852 53.1649 83.422 52.0613 84.7758C48.5159 89.1407 47.0837 86.1063 44.9235 87.2501C42.1295 88.7439 40.2511 90.0044 38.8658 89.7009C33.4655 88.5339 35.1326 85.0093 32.5263 83.6554C28.9809 81.8115 27.2669 74.2954 29.6853 71.6578C30.9532 70.2807 32.2211 70.0939 32.3385 68.9502C32.5029 67.2929 29.9671 66.8028 29.7088 64.7954C29.427 62.5312 32.4559 61.4108 32.0098 59.4968C31.5637 57.6295 28.4644 57.6995 28.253 56.3457C27.9478 54.315 34.5925 50.6737 41.472 50.9071C44.7592 51.0238 50.136 52.0742 51.0282 54.8051C51.5448 56.369 50.2064 57.3961 50.9578 59.4268C51.4978 60.8973 52.7188 61.7376 54.3388 62.788C55.8415 63.8384 58.8469 61.1074 61.2888 64.5386Z" fill="#767676"/>
<path d="M44.8296 63.3249C45.9096 63.2782 46.4731 70.4441 45.8392 71.4011C45.2052 72.3347 44.0312 73.035 43.9608 74.062C43.8904 75.0891 44.3365 93.2956 44.7356 93.0388C45.1113 92.782 48.281 87.997 47.6471 86.8999C47.0131 85.7795 46.2853 84.0756 46.4496 82.6284C46.5905 81.1812 46.5905 79.1038 47.0132 79.1505C47.4123 79.1972 47.0836 82.7685 47.3653 83.4454C47.6471 84.1456 47.6941 84.6825 48.1167 84.6825C48.5158 84.7058 48.5393 80.9245 49.1498 80.9945C49.7837 81.0645 49.3611 86.6198 49.1263 87.6469C48.915 88.6739 48.1871 92.2218 47.5062 93.529C46.8253 94.8361 44.7826 96.2133 44.7122 96.6568C44.6652 97.1003 44.9939 107.697 44.9939 107.697L39.6171 107.791C39.6171 107.791 41.6129 86.8766 41.1667 86.1763C40.7206 85.4761 37.9031 79.8274 37.3161 79.2439C36.7056 78.6603 36.3534 75.1357 36.6821 75.0891C37.0109 75.0424 37.1752 78.4736 37.8326 78.5203C38.4901 78.567 38.8423 71.8679 39.3353 71.9379C39.8049 72.008 38.8657 78.8937 39.124 79.3139C39.3823 79.734 40.885 82.2783 41.3781 82.2316C41.8711 82.1849 41.0963 63.4182 41.5424 63.2081C41.965 62.9981 42.2938 63.1615 42.552 65.1455C42.8103 67.1062 43.3269 71.4011 43.6321 71.4011C43.9373 71.4011 44.6652 70.7475 44.6887 70.3274C44.6417 69.9072 44.3365 63.3482 44.8296 63.3249Z" fill="#292929"/>
<path opacity="0.5" d="M161.57 84.6125C160.795 85.7096 161.429 87.1334 162.204 87.9504C163.166 88.9307 164.129 88.7907 164.575 89.6543C165.115 90.7047 163.965 91.4749 164.575 92.5953C164.951 93.2723 165.444 93.1089 166.172 93.9725C167.064 95.0229 166.195 95.3263 166.806 96.0966C168.825 98.5708 169.623 96.8435 170.844 97.4971C172.441 98.3374 173.497 99.061 174.272 98.8976C177.324 98.244 176.385 96.2366 177.864 95.4664C179.86 94.416 180.846 90.1678 179.461 88.6739C178.733 87.8803 178.029 87.787 177.958 87.1334C177.864 86.1997 179.297 85.9196 179.438 84.7759C179.602 83.4921 177.888 82.8619 178.146 81.7881C178.404 80.7378 180.165 80.7611 180.283 80.0142C180.447 78.8704 176.69 76.8164 172.793 76.9331C170.938 77.0031 167.886 77.5866 167.393 79.1272C167.111 80.0142 167.862 80.5977 167.44 81.7415C167.134 82.5818 166.43 83.0486 165.538 83.6555C164.645 84.2157 162.931 82.6751 161.57 84.6125Z" fill="#767676"/>
<path d="M170.868 83.9356C170.257 83.9122 169.952 87.9737 170.304 88.5105C170.656 89.0474 171.337 89.4442 171.384 90.0278C171.431 90.6113 171.173 100.928 170.961 100.765C170.75 100.625 168.942 97.9173 169.318 97.287C169.67 96.6568 170.093 95.6764 169.999 94.8595C169.905 94.0425 169.905 92.8754 169.694 92.8988C169.459 92.9221 169.647 94.9529 169.506 95.3263C169.341 95.7231 169.318 96.0266 169.083 96.0266C168.848 96.0266 168.848 93.9025 168.496 93.9258C168.144 93.9725 168.379 97.1003 168.496 97.6838C168.613 98.2674 169.036 100.275 169.412 101.022C169.787 101.769 170.961 102.539 170.985 102.796C171.008 103.052 170.821 109.051 170.821 109.051L173.873 109.098C173.873 109.098 172.746 97.2637 173.004 96.8669C173.262 96.4701 174.836 93.2723 175.188 92.9455C175.54 92.6187 175.728 90.6346 175.563 90.588C175.376 90.5646 175.282 92.502 174.906 92.5253C174.53 92.5487 174.319 88.7673 174.061 88.7906C173.779 88.814 174.319 92.7354 174.178 92.9688C174.037 93.2022 173.192 94.6494 172.91 94.6261C172.628 94.6027 173.075 83.9823 172.816 83.8656C172.582 83.7488 172.394 83.8422 172.253 84.9626C172.112 86.083 171.807 88.5106 171.642 88.4872C171.478 88.4872 171.055 88.1137 171.055 87.8803C170.985 87.6702 171.149 83.9356 170.868 83.9356Z" fill="#292929"/>
<path d="M102.988 170.977C159.591 170.977 205.477 154.831 205.477 134.914C205.477 114.997 159.591 98.8509 102.988 98.8509C46.3856 98.8509 0.5 114.997 0.5 134.914C0.5 154.831 46.3856 170.977 102.988 170.977Z" fill="url(#paint0_linear_5_2364)"/>
<path d="M106.228 95.7931C105.993 96.2366 105.735 96.8201 105.735 97.1936C105.735 97.5437 105.688 98.9442 105.735 99.0843C105.782 99.2477 107.402 99.5278 108.06 99.4811C108.717 99.4344 109.328 98.8042 109.375 98.6408C109.422 98.5007 109.515 96.4233 109.375 96.1899C109.234 95.9565 106.228 95.7931 106.228 95.7931Z" fill="#F2DAD4"/>
<path d="M98.1047 96.4933C98.0107 96.8901 97.9873 97.8705 98.0342 98.1039C98.1047 98.3373 98.3864 98.8041 98.3864 99.2243C98.3864 99.6677 101.58 99.6444 101.721 99.3643C101.838 99.0842 101.861 98.3606 101.838 98.0572C101.814 97.7771 102.12 97.2402 102.026 96.9368C101.932 96.6567 101.58 96.0965 101.227 96.0265C100.899 95.9798 98.1047 96.4933 98.1047 96.4933Z" fill="#F2DAD4"/>
<path d="M92.7745 50.0668C92.117 52.4243 91.5301 59.8703 91.9527 62.8813C92.3753 65.8924 93.5493 74.1554 93.5493 77.82C93.5493 81.4847 94.8172 87.4368 95.4277 89.6075C96.0381 91.7783 96.9069 96.5867 97.3765 96.6801C97.8461 96.7968 98.5739 97.1936 99.9592 96.9368C101.345 96.6801 101.72 96.33 101.744 95.7698C101.767 95.2096 100.781 88.9773 100.617 87.4601C100.476 85.9662 99.4427 79.664 99.4192 78.847C99.3722 78.0067 100.241 75.0424 100.335 73.3151C100.429 71.5878 100.875 65.3556 101.133 64.5153C101.391 63.675 102.025 59.6602 102.307 59.6369C102.589 59.6135 104.186 64.4919 104.42 66.0558C104.655 67.6197 105.876 77.82 106.158 78.4036C106.463 79.0104 106.04 82.5817 105.853 83.9122C105.665 85.2427 105.618 95.653 105.829 95.9331C106.064 96.1899 107.238 96.7268 108.013 96.7268C108.788 96.7268 110.055 96.4 110.243 96.0032C110.431 95.6064 110.173 94.1592 110.384 93.4589C110.595 92.7587 112.521 85.3827 112.638 83.6087C112.732 81.8348 112.239 75.019 112.145 73.3384C112.075 71.6578 112.873 66.5693 113.037 65.2155C113.225 63.8617 113.836 58.2364 113.836 56.9292C113.836 55.5987 113.577 51.5606 112.779 50.6503C111.981 49.7633 92.7745 50.0668 92.7745 50.0668Z" fill="#1F2A44"/>
<path d="M124.237 28.1023C124.566 27.8922 125.083 27.4721 125.177 27.192C125.27 26.9119 125.599 26.1416 125.975 25.9549C126.35 25.7681 127.102 25.5347 127.454 25.418C127.806 25.3013 128.698 24.7878 128.863 24.7177C129.027 24.6477 129.544 24.5544 129.685 24.8345C129.825 25.1146 129.638 25.6748 129.262 25.8148C128.886 25.9549 128.018 26.235 128.111 26.4217C128.182 26.6084 129.027 26.8185 129.685 26.4917C130.342 26.1649 131.469 25.8848 131.727 25.7448C131.986 25.6047 133.934 24.8111 134.146 24.8111C134.334 24.8111 134.545 24.9045 134.639 25.0912C134.733 25.2779 135.32 24.8345 135.484 25.1379C135.672 25.4413 135.249 25.6281 135.226 25.7214C135.202 25.8148 135.461 25.9082 135.461 26.1416C135.461 26.375 135.132 26.4917 134.568 26.7485C134.028 27.0052 131.563 28.5458 131.164 28.7559C130.765 28.9659 129.966 29.3861 128.98 29.4794C127.971 29.5728 126.773 29.6195 126.491 29.9696C126.21 30.3197 125.529 31.2768 125.364 31.3468C125.177 31.4168 124.073 31.5802 123.791 30.9033C123.486 30.1797 124.237 28.1023 124.237 28.1023Z" fill="#F2DAD4"/>
<path d="M81.7627 26.375C81.434 26.1649 80.9174 25.7448 80.8235 25.4647C80.7296 25.1846 80.4009 24.4143 80.0252 24.2276C79.6495 24.0408 78.8982 23.8074 78.546 23.6907C78.1938 23.574 77.3016 23.0605 77.1372 22.9904C76.9729 22.9204 76.4563 22.8271 76.3154 23.1072C76.1746 23.3873 76.3624 23.9475 76.7381 24.0875C77.1137 24.2276 77.9825 24.5077 77.8886 24.6944C77.8181 24.8811 76.9729 25.0912 76.3154 24.7644C75.658 24.4376 74.531 24.1575 74.2727 24.0175C74.0145 23.8774 72.0656 23.0838 71.8543 23.0838C71.6665 23.0838 71.4552 23.1772 71.3613 23.3639C71.2673 23.5506 70.6804 23.1072 70.516 23.4106C70.3282 23.714 70.7508 23.9008 70.7743 23.9941C70.7977 24.0875 70.5395 24.1809 70.5395 24.4143C70.5395 24.6477 70.8682 24.7644 71.4317 25.0212C71.9717 25.2779 74.4371 26.8185 74.8362 27.0286C75.2354 27.2386 76.0337 27.6588 77.0198 27.7522C78.0294 27.8455 79.2269 27.8922 79.5087 28.2423C79.7904 28.5925 80.0017 29.0593 80.1661 29.106C80.3539 29.176 81.4575 29.3394 81.7392 28.6625C82.0444 27.9622 81.7627 26.375 81.7627 26.375Z" fill="#F2DAD4"/>
<path d="M99.9123 15.9646C98.5505 16.128 93.2206 16.7816 92.2814 18.7189C91.3423 20.6563 90.5205 25.3246 90.0744 26.6317C89.6283 27.9389 88.783 31.02 88.4073 31.02C88.0316 31.02 81.88 26.2816 81.7626 26.2816C81.6217 26.2816 81.927 27.4254 81.1991 28.1489C80.4712 28.8959 79.9547 28.6858 80.0721 29.0593C80.213 29.4327 83.547 33.4242 84.4158 34.5679C85.2845 35.735 89.0413 38.7694 89.9804 38.7461C90.9196 38.6994 94.1128 34.0311 94.3476 34.0311C94.5824 34.0311 94.0424 41.477 93.6433 43.0409C93.2206 44.6282 91.4127 51.4906 91.9058 52.0975C92.3988 52.7044 97.6348 54.4784 101.72 54.5951C105.806 54.7118 114.047 53.2179 114.211 52.1675C114.352 51.1172 112.521 45.3284 112.521 42.9943C112.521 40.6601 112.004 32.3971 112.333 32.3505C112.685 32.3038 114.963 38.6527 117.17 38.536C119.4 38.396 123.979 33.7976 124.472 32.9107C124.965 32.0237 125.951 31.09 125.669 30.95C125.411 30.8099 124.472 29.9696 124.472 29.316C124.472 28.6625 124.542 27.8222 124.261 27.9622C123.979 28.1023 122.077 29.7595 121.302 30.203C120.527 30.6465 119.259 31.3468 119.095 31.09C118.931 30.8332 116.536 26.3283 116.348 25.418C116.16 24.5076 114.963 18.3921 113.93 17.8319C112.896 17.2951 108.154 15.5911 107.332 15.5911C106.51 15.5911 99.9123 15.9646 99.9123 15.9646Z" fill="#FFDA19"/>
<path d="M99.8184 14.284C99.8184 14.9142 100.147 15.7778 99.9123 15.9646C99.654 16.1513 101.11 20.0494 102.519 20.1427C103.927 20.2361 106.44 16.338 106.487 15.8945C106.534 15.4511 106.369 13.9105 106.322 13.8405C106.275 13.7938 99.8184 14.284 99.8184 14.284Z" fill="url(#paint1_linear_5_2364)"/>
<path d="M97.9166 9.05544C97.6818 7.37484 97.1418 5.78761 97.4939 4.13035C97.8696 2.47309 99.0436 0.46571 101.509 0.208952C103.974 -0.0478059 105.125 0.88586 106.346 2.44975C107.567 4.01364 107.402 8.91539 107.074 9.24217C106.745 9.56895 104.679 10.5493 102.331 10.5726C99.9828 10.596 97.9166 9.05544 97.9166 9.05544Z" fill="#3C3C3C"/>
<path d="M98.8793 11.5763C98.8793 11.5763 99.3724 14.2373 99.7246 14.5174C100.077 14.7975 101.908 16.268 103.082 16.198C104.256 16.1513 106.628 14.4707 106.792 13.537C106.933 12.6034 106.792 10.7594 106.886 10.7827C106.98 10.8061 107.614 10.8761 107.755 9.89575C107.872 8.89206 107.849 7.35151 107.449 7.32817C107.074 7.30482 106.862 8.75201 106.651 8.75201C106.44 8.75201 106.416 6.62792 106.041 6.18443C105.665 5.71759 103.153 5.22742 102.8 5.22742C102.448 5.22742 100.828 7.32816 98.7385 7.65495C98.7385 7.65495 99.1611 9.31221 98.8559 9.33555C98.5506 9.35889 98.128 8.00507 97.8228 8.00507C97.541 8.00507 97.4706 9.38223 97.6115 10.2926C97.7523 11.2029 98.2454 11.7164 98.4332 11.7164C98.5506 11.7164 98.6915 11.4363 98.8793 11.5763Z" fill="#F2DAD4"/>
<path d="M109.563 99.271C109.844 99.6911 109.821 100.788 110.385 101.839C110.948 102.889 111.394 103.799 111.418 104.546C111.441 105.293 110.666 106.507 109.563 106.694C108.483 106.857 107.238 106.927 106.698 106.647C106.158 106.367 105.501 105.877 105.501 105.06C105.501 104.266 105.618 102.702 105.501 102.445C105.383 102.189 105.242 101.395 105.242 100.998C105.242 100.601 105.149 99.4344 105.36 99.1543C105.595 98.8742 106.487 98.2673 107.379 98.2906C108.271 98.2673 109.304 98.8975 109.563 99.271Z" fill="#1F2A44"/>
<path d="M98.0341 99.271C97.7524 99.6911 97.7758 100.788 97.2123 101.839C96.6488 102.889 96.2027 103.799 96.1792 104.546C96.1558 105.293 96.9306 106.507 98.0341 106.694C99.1142 106.857 100.359 106.927 100.899 106.647C101.439 106.367 102.096 105.877 102.096 105.06C102.096 104.266 101.979 102.702 102.096 102.445C102.213 102.189 102.354 101.395 102.354 100.998C102.354 100.601 102.448 99.4344 102.237 99.1543C102.002 98.8742 101.11 98.2673 100.218 98.2906C99.349 98.2673 98.2924 98.8975 98.0341 99.271Z" fill="#1F2A44"/>
<defs>
<linearGradient id="paint0_linear_5_2364" x1="102.997" y1="82.4974" x2="102.997" y2="139.142" gradientUnits="userSpaceOnUse">
<stop offset="0.213542" stop-color="#ECECEC"/>
<stop offset="1" stop-color="#F3F3F3" stop-opacity="0"/>
</linearGradient>
<linearGradient id="paint1_linear_5_2364" x1="102.122" y1="11.6816" x2="103.961" y2="18.0647" gradientUnits="userSpaceOnUse">
<stop stop-color="#F2BFAD"/>
<stop offset="1" stop-color="#F2DAD4"/>
</linearGradient>
</defs>
</svg>
