<svg width="40" height="40" viewBox="0 0 40 40" fill="none" xmlns="http://www.w3.org/2000/svg">
<path d="M34.9376 26.8237C34.7295 25.9116 34.0014 25.3215 33.0132 25.1605C32.9092 25.1605 32.7011 25.1069 32.4931 25.1069C31.4009 25.0532 29.2685 24.9459 27.8642 22.6927C28.2803 22.4244 28.6963 21.9952 29.0604 21.566C29.5805 20.9759 30.2567 20.2248 30.7248 20.3321C30.9328 20.3857 31.1928 20.6003 31.2969 20.9222C31.5049 21.4587 31.5569 22.3171 31.0368 23.1755C30.7768 23.6583 30.8808 24.2485 31.3489 24.5167C31.5049 24.624 31.6609 24.6777 31.869 24.6777C32.181 24.6777 32.4931 24.5167 32.7011 24.1948C33.4813 22.9073 33.6373 21.3514 33.1172 20.0638C32.7011 19.1518 31.973 18.508 31.1408 18.3471C29.5805 18.0252 28.4883 19.3127 27.7081 20.2248C27.5521 20.4394 27.2921 20.654 27.136 20.8686C26.876 20.0102 26.72 19.0982 26.6159 18.2934C26.3039 16.2011 25.9918 14.0551 23.5473 12.1774C23.0272 11.7482 22.9752 11.158 22.9752 11.1044C22.9752 10.5679 22.5591 10.1387 21.987 10.1387C21.4669 10.1387 21.0508 10.6216 21.0508 11.158C21.0508 11.319 21.1028 12.7675 22.4031 13.7332C24.1714 15.0745 24.3795 16.523 24.6915 18.5617C24.8996 19.7956 25.0556 21.1905 25.7318 22.639C27.5521 26.8237 31.1408 27.0383 32.4931 27.0919C32.6491 27.0919 32.7532 27.0919 32.8052 27.0919C32.9612 27.0919 33.1172 27.1456 33.1692 27.2529C33.2212 27.4138 33.0652 27.843 32.5451 28.2185C31.921 28.7014 30.6727 29.4525 29.3205 29.4525C26.6159 29.4525 23.4953 27.0383 22.7672 20.3321C22.6111 18.8836 22.6111 18.0252 22.6111 18.0252C22.6111 17.4887 22.1951 17.0595 21.6749 17.0058C21.1548 17.0058 20.7388 17.435 20.7388 17.9715C20.7388 18.0252 20.7388 18.8836 20.8948 20.3321C19.4905 25.858 15.9538 29.4525 11.897 29.4525C8.93241 29.4525 7.26808 26.6091 7.11205 24.6777C7.11205 24.4631 7.00803 23.2828 7.63215 23.1219C8.04824 23.0682 8.41231 23.3901 9.08844 24.0875C9.92061 25.1069 11.4289 26.6091 13.8214 25.1069C15.4337 24.0875 16.2139 21.9416 16.994 19.6883C17.7222 17.6496 18.5023 15.5573 19.8546 14.3234C20.1146 14.0551 20.7908 13.465 19.8546 10.5143L21.779 9.92411C22.2991 9.76317 22.5591 9.22667 22.4031 8.69018C22.2471 8.15369 21.727 7.88544 21.2069 8.04639L18.3463 8.95843C18.0862 9.06573 17.8782 9.22667 17.7742 9.49492C17.6702 9.76317 17.6702 10.0314 17.7222 10.2997C18.1382 11.3726 18.4503 12.6066 18.4503 13.0894C16.838 14.6453 16.0058 17.0058 15.2257 19.0982C14.4975 21.0295 13.8734 22.8536 12.8332 23.551C11.793 24.2485 11.3249 23.8193 10.2847 22.8C9.50453 22.0489 8.51633 21.0295 7.11205 21.3514C5.65576 21.6197 4.82359 23.0682 5.03164 24.9996C5.29169 28.0576 7.94421 31.4375 11.741 31.4375C15.7978 31.4375 19.3865 28.6477 21.4669 24.1412C22.9752 29.4525 26.3039 31.4375 29.2164 31.4375C31.1408 31.4375 32.7532 30.4182 33.5853 29.828C34.6255 29.0769 35.1976 27.8966 34.9376 26.8237Z" fill="#1475E6"/>
</svg>
