<svg width="40" height="40" viewBox="0 0 40 40" fill="none" xmlns="http://www.w3.org/2000/svg">
<path d="M34.4759 12.1997C33.851 9.12847 30.7784 6.15799 27.6016 5.55382C27.4454 5.55382 24.3728 5 19.9983 5C15.6238 5 12.5512 5.55382 12.4471 5.55382C9.27036 6.15799 6.19778 9.12847 5.57285 12.1997C5.57285 12.3003 5 15.3212 5 19.5C5 23.7292 5.57285 26.6997 5.57285 26.8003C6.14571 29.8715 9.27036 32.842 12.4471 33.4462C12.5512 33.4462 15.6759 34 19.9983 34C24.3728 34 27.4454 33.4462 27.5496 33.4462C30.7263 32.8924 33.7989 29.8715 34.4238 26.8003C34.4238 26.6997 34.9967 23.6788 34.9967 19.5C35.0487 15.3212 34.4759 12.3507 34.4759 12.1997ZM32.549 26.4983C32.0803 28.8646 29.6847 31.1806 27.2371 31.6337C27.185 31.6337 24.2166 32.1875 20.0504 32.1875C15.8842 32.1875 12.8637 31.6337 12.8637 31.6337C10.364 31.1806 7.91634 28.8646 7.49972 26.4983C7.49972 26.4479 6.92687 23.5781 6.92687 19.5503C6.92687 15.5226 7.49972 12.6024 7.49972 12.6024C7.91634 10.1858 10.364 7.81944 12.8116 7.41667C12.8637 7.41667 15.8321 6.86285 19.9983 6.86285C24.1645 6.86285 27.185 7.41667 27.185 7.41667C29.6847 7.81944 32.0803 10.1858 32.549 12.5521C32.549 12.6024 33.1219 15.4722 33.1219 19.5C33.1219 23.5278 32.549 26.4479 32.549 26.4983Z" fill="#1475E6"/>
<path d="M30.518 22.9236C27.7579 21.2118 26.2476 22.3698 25.2061 23.1753C24.6853 23.5781 24.3728 23.8299 24.0604 23.8299C23.4354 23.8299 23.0709 23.5781 22.446 23.125C21.8731 22.6719 21.144 22.1181 20.0504 22.1181C18.9568 22.1181 18.2277 22.6719 17.6548 23.125C17.082 23.5781 16.6654 23.8299 16.0404 23.8299C15.6759 23.8299 15.3634 23.5781 14.8427 23.2257C13.8011 22.4705 12.2909 21.2622 9.53074 22.9236C9.06205 23.1753 8.95789 23.7795 9.21828 24.1823C9.47867 24.6354 10.1036 24.7361 10.5202 24.4844C12.1346 23.5278 12.6554 23.9306 13.5928 24.6354C14.2177 25.0885 14.9468 25.6424 15.9884 25.6424C17.3424 25.6424 18.1756 24.9878 18.8005 24.4844C19.3213 24.0816 19.5817 23.8802 19.9983 23.8802C20.4149 23.8802 20.6753 24.0816 21.1961 24.4844C21.821 24.9878 22.6543 25.6424 24.0083 25.6424C25.0498 25.6424 25.7789 25.0382 26.4039 24.5851C27.3413 23.8802 27.862 23.4271 29.4244 24.434C29.8931 24.7361 30.4659 24.5851 30.7784 24.1823C31.0908 23.7795 30.9867 23.2257 30.518 22.9236Z" fill="#1475E6"/>
<path d="M19.9983 20.658C21.8731 20.658 23.4354 19.1476 23.4354 17.3351C23.4354 16.8316 23.0188 16.4288 22.498 16.4288C21.9773 16.4288 21.5607 16.8316 21.5607 17.3351C21.5607 18.1406 20.8836 18.7951 20.0504 18.7951C19.2172 18.7951 18.5402 18.1406 18.5402 17.3351C18.5402 16.8316 18.1235 16.4288 17.6028 16.4288C17.082 16.4288 16.6654 16.8316 16.6654 17.3351C16.5612 19.1979 18.1235 20.658 19.9983 20.658Z" fill="#1475E6"/>
<path d="M25.1019 17.033C25.3102 17.2344 25.5185 17.2847 25.7789 17.2847C26.0393 17.2847 26.2476 17.184 26.4559 17.033L27.7058 15.8247L28.9557 17.033C29.164 17.2344 29.3723 17.2847 29.6327 17.2847C29.8931 17.2847 30.1014 17.184 30.3097 17.033C30.6742 16.6806 30.6742 16.0764 30.3097 15.724L29.0598 14.5156L30.3097 13.3073C30.6742 12.9549 30.6742 12.3507 30.3097 11.9983C29.9451 11.6458 29.3202 11.6458 28.9557 11.9983L27.7058 13.2066L26.4559 11.9983C26.0914 11.6458 25.4665 11.6458 25.1019 11.9983C24.7374 12.3507 24.7374 12.9549 25.1019 13.3073L26.3518 14.5156L25.1019 15.724C24.6853 16.0764 24.6853 16.6806 25.1019 17.033Z" fill="#1475E6"/>
<path d="M9.68698 17.033C9.89529 17.2344 10.1036 17.2847 10.364 17.2847C10.6244 17.2847 10.8327 17.184 11.041 17.033L12.2909 15.8247L13.5407 17.033C13.749 17.2344 13.9573 17.2847 14.2177 17.2847C14.4781 17.2847 14.6864 17.184 14.8947 17.033C15.2593 16.6806 15.2593 16.0764 14.8947 15.724L13.6449 14.5156L14.8947 13.3073C15.2593 12.9549 15.2593 12.3507 14.8947 11.9983C14.5302 11.6458 13.9053 11.6458 13.5407 11.9983L12.2909 13.2066L11.041 11.9983C10.6765 11.6458 10.0515 11.6458 9.68698 11.9983C9.32243 12.3507 9.32243 12.9549 9.68698 13.3073L10.9368 14.5156L9.68698 15.724C9.32243 16.0764 9.32243 16.6806 9.68698 17.033Z" fill="#1475E6"/>
<path d="M34.4759 12.1997C33.851 9.12847 30.7784 6.15799 27.6016 5.55382C27.4454 5.55382 24.3728 5 19.9983 5C15.6238 5 12.5512 5.55382 12.4471 5.55382C9.27036 6.15799 6.19778 9.12847 5.57285 12.1997C5.57285 12.3003 5 15.3212 5 19.5C5 23.7292 5.57285 26.6997 5.57285 26.8003C6.14571 29.8715 9.27036 32.842 12.4471 33.4462C12.5512 33.4462 15.6759 34 19.9983 34C24.3728 34 27.4454 33.4462 27.5496 33.4462C30.7263 32.8924 33.7989 29.8715 34.4238 26.8003C34.4238 26.6997 34.9967 23.6788 34.9967 19.5C35.0487 15.3212 34.4759 12.3507 34.4759 12.1997ZM32.549 26.4983C32.0803 28.8646 29.6847 31.1806 27.2371 31.6337C27.185 31.6337 24.2166 32.1875 20.0504 32.1875C15.8842 32.1875 12.8637 31.6337 12.8637 31.6337C10.364 31.1806 7.91634 28.8646 7.49972 26.4983C7.49972 26.4479 6.92687 23.5781 6.92687 19.5503C6.92687 15.5226 7.49972 12.6024 7.49972 12.6024C7.91634 10.1858 10.364 7.81944 12.8116 7.41667C12.8637 7.41667 15.8321 6.86285 19.9983 6.86285C24.1645 6.86285 27.185 7.41667 27.185 7.41667C29.6847 7.81944 32.0803 10.1858 32.549 12.5521C32.549 12.6024 33.1219 15.4722 33.1219 19.5C33.1219 23.5278 32.549 26.4479 32.549 26.4983Z" stroke="#1475E6" stroke-width="0.5"/>
<path d="M30.518 22.9236C27.7579 21.2118 26.2476 22.3698 25.2061 23.1753C24.6853 23.5781 24.3728 23.8299 24.0604 23.8299C23.4354 23.8299 23.0709 23.5781 22.446 23.125C21.8731 22.6719 21.144 22.1181 20.0504 22.1181C18.9568 22.1181 18.2277 22.6719 17.6548 23.125C17.082 23.5781 16.6654 23.8299 16.0404 23.8299C15.6759 23.8299 15.3634 23.5781 14.8427 23.2257C13.8011 22.4705 12.2909 21.2622 9.53074 22.9236C9.06205 23.1753 8.95789 23.7795 9.21828 24.1823C9.47867 24.6354 10.1036 24.7361 10.5202 24.4844C12.1346 23.5278 12.6554 23.9306 13.5928 24.6354C14.2177 25.0885 14.9468 25.6424 15.9884 25.6424C17.3424 25.6424 18.1756 24.9878 18.8005 24.4844C19.3213 24.0816 19.5817 23.8802 19.9983 23.8802C20.4149 23.8802 20.6753 24.0816 21.1961 24.4844C21.821 24.9878 22.6543 25.6424 24.0083 25.6424C25.0498 25.6424 25.7789 25.0382 26.4039 24.5851C27.3413 23.8802 27.862 23.4271 29.4244 24.434C29.8931 24.7361 30.4659 24.5851 30.7784 24.1823C31.0908 23.7795 30.9867 23.2257 30.518 22.9236Z" stroke="#1475E6" stroke-width="0.5"/>
<path d="M19.9983 20.658C21.8731 20.658 23.4354 19.1476 23.4354 17.3351C23.4354 16.8316 23.0188 16.4288 22.498 16.4288C21.9773 16.4288 21.5607 16.8316 21.5607 17.3351C21.5607 18.1406 20.8836 18.7951 20.0504 18.7951C19.2172 18.7951 18.5402 18.1406 18.5402 17.3351C18.5402 16.8316 18.1235 16.4288 17.6028 16.4288C17.082 16.4288 16.6654 16.8316 16.6654 17.3351C16.5612 19.1979 18.1235 20.658 19.9983 20.658Z" stroke="#1475E6" stroke-width="0.5"/>
<path d="M25.1019 17.033C25.3102 17.2344 25.5185 17.2847 25.7789 17.2847C26.0393 17.2847 26.2476 17.184 26.4559 17.033L27.7058 15.8247L28.9557 17.033C29.164 17.2344 29.3723 17.2847 29.6327 17.2847C29.8931 17.2847 30.1014 17.184 30.3097 17.033C30.6742 16.6806 30.6742 16.0764 30.3097 15.724L29.0598 14.5156L30.3097 13.3073C30.6742 12.9549 30.6742 12.3507 30.3097 11.9983C29.9451 11.6458 29.3202 11.6458 28.9557 11.9983L27.7058 13.2066L26.4559 11.9983C26.0914 11.6458 25.4665 11.6458 25.1019 11.9983C24.7374 12.3507 24.7374 12.9549 25.1019 13.3073L26.3518 14.5156L25.1019 15.724C24.6853 16.0764 24.6853 16.6806 25.1019 17.033Z" stroke="#1475E6" stroke-width="0.5"/>
<path d="M9.68698 17.033C9.89529 17.2344 10.1036 17.2847 10.364 17.2847C10.6244 17.2847 10.8327 17.184 11.041 17.033L12.2909 15.8247L13.5407 17.033C13.749 17.2344 13.9573 17.2847 14.2177 17.2847C14.4781 17.2847 14.6864 17.184 14.8947 17.033C15.2593 16.6806 15.2593 16.0764 14.8947 15.724L13.6449 14.5156L14.8947 13.3073C15.2593 12.9549 15.2593 12.3507 14.8947 11.9983C14.5302 11.6458 13.9053 11.6458 13.5407 11.9983L12.2909 13.2066L11.041 11.9983C10.6765 11.6458 10.0515 11.6458 9.68698 11.9983C9.32243 12.3507 9.32243 12.9549 9.68698 13.3073L10.9368 14.5156L9.68698 15.724C9.32243 16.0764 9.32243 16.6806 9.68698 17.033Z" stroke="#1475E6" stroke-width="0.5"/>
</svg>
