<svg width="40" height="40" viewBox="0 0 40 40" fill="none" xmlns="http://www.w3.org/2000/svg">
<path d="M20 5C11.709 5 5 11.709 5 20C5 28.291 11.709 35 20 35C28.291 35 35 28.291 35 20C35 11.709 28.291 5 20 5ZM7.34375 20C7.34375 13.0039 13.0039 7.34375 20 7.34375C22.9707 7.34375 25.6953 8.36328 27.8574 10.0742L10.0742 27.8574C8.36328 25.6953 7.34375 22.9707 7.34375 20ZM20 32.6562C17.0293 32.6562 14.3047 31.6367 12.1426 29.9258L29.9258 12.1426C31.6367 14.3047 32.6562 17.0293 32.6562 20C32.6562 26.9961 26.9961 32.6562 20 32.6562Z" fill="#1475E6"/>
</svg>
