<svg width="40" height="40" viewBox="0 0 40 40" fill="none" xmlns="http://www.w3.org/2000/svg">
<path d="M34.0309 28.7647C34.0098 28.7089 33.9769 28.6572 33.9317 28.612L23.1304 17.8114C22.9584 17.6394 22.6795 17.6394 22.5075 17.8114C22.3355 17.9834 22.3355 18.2623 22.5075 18.4343L31.2364 27.1625C31.1201 27.1296 31.0033 27.0997 30.8865 27.0733C29.508 26.7668 28.3667 26.9799 27.6733 27.6733C26.98 28.3666 26.7669 29.5079 27.0733 30.8864C27.0991 31.0032 27.1297 31.1201 27.1626 31.2363L18.4337 22.5081C18.2617 22.3361 17.9828 22.3361 17.8108 22.5081C17.6388 22.6801 17.6388 22.959 17.8108 23.131L28.6127 33.9316C28.6573 33.9762 28.7095 34.0091 28.7653 34.0308C29.4522 34.6573 30.3358 35.0001 31.2722 35.0001C32.2679 35.0001 33.2043 34.6121 33.9082 33.9081C34.6121 33.2042 35.0002 32.2678 35.0002 31.2721C35.0002 30.3357 34.6573 29.4527 34.0309 28.7647ZM33.2853 33.2858C32.7475 33.8236 32.0325 34.1195 31.2716 34.1195C30.5107 34.1195 29.7962 33.823 29.2585 33.2852C28.6725 32.6993 28.1524 31.6825 27.9328 30.695C27.6974 29.6365 27.8295 28.7617 28.2956 28.2956C28.6103 27.9809 29.1111 27.8183 29.7287 27.8183C30.0264 27.8183 30.351 27.8559 30.6951 27.9328C31.6831 28.1523 32.7 28.6731 33.2859 29.2584C33.8237 29.7962 34.1196 30.5112 34.1196 31.2715C34.1196 32.0318 33.8231 32.7475 33.2853 33.2858Z" fill="#1475E6"/>
<path d="M8.41718 9.04012C8.5029 9.12584 8.61562 9.16928 8.72834 9.16928C8.84106 9.16928 8.95378 9.12642 9.0395 9.04012C9.21151 8.8681 9.21151 8.58924 9.0395 8.41722L5.7518 5.12953C5.57979 4.95751 5.30092 4.95751 5.12949 5.12953C4.95747 5.30154 4.95747 5.58041 5.12949 5.75243L8.41718 9.04012Z" fill="#1475E6"/>
<path d="M26.2643 26.8866C26.35 26.9723 26.4627 27.0158 26.5755 27.0158C26.6882 27.0158 26.8009 26.9729 26.8866 26.8866C27.0586 26.7146 27.0586 26.4357 26.8866 26.2637L10.4476 9.82465C10.2755 9.65263 9.99668 9.65263 9.82467 9.82465C9.65265 9.99666 9.65265 10.2755 9.82467 10.4475L26.2643 26.8866Z" fill="#1475E6"/>
<path d="M16.4018 14.6763C16.4875 14.762 16.6002 14.8055 16.713 14.8055C16.8257 14.8055 16.9384 14.7626 17.0241 14.6763C17.1961 14.5043 17.1961 14.2254 17.0241 14.0534L16.0842 13.1135C15.9122 12.9415 15.6333 12.9415 15.4613 13.1135C15.2893 13.2855 15.2893 13.5644 15.4613 13.7364L16.4018 14.6763Z" fill="#1475E6"/>
<path d="M17.809 15.4613C17.637 15.6333 17.637 15.9122 17.809 16.0842L28.143 26.417C28.2287 26.5027 28.3414 26.5462 28.4541 26.5462C28.5669 26.5462 28.6796 26.5033 28.7653 26.417C28.9373 26.245 28.9373 25.9661 28.7653 25.7941L18.4319 15.4613C18.2599 15.2893 17.9811 15.2893 17.809 15.4613Z" fill="#1475E6"/>
<path d="M20.6283 15.9315C20.4563 16.1035 20.4563 16.3824 20.6283 16.5544L21.0985 17.0247C21.1842 17.1104 21.297 17.1538 21.4097 17.1538C21.5224 17.1538 21.6351 17.111 21.7208 17.0247C21.8928 16.8527 21.8928 16.5738 21.7208 16.4018L21.2506 15.9315C21.0786 15.7595 20.8003 15.7595 20.6283 15.9315Z" fill="#1475E6"/>
<path d="M15.9315 20.6282C15.7595 20.8002 15.7595 21.0791 15.9315 21.2511L16.4018 21.7214C16.4875 21.8071 16.6002 21.8505 16.7129 21.8505C16.8257 21.8505 16.9384 21.8077 17.0241 21.7214C17.1961 21.5493 17.1961 21.2705 17.0241 21.0985L16.5538 20.6282C16.3818 20.4562 16.1035 20.4562 15.9315 20.6282Z" fill="#1475E6"/>
<path d="M10.2955 13.2667C10.3812 13.3525 10.494 13.3959 10.6067 13.3959C10.7194 13.3959 10.8321 13.353 10.9178 13.2667C11.0899 13.0947 11.0899 12.8159 10.9178 12.6438L9.97849 11.7045C9.80648 11.5325 9.52761 11.5325 9.35559 11.7045C9.18358 11.8765 9.18358 12.1554 9.35559 12.3274L10.2955 13.2667Z" fill="#1475E6"/>
<path d="M26.1058 28.8945C26.2185 28.8945 26.3312 28.8516 26.4169 28.7653C26.589 28.5933 26.589 28.3145 26.4169 28.1424L12.3268 14.0523C12.1548 13.8803 11.8759 13.8803 11.7039 14.0523C11.5319 14.2243 11.5319 14.5032 11.7039 14.6752L25.794 28.7653C25.8803 28.8516 25.9931 28.8945 26.1058 28.8945Z" fill="#1475E6"/>
<path d="M19.4547 7.86614C19.5404 7.95244 19.6531 7.9953 19.7658 7.9953C19.8786 7.9953 19.9913 7.95244 20.077 7.86614C20.249 7.69412 20.249 7.41526 20.077 7.24324L17.9629 5.12913C17.7909 4.95712 17.512 4.95712 17.34 5.12913C17.168 5.30115 17.168 5.58002 17.34 5.75204L19.4547 7.86614Z" fill="#1475E6"/>
<path d="M29.3171 17.728C29.4029 17.8138 29.5156 17.8572 29.6283 17.8572C29.741 17.8572 29.8537 17.8143 29.9395 17.728C30.1115 17.556 30.1115 17.2772 29.9395 17.1051L21.4854 8.65106C21.3134 8.47905 21.0345 8.47905 20.8625 8.65106C20.6905 8.82308 20.6905 9.10195 20.8625 9.27396L29.3171 17.728Z" fill="#1475E6"/>
<path d="M23.2109 9.27397C23.2966 9.35969 23.4093 9.40313 23.522 9.40313C23.6347 9.40313 23.7475 9.36027 23.8332 9.27397C24.0052 9.10196 24.0052 8.82309 23.8332 8.65107L21.4854 6.30272C21.3134 6.1307 21.0345 6.1307 20.8625 6.30272C20.6905 6.47474 20.6905 6.7536 20.8625 6.92562L23.2109 9.27397Z" fill="#1475E6"/>
<path d="M31.962 18.0246C31.5229 18.0134 31.1137 18.1267 30.8172 18.4238C30.4902 18.7508 30.3387 19.2633 30.3757 19.8898L22.8938 12.4085C22.7218 12.2365 22.443 12.2365 22.2709 12.4085C22.0989 12.5805 22.0989 12.8594 22.2709 13.0314L30.961 21.7203C30.9874 21.7467 31.0174 21.769 31.0485 21.7872C31.0961 21.8477 31.1454 21.9041 31.1959 21.9551C31.5739 22.3332 32.1158 22.5504 32.6812 22.5504C33.2466 22.5504 33.7884 22.3332 34.1665 21.9551C34.9579 21.1637 34.9579 19.7753 34.1665 18.9839L25.2434 10.0607C25.0714 9.88871 24.7925 9.88871 24.6205 10.0607C24.4485 10.2327 24.4485 10.5116 24.6205 10.6836L31.962 18.0246ZM33.5442 21.3328C33.3299 21.5471 33.0152 21.6698 32.6812 21.6698C32.3471 21.6698 32.0325 21.5471 31.8182 21.3328C31.5804 21.095 31.3667 20.6072 31.2857 20.1175C31.2053 19.632 31.264 19.2216 31.4395 19.0467C31.5387 18.9475 31.7002 18.9034 31.8933 18.9034C32.4094 18.9034 33.152 19.2152 33.5436 19.6068C33.9957 20.0588 33.9957 20.8813 33.5442 21.3328Z" fill="#1475E6"/>
<path d="M19.3719 8.88649C19.1999 8.71447 18.921 8.71447 18.749 8.88649C18.577 9.0585 18.577 9.33737 18.749 9.50939L20.8625 11.6229C20.9482 11.7086 21.0609 11.7521 21.1737 11.7521C21.2864 11.7521 21.3991 11.7092 21.4848 11.6229C21.6568 11.4509 21.6568 11.172 21.4848 11L19.3719 8.88649Z" fill="#1475E6"/>
<path d="M7.55437 20.2061C7.66709 20.2061 7.77981 20.1632 7.86553 20.0769C8.03755 19.9049 8.03755 19.6261 7.86553 19.454L5.75142 17.3405C5.57941 17.1685 5.30054 17.1685 5.12852 17.3405C4.95651 17.5125 4.95651 17.7914 5.12852 17.9634L7.24263 20.0775C7.32893 20.1632 7.44165 20.2061 7.55437 20.2061Z" fill="#1475E6"/>
<path d="M8.65161 20.8631C8.4796 21.0351 8.4796 21.314 8.65161 21.486L17.1057 29.9401C17.1914 30.0258 17.3041 30.0692 17.4168 30.0692C17.5296 30.0692 17.6423 30.0264 17.728 29.9401C17.9 29.768 17.9 29.4892 17.728 29.3172L9.27393 20.8631C9.10191 20.6911 8.82363 20.6911 8.65161 20.8631Z" fill="#1475E6"/>
<path d="M9.27396 18.5148C9.10194 18.3427 8.82307 18.3427 8.65106 18.5148C8.47904 18.6868 8.47904 18.9656 8.65106 19.1377L10.9988 21.486C11.0845 21.5717 11.1973 21.6152 11.31 21.6152C11.4227 21.6152 11.5354 21.5723 11.6211 21.486C11.7932 21.314 11.7932 21.0351 11.6211 20.8631L9.27396 18.5148Z" fill="#1475E6"/>
<path d="M13.0319 22.2721C12.8599 22.1001 12.5811 22.1001 12.409 22.2721C12.237 22.4441 12.237 22.723 12.409 22.895L19.75 30.236C19.3108 30.2248 18.9016 30.3381 18.6052 30.6352C18.2535 30.9869 18.1343 31.534 18.1678 32.1053L10.6824 24.6199C10.5104 24.4479 10.2315 24.4479 10.0595 24.6199C9.88749 24.7919 9.88749 25.0708 10.0595 25.2428L18.7496 33.9317C18.7766 33.9587 18.8065 33.981 18.8382 33.9998C18.8858 34.0603 18.9345 34.1166 18.9844 34.1665C19.3625 34.5446 19.9044 34.7618 20.4698 34.7618C21.0357 34.7618 21.577 34.5446 21.9551 34.1665C22.7465 33.3751 22.7465 31.9867 21.9551 31.1953L13.0319 22.2721ZM21.3328 33.5442C21.1185 33.7585 20.8038 33.8812 20.4698 33.8812C20.1357 33.8812 19.821 33.7585 19.6067 33.5442C19.369 33.3064 19.1553 32.8186 19.0742 32.3289C18.9938 31.8434 19.0525 31.433 19.2281 31.2581C19.3273 31.1589 19.4887 31.1148 19.6819 31.1148C20.1979 31.1148 20.9406 31.4266 21.3322 31.8182C21.7843 32.2702 21.7843 33.0927 21.3328 33.5442Z" fill="#1475E6"/>
<path d="M7.16043 21.098C6.98841 20.926 6.70955 20.926 6.53753 21.098C6.36551 21.27 6.36551 21.5489 6.53753 21.7209L8.65105 23.8344C8.73676 23.9201 8.84948 23.9636 8.9622 23.9636C9.07492 23.9636 9.18764 23.9207 9.27336 23.8344C9.44538 23.6624 9.44538 23.3835 9.27336 23.2115L7.16043 21.098Z" fill="#1475E6"/>
<path d="M34.0309 28.7647C34.0098 28.7089 33.9769 28.6572 33.9317 28.612L23.1304 17.8114C22.9584 17.6394 22.6795 17.6394 22.5075 17.8114C22.3355 17.9834 22.3355 18.2623 22.5075 18.4343L31.2364 27.1625C31.1201 27.1296 31.0033 27.0997 30.8865 27.0733C29.508 26.7668 28.3667 26.9799 27.6733 27.6733C26.98 28.3666 26.7669 29.5079 27.0733 30.8864C27.0991 31.0032 27.1297 31.1201 27.1626 31.2363L18.4337 22.5081C18.2617 22.3361 17.9828 22.3361 17.8108 22.5081C17.6388 22.6801 17.6388 22.959 17.8108 23.131L28.6127 33.9316C28.6573 33.9762 28.7095 34.0091 28.7653 34.0308C29.4522 34.6573 30.3358 35.0001 31.2722 35.0001C32.2679 35.0001 33.2043 34.6121 33.9082 33.9081C34.6121 33.2042 35.0002 32.2678 35.0002 31.2721C35.0002 30.3357 34.6573 29.4527 34.0309 28.7647ZM33.2853 33.2858C32.7475 33.8236 32.0325 34.1195 31.2716 34.1195C30.5107 34.1195 29.7962 33.823 29.2585 33.2852C28.6725 32.6993 28.1524 31.6825 27.9328 30.695C27.6974 29.6365 27.8295 28.7617 28.2956 28.2956C28.6103 27.9809 29.1111 27.8183 29.7287 27.8183C30.0264 27.8183 30.351 27.8559 30.6951 27.9328C31.6831 28.1523 32.7 28.6731 33.2859 29.2584C33.8237 29.7962 34.1196 30.5112 34.1196 31.2715C34.1196 32.0318 33.8231 32.7475 33.2853 33.2858Z" stroke="#1475E6" stroke-width="0.5"/>
<path d="M8.41718 9.04012C8.5029 9.12584 8.61562 9.16928 8.72834 9.16928C8.84106 9.16928 8.95378 9.12642 9.0395 9.04012C9.21151 8.8681 9.21151 8.58924 9.0395 8.41722L5.7518 5.12953C5.57979 4.95751 5.30092 4.95751 5.12949 5.12953C4.95747 5.30154 4.95747 5.58041 5.12949 5.75243L8.41718 9.04012Z" stroke="#1475E6" stroke-width="0.5"/>
<path d="M26.2643 26.8866C26.35 26.9723 26.4627 27.0158 26.5755 27.0158C26.6882 27.0158 26.8009 26.9729 26.8866 26.8866C27.0586 26.7146 27.0586 26.4357 26.8866 26.2637L10.4476 9.82465C10.2755 9.65263 9.99668 9.65263 9.82467 9.82465C9.65265 9.99666 9.65265 10.2755 9.82467 10.4475L26.2643 26.8866Z" stroke="#1475E6" stroke-width="0.5"/>
<path d="M16.4018 14.6763C16.4875 14.762 16.6002 14.8055 16.713 14.8055C16.8257 14.8055 16.9384 14.7626 17.0241 14.6763C17.1961 14.5043 17.1961 14.2254 17.0241 14.0534L16.0842 13.1135C15.9122 12.9415 15.6333 12.9415 15.4613 13.1135C15.2893 13.2855 15.2893 13.5644 15.4613 13.7364L16.4018 14.6763Z" stroke="#1475E6" stroke-width="0.5"/>
<path d="M17.809 15.4613C17.637 15.6333 17.637 15.9122 17.809 16.0842L28.143 26.417C28.2287 26.5027 28.3414 26.5462 28.4541 26.5462C28.5669 26.5462 28.6796 26.5033 28.7653 26.417C28.9373 26.245 28.9373 25.9661 28.7653 25.7941L18.4319 15.4613C18.2599 15.2893 17.9811 15.2893 17.809 15.4613Z" stroke="#1475E6" stroke-width="0.5"/>
<path d="M20.6283 15.9315C20.4563 16.1035 20.4563 16.3824 20.6283 16.5544L21.0985 17.0247C21.1842 17.1104 21.297 17.1538 21.4097 17.1538C21.5224 17.1538 21.6351 17.111 21.7208 17.0247C21.8928 16.8527 21.8928 16.5738 21.7208 16.4018L21.2506 15.9315C21.0786 15.7595 20.8003 15.7595 20.6283 15.9315Z" stroke="#1475E6" stroke-width="0.5"/>
<path d="M15.9315 20.6282C15.7595 20.8002 15.7595 21.0791 15.9315 21.2511L16.4018 21.7214C16.4875 21.8071 16.6002 21.8505 16.7129 21.8505C16.8257 21.8505 16.9384 21.8077 17.0241 21.7214C17.1961 21.5493 17.1961 21.2705 17.0241 21.0985L16.5538 20.6282C16.3818 20.4562 16.1035 20.4562 15.9315 20.6282Z" stroke="#1475E6" stroke-width="0.5"/>
<path d="M10.2955 13.2667C10.3812 13.3525 10.494 13.3959 10.6067 13.3959C10.7194 13.3959 10.8321 13.353 10.9178 13.2667C11.0899 13.0947 11.0899 12.8159 10.9178 12.6438L9.97849 11.7045C9.80648 11.5325 9.52761 11.5325 9.35559 11.7045C9.18358 11.8765 9.18358 12.1554 9.35559 12.3274L10.2955 13.2667Z" stroke="#1475E6" stroke-width="0.5"/>
<path d="M26.1058 28.8945C26.2185 28.8945 26.3312 28.8516 26.4169 28.7653C26.589 28.5933 26.589 28.3145 26.4169 28.1424L12.3268 14.0523C12.1548 13.8803 11.8759 13.8803 11.7039 14.0523C11.5319 14.2243 11.5319 14.5032 11.7039 14.6752L25.794 28.7653C25.8803 28.8516 25.9931 28.8945 26.1058 28.8945Z" stroke="#1475E6" stroke-width="0.5"/>
<path d="M19.4547 7.86614C19.5404 7.95244 19.6531 7.9953 19.7658 7.9953C19.8786 7.9953 19.9913 7.95244 20.077 7.86614C20.249 7.69412 20.249 7.41526 20.077 7.24324L17.9629 5.12913C17.7909 4.95712 17.512 4.95712 17.34 5.12913C17.168 5.30115 17.168 5.58002 17.34 5.75204L19.4547 7.86614Z" stroke="#1475E6" stroke-width="0.5"/>
<path d="M29.3171 17.728C29.4029 17.8138 29.5156 17.8572 29.6283 17.8572C29.741 17.8572 29.8537 17.8143 29.9395 17.728C30.1115 17.556 30.1115 17.2772 29.9395 17.1051L21.4854 8.65106C21.3134 8.47905 21.0345 8.47905 20.8625 8.65106C20.6905 8.82308 20.6905 9.10195 20.8625 9.27396L29.3171 17.728Z" stroke="#1475E6" stroke-width="0.5"/>
<path d="M23.2109 9.27397C23.2966 9.35969 23.4093 9.40313 23.522 9.40313C23.6347 9.40313 23.7475 9.36027 23.8332 9.27397C24.0052 9.10196 24.0052 8.82309 23.8332 8.65107L21.4854 6.30272C21.3134 6.1307 21.0345 6.1307 20.8625 6.30272C20.6905 6.47474 20.6905 6.7536 20.8625 6.92562L23.2109 9.27397Z" stroke="#1475E6" stroke-width="0.5"/>
<path d="M31.962 18.0246C31.5229 18.0134 31.1137 18.1267 30.8172 18.4238C30.4902 18.7508 30.3387 19.2633 30.3757 19.8898L22.8938 12.4085C22.7218 12.2365 22.443 12.2365 22.2709 12.4085C22.0989 12.5805 22.0989 12.8594 22.2709 13.0314L30.961 21.7203C30.9874 21.7467 31.0174 21.769 31.0485 21.7872C31.0961 21.8477 31.1454 21.9041 31.1959 21.9551C31.5739 22.3332 32.1158 22.5504 32.6812 22.5504C33.2466 22.5504 33.7884 22.3332 34.1665 21.9551C34.9579 21.1637 34.9579 19.7753 34.1665 18.9839L25.2434 10.0607C25.0714 9.88871 24.7925 9.88871 24.6205 10.0607C24.4485 10.2327 24.4485 10.5116 24.6205 10.6836L31.962 18.0246ZM33.5442 21.3328C33.3299 21.5471 33.0152 21.6698 32.6812 21.6698C32.3471 21.6698 32.0325 21.5471 31.8182 21.3328C31.5804 21.095 31.3667 20.6072 31.2857 20.1175C31.2053 19.632 31.264 19.2216 31.4395 19.0467C31.5387 18.9475 31.7002 18.9034 31.8933 18.9034C32.4094 18.9034 33.152 19.2152 33.5436 19.6068C33.9957 20.0588 33.9957 20.8813 33.5442 21.3328Z" stroke="#1475E6" stroke-width="0.5"/>
<path d="M19.3719 8.88649C19.1999 8.71447 18.921 8.71447 18.749 8.88649C18.577 9.0585 18.577 9.33737 18.749 9.50939L20.8625 11.6229C20.9482 11.7086 21.0609 11.7521 21.1737 11.7521C21.2864 11.7521 21.3991 11.7092 21.4848 11.6229C21.6568 11.4509 21.6568 11.172 21.4848 11L19.3719 8.88649Z" stroke="#1475E6" stroke-width="0.5"/>
<path d="M7.55437 20.2061C7.66709 20.2061 7.77981 20.1632 7.86553 20.0769C8.03755 19.9049 8.03755 19.6261 7.86553 19.454L5.75142 17.3405C5.57941 17.1685 5.30054 17.1685 5.12852 17.3405C4.95651 17.5125 4.95651 17.7914 5.12852 17.9634L7.24263 20.0775C7.32893 20.1632 7.44165 20.2061 7.55437 20.2061Z" stroke="#1475E6" stroke-width="0.5"/>
<path d="M8.65161 20.8631C8.4796 21.0351 8.4796 21.314 8.65161 21.486L17.1057 29.9401C17.1914 30.0258 17.3041 30.0692 17.4168 30.0692C17.5296 30.0692 17.6423 30.0264 17.728 29.9401C17.9 29.768 17.9 29.4892 17.728 29.3172L9.27393 20.8631C9.10191 20.6911 8.82363 20.6911 8.65161 20.8631Z" stroke="#1475E6" stroke-width="0.5"/>
<path d="M9.27396 18.5148C9.10194 18.3427 8.82307 18.3427 8.65106 18.5148C8.47904 18.6868 8.47904 18.9656 8.65106 19.1377L10.9988 21.486C11.0845 21.5717 11.1973 21.6152 11.31 21.6152C11.4227 21.6152 11.5354 21.5723 11.6211 21.486C11.7932 21.314 11.7932 21.0351 11.6211 20.8631L9.27396 18.5148Z" stroke="#1475E6" stroke-width="0.5"/>
<path d="M13.0319 22.2721C12.8599 22.1001 12.5811 22.1001 12.409 22.2721C12.237 22.4441 12.237 22.723 12.409 22.895L19.75 30.236C19.3108 30.2248 18.9016 30.3381 18.6052 30.6352C18.2535 30.9869 18.1343 31.534 18.1678 32.1053L10.6824 24.6199C10.5104 24.4479 10.2315 24.4479 10.0595 24.6199C9.88749 24.7919 9.88749 25.0708 10.0595 25.2428L18.7496 33.9317C18.7766 33.9587 18.8065 33.981 18.8382 33.9998C18.8858 34.0603 18.9345 34.1166 18.9844 34.1665C19.3625 34.5446 19.9044 34.7618 20.4698 34.7618C21.0357 34.7618 21.577 34.5446 21.9551 34.1665C22.7465 33.3751 22.7465 31.9867 21.9551 31.1953L13.0319 22.2721ZM21.3328 33.5442C21.1185 33.7585 20.8038 33.8812 20.4698 33.8812C20.1357 33.8812 19.821 33.7585 19.6067 33.5442C19.369 33.3064 19.1553 32.8186 19.0742 32.3289C18.9938 31.8434 19.0525 31.433 19.2281 31.2581C19.3273 31.1589 19.4887 31.1148 19.6819 31.1148C20.1979 31.1148 20.9406 31.4266 21.3322 31.8182C21.7843 32.2702 21.7843 33.0927 21.3328 33.5442Z" stroke="#1475E6" stroke-width="0.5"/>
<path d="M7.16043 21.098C6.98841 20.926 6.70955 20.926 6.53753 21.098C6.36551 21.27 6.36551 21.5489 6.53753 21.7209L8.65105 23.8344C8.73676 23.9201 8.84948 23.9636 8.9622 23.9636C9.07492 23.9636 9.18764 23.9207 9.27336 23.8344C9.44538 23.6624 9.44538 23.3835 9.27336 23.2115L7.16043 21.098Z" stroke="#1475E6" stroke-width="0.5"/>
</svg>
