<svg width="40" height="40" viewBox="0 0 40 40" fill="none" xmlns="http://www.w3.org/2000/svg">
<path d="M34.1908 27.0585L30.8113 21.1915C30.5514 20.72 29.9795 20.5629 29.5116 20.8248C29.0436 21.0867 28.8877 21.6629 29.1476 22.1344L32.5271 28.0538C33.047 28.9967 33.151 29.8349 32.839 30.4111C32.5271 30.9874 31.7472 31.3017 30.6554 31.3017H9.23474C8.1949 31.3017 7.41502 30.9874 7.05108 30.4111C6.73913 29.8349 6.84311 28.9967 7.36303 28.0538L10.7425 22.1868C11.0025 21.7153 10.8465 21.1391 10.3786 20.8772C9.91063 20.6152 9.33872 20.7724 9.07876 21.2439L5.75128 27.0585C4.86742 28.6301 4.76344 30.1492 5.43933 31.354C6.11522 32.5589 7.46701 33.1875 9.28673 33.1875H30.7594C32.5271 33.1875 33.8789 32.5065 34.6068 31.354C35.2307 30.1492 35.1267 28.6301 34.1908 27.0585Z" fill="#1475E6"/>
<path d="M19.997 21.0867C16.2016 21.0867 12.6662 22.5535 10.0146 25.2251C9.65067 25.5918 9.65067 26.2204 10.0146 26.5871C10.1706 26.7966 10.4305 26.9014 10.6905 26.9014C10.9505 26.9014 11.1584 26.7966 11.3664 26.6394C11.4704 26.5347 11.6264 26.3775 11.7303 26.2728C12.1463 27.4252 12.6662 29.0491 13.2381 30.1492C13.3941 30.5159 13.758 30.7254 14.122 30.673C14.4859 30.673 14.8499 30.4111 14.9538 30.0444C15.3698 28.9967 15.6297 27.7919 15.8897 26.6918C16.4616 28.6301 17.1375 29.1015 17.9174 29.1015C18.5933 29.1015 19.2692 28.7348 19.9451 26.7966C20.569 28.7348 21.2968 29.1015 21.9727 29.1015C22.7526 29.1015 23.4285 28.6301 24.0524 26.6394C24.3124 27.7919 24.5723 28.9444 24.9883 29.9921C25.1442 30.3587 25.4562 30.6207 25.8201 30.6207H25.8721C26.2361 30.6207 26.548 30.4111 26.756 30.0968C27.2759 28.9967 27.8478 27.3728 28.2638 26.2204C28.4197 26.3251 28.5237 26.4823 28.6277 26.5871C28.9916 26.9538 29.6155 26.9538 29.9795 26.5871C30.3434 26.2204 30.3434 25.5918 29.9795 25.2251C27.2759 22.5535 23.7405 21.0867 19.997 21.0867ZM14.122 25.9061C14.07 26.168 14.018 26.4299 13.966 26.6918C13.81 26.2204 13.654 25.8013 13.5501 25.4346C13.4981 25.2775 13.4461 25.1203 13.3941 24.9632C13.758 24.7012 14.122 24.4917 14.5379 24.3345C14.3299 24.8584 14.226 25.3822 14.122 25.9061ZM17.9694 26.7442C17.7614 26.2204 17.4494 25.2251 17.1375 23.3916C17.7094 23.2345 18.2813 23.1821 18.8532 23.1297C18.5413 25.1203 18.1773 26.168 17.9694 26.7442ZM21.0889 23.0773C21.6608 23.1297 22.2327 23.2345 22.8046 23.3392C22.4927 25.1727 22.1807 26.168 21.9727 26.6918C21.7648 26.168 21.4528 25.1203 21.0889 23.0773ZM26.444 25.4346C26.3401 25.8013 26.1841 26.2204 26.0281 26.6918C25.9761 26.4299 25.9241 26.168 25.8721 25.9061C25.7681 25.3822 25.6642 24.8584 25.5082 24.3345C25.8721 24.5441 26.2881 24.7536 26.652 24.9632C26.548 25.1203 26.496 25.2775 26.444 25.4346Z" fill="#1475E6"/>
<path d="M13.1341 20.9296C16.4096 20.9296 19.0612 18.2579 19.0612 14.9577C19.0612 13.2814 18.3853 11.8147 17.2935 10.7146L18.0733 9.3526C18.5933 8.40968 19.2692 7.88584 19.9451 7.88584C20.569 7.88584 21.2449 8.40968 21.8168 9.3526L22.5966 10.7146C21.5048 11.8147 20.8289 13.2814 20.8289 14.9577C20.8289 18.2579 23.4805 20.9296 26.756 20.9296C30.0315 20.9296 32.6831 18.2579 32.6831 14.9577C32.6831 11.6575 30.0315 8.98591 26.756 8.98591C25.8201 8.98591 24.9363 9.19545 24.1564 9.61452L23.4805 8.40968C22.5966 6.83815 21.3488 6 19.9451 6C18.5933 6 17.3455 6.83815 16.4096 8.40968L15.7337 9.61452C14.9538 9.19545 14.07 8.98591 13.1341 8.98591C9.85864 8.98591 7.20705 11.6575 7.20705 14.9577C7.20705 18.2579 9.85864 20.9296 13.1341 20.9296ZM26.808 10.8717C29.0436 10.8717 30.8113 12.7052 30.8113 14.9053C30.8113 17.1579 28.9916 18.9389 26.808 18.9389C24.5723 18.9389 22.8046 17.1055 22.8046 14.9053C22.7526 12.7052 24.5723 10.8717 26.808 10.8717ZM13.1341 10.8717C15.3698 10.8717 17.1375 12.7052 17.1375 14.9053C17.1375 17.1579 15.3178 18.9389 13.1341 18.9389C10.8985 18.9389 9.13075 17.1055 9.13075 14.9053C9.13075 12.7052 10.9505 10.8717 13.1341 10.8717Z" fill="#1475E6"/>
<path d="M27.6398 16.4245C28.1598 16.4245 28.5757 16.0054 28.5757 15.4816C28.5757 14.9577 28.1598 14.5387 27.6398 14.5387C27.3799 14.5387 27.1719 14.3291 27.1719 14.0672C27.1719 13.8053 27.3799 13.5957 27.6398 13.5957C27.8998 13.5957 28.1598 13.8053 28.1598 14.0672C28.1598 14.591 28.5757 15.0101 29.0956 15.0101C29.6155 15.0101 30.0315 14.591 30.0315 14.0672C30.0315 12.7052 28.9396 11.6575 27.6398 11.6575C26.2881 11.6575 25.2482 12.7576 25.2482 14.0672C25.1962 15.3244 26.2881 16.4245 27.6398 16.4245Z" fill="#1475E6"/>
<path d="M13.3941 18.4675C13.914 18.4675 14.3299 18.0484 14.3299 17.5246C14.3299 17.0007 13.914 16.5816 13.3941 16.5816C13.1341 16.5816 12.9262 16.3721 12.9262 16.1102C12.9262 15.8483 13.1341 15.6387 13.3941 15.6387C13.654 15.6387 13.862 15.8483 13.862 16.1102C13.862 16.634 14.2779 17.0531 14.7979 17.0531C15.3178 17.0531 15.7337 16.634 15.7337 16.1102C15.7337 14.7482 14.6419 13.7005 13.3421 13.7005C11.9903 13.7005 10.9505 14.8006 10.9505 16.1102C11.0025 17.3674 12.0423 18.4675 13.3941 18.4675Z" fill="#1475E6"/>
</svg>
