<svg width="40" height="40" viewBox="0 0 40 40" fill="none" xmlns="http://www.w3.org/2000/svg">
<path d="M13.0395 33.1875C12.9358 33.1875 12.7803 33.1875 12.6766 33.1362C12.3137 32.9824 12.0546 32.6236 12.0546 32.2647L12.1582 26.318C10.3957 25.4978 5.62666 22.9858 5.05644 17.9106C4.74541 15.3473 5.73033 12.7328 7.75201 10.5797C10.7068 7.45256 15.4759 5.81209 20.867 6.01715H20.9188C21.2817 6.06842 21.6446 6.27347 21.7482 6.63233C21.9038 6.99118 21.8001 7.35004 21.5927 7.60636C20.4523 8.78545 20.5041 9.91328 20.9188 10.5285C21.2817 11.1436 22.0074 11.3487 22.8368 11.0924C23.1997 10.9898 23.5626 11.0411 23.8218 11.2974C24.081 11.5538 24.1846 11.9126 24.081 12.2202C23.7699 13.348 24.081 14.4758 24.9104 14.9885C25.7398 15.5011 26.8284 15.2961 27.9688 14.3221C28.228 14.117 28.5909 14.0145 28.9537 14.1683C29.2647 14.2708 29.5239 14.5784 29.5758 14.9372C29.6795 15.7062 30.3015 16.1676 30.8717 16.2701C31.7011 16.3726 32.4787 15.86 32.9452 14.886C33.1008 14.5271 33.5155 14.3221 33.8783 14.3221C34.293 14.3733 34.6041 14.6296 34.7077 15.0398C35.0188 16.2188 35.0706 17.3467 34.9151 18.4745C33.982 24.1649 28.6427 27.7022 21.0744 27.7022C20.556 27.7022 20.1413 27.292 20.1413 26.7794C20.1413 26.2668 20.556 25.8566 21.0744 25.8566C27.7614 25.8566 32.2195 22.9858 33.0489 18.1669C33.1008 17.9619 33.1008 17.8081 33.1008 17.603C32.2713 18.1156 31.3901 18.2694 30.6125 18.1669C29.5758 18.0131 28.6945 17.3979 28.1762 16.5777C26.7247 17.3979 25.1696 17.4492 23.9254 16.629C22.7332 15.86 22.1111 14.5784 22.1111 13.143C21.0225 13.0917 20.0376 12.579 19.4155 11.605C18.8453 10.6822 18.638 9.2981 19.26 7.91395C15.0093 8.06774 11.4325 9.50316 9.15164 11.8613C7.49282 13.6043 6.71525 15.6549 6.92261 17.7055C7.49282 22.6269 13.3505 24.7288 13.4542 24.7288C13.8689 24.8826 14.1281 25.2415 14.0762 25.6516L14.0244 29.804L17.4457 26.1642C17.8086 25.8054 18.4306 25.7541 18.7935 26.113C19.1564 26.4718 19.2082 27.087 18.8453 27.4458L13.7134 32.8286C13.5579 33.085 13.2987 33.1875 13.0395 33.1875Z" fill="#1475E6"/>
<path d="M27.3986 12.4765C25.9471 12.4765 24.7548 11.2974 24.7548 9.86201C24.7548 8.4266 25.9471 7.24751 27.3986 7.24751C28.85 7.24751 30.0423 8.4266 30.0423 9.86201C30.0423 10.3747 29.6276 10.7848 29.1092 10.7848C28.5909 10.7848 28.1762 10.3747 28.1762 9.86201C28.1762 9.45189 27.8651 9.1443 27.4504 9.1443C27.0357 9.1443 26.7247 9.45189 26.7247 9.86201C26.7247 10.2721 27.0357 10.5797 27.4504 10.5797C27.9688 10.5797 28.3835 10.9898 28.3835 11.5025C28.3835 12.0151 27.917 12.4765 27.3986 12.4765Z" fill="#1475E6"/>
</svg>
