<svg width="40" height="40" viewBox="0 0 40 40" fill="none" xmlns="http://www.w3.org/2000/svg">
<path d="M32.6804 5.66493C30.0729 4.08935 26.5343 5.42587 25.3248 8.48153C22.0969 7.78368 18.7948 7.79012 15.6316 8.45868C14.4056 5.40302 10.8732 4.10107 8.28564 5.66552C4.93589 7.6911 5.35609 12.893 8.97691 14.7821L7.49853 21.0165C6.51805 25.1537 8.26409 29.4862 11.8577 31.6617L14.7736 33.4272C18.2215 35.5148 22.5137 35.526 25.9746 33.4482L28.9603 31.6553C32.5324 29.5102 34.3431 25.1883 33.3484 20.9924L31.8887 14.8331C35.581 13.0096 36.0795 7.72098 32.6804 5.66493ZM9.1442 7.18309C10.7751 6.19755 13.0202 6.97216 13.9491 8.88172C13.5822 8.98836 13.2176 9.1032 12.8546 9.22801C11.1369 9.8198 9.84625 11.2307 9.34722 12.9745C7.23824 11.5132 7.13106 8.40067 9.1442 7.18309ZM28.1057 30.1348L25.12 31.9277C22.1911 33.6861 18.5561 33.6797 15.6333 31.9102L12.7174 30.1447C9.8179 28.3893 8.35142 24.808 9.15101 21.4348C10.9265 13.9442 10.8262 14.3924 10.8341 14.2852C10.9498 12.7219 11.9541 11.3919 13.3928 10.8962C17.9283 9.33348 22.9243 9.33348 27.4598 10.8962C28.8991 11.3919 29.9034 12.7225 30.0185 14.2852C30.0264 14.3913 29.9176 13.9096 31.6954 21.4108C32.4984 24.7963 31.0217 28.384 28.1057 30.1348ZM31.5235 13.0384C31.0381 11.2647 29.7367 9.82684 27.998 9.22801C27.6679 9.11434 27.3362 9.00887 27.0028 8.91043C27.9243 6.9786 30.1835 6.19345 31.8213 7.18309C33.8758 8.42528 33.7119 11.6221 31.5235 13.0384Z" fill="#1475E6"/>
<path d="M16.2862 17.9199C16.756 17.9199 17.1368 17.5264 17.1368 17.041C17.1368 16.5556 16.756 16.1621 16.2862 16.1621C15.8164 16.1621 15.4356 16.5556 15.4356 17.041C15.4356 17.5264 15.8164 17.9199 16.2862 17.9199Z" fill="#1475E6"/>
<path d="M25.0193 17.9199C25.4891 17.9199 25.8699 17.5264 25.8699 17.041C25.8699 16.5556 25.4891 16.1621 25.0193 16.1621C24.5495 16.1621 24.1687 16.5556 24.1687 17.041C24.1687 17.5264 24.5495 17.9199 25.0193 17.9199Z" fill="#1475E6"/>
<path d="M20.3845 18.827C17.265 18.827 14.7267 21.4502 14.7267 24.6746V25.639C14.7267 28.8142 17.2072 31.4867 20.4106 31.4867C23.5307 31.4867 26.0684 28.8634 26.0684 25.639V24.6746C26.0684 21.4994 23.588 18.827 20.3845 18.827ZM24.3671 25.639C24.3671 27.8422 22.6529 29.7283 20.3845 29.7283C18.203 29.7283 16.428 27.8937 16.428 25.639V24.6746C16.428 22.4715 18.1423 20.5853 20.4106 20.5853C22.5922 20.5853 24.3671 22.4199 24.3671 24.6746V25.639Z" fill="#1475E6"/>
<path d="M21.6946 23.0357H19.086C18.3312 23.0357 17.949 23.9832 18.4843 24.5363L19.5464 25.6343V27.0904C19.5464 27.5761 19.9275 27.9693 20.3971 27.9693C20.8666 27.9693 21.2477 27.5755 21.2477 27.0904V25.6191L22.2957 24.5357C22.8304 23.9849 22.4516 23.0357 21.6946 23.0357Z" fill="#1475E6"/>
</svg>
