<svg width="40" height="40" viewBox="0 0 40 40" fill="none" xmlns="http://www.w3.org/2000/svg">
<path d="M12.3941 28.0389L15.749 33.7015C16.4732 34.9245 18.1013 35.3777 19.389 34.6519C20.6634 33.9346 21.1011 32.3474 20.3643 31.1049L18.3658 27.7311L20.0965 26.7574C20.415 26.5776 20.5242 26.1809 20.3403 25.8706L19.4743 24.4087C19.5776 24.3892 20.2571 24.2594 32.2343 21.9698C33.7153 21.8913 34.602 20.3131 33.8545 19.0518L31.6408 15.3152L33.0557 13.2269C33.195 13.0217 33.203 12.7575 33.0771 12.5446L31.7447 10.2959C31.6188 10.083 31.379 9.95832 31.1278 9.9726L28.565 10.1226L26.1061 5.97375C25.7504 5.37262 25.1122 5.00909 24.4 5C24.3914 5 24.3834 5 24.3747 5C23.6866 5 23.0624 5.33367 22.692 5.89779L13.9896 16.7012L8.33175 19.884C6.1067 21.135 5.33593 23.9173 6.62499 26.0914C7.8028 28.0791 10.2863 28.8613 12.3941 28.0389ZM19.2112 31.7547C19.5789 32.3746 19.361 33.1686 18.7228 33.5282C18.0826 33.8891 17.2666 33.6671 16.9028 33.053L13.5719 27.4306L15.8796 26.1323C19.7348 32.6388 19.1492 31.6502 19.2112 31.7547ZM17.6996 26.6068L17.0334 25.4824L18.1872 24.8333L18.8534 25.9576L17.6996 26.6068ZM30.7961 11.2924L31.7167 12.8465L30.896 14.0578L29.3091 11.3793L30.7961 11.2924ZM23.8065 6.60993C23.985 6.32494 24.2688 6.29573 24.3841 6.29833C24.498 6.29963 24.7811 6.33403 24.9523 6.62291L32.7007 19.701C32.9532 20.1268 32.646 20.6617 32.1404 20.6741C32.0498 20.676 32.0078 20.6923 31.7753 20.7345L23.578 6.90075C23.7505 6.68523 23.7725 6.66446 23.8065 6.60993ZM22.6913 8.00109L30.3924 20.9987L18.7701 23.2201L15.2361 17.2556L22.6913 8.00109ZM7.77882 25.4422C7.48637 24.9488 7.33181 24.3892 7.33181 23.8225C7.33181 22.6644 7.97068 21.5862 8.99793 21.0084L14.1902 18.0872L17.5211 23.7089L12.3288 26.6302C10.738 27.5247 8.69748 26.9918 7.77882 25.4422Z" fill="#1475E6"/>
</svg>
