<svg width="40" height="40" viewBox="0 0 40 40" fill="none" xmlns="http://www.w3.org/2000/svg">
<path d="M17.8953 14.5665C17.7083 14.7536 17.7083 15.0567 17.8953 15.2438C17.9885 15.3369 18.111 15.3842 18.2336 15.3842C18.3561 15.3842 18.4787 15.3376 18.5719 15.2438C19.3589 14.4568 20.6399 14.4568 21.4269 15.2438C21.6139 15.4308 21.9171 15.4308 22.1041 15.2438C22.2911 15.0567 22.2911 14.7536 22.1041 14.5665C20.9437 13.4061 19.0557 13.4061 17.8953 14.5665Z" fill="#1475E6"/>
<path d="M16.5415 15.9203L14.5666 17.8952C14.3796 18.0822 14.3796 18.3854 14.5666 18.5724C14.6598 18.6656 14.7824 18.7128 14.9049 18.7128C15.0275 18.7128 15.15 18.6662 15.2432 18.5724L17.2181 16.5975C17.4051 16.4105 17.4051 16.1073 17.2181 15.9203C17.0311 15.7333 16.7279 15.7333 16.5415 15.9203Z" fill="#1475E6"/>
<path d="M34.859 14.0639C34.3815 13.5865 34.2698 13.2482 34.1409 12.8557C33.9947 12.4121 33.8288 11.9084 33.1905 11.2702C32.5522 10.6319 32.0492 10.4659 31.605 10.3198C31.2131 10.1902 30.8742 10.0785 30.3967 9.60169C29.9193 9.12425 29.8076 8.78596 29.6787 8.39341C29.5325 7.94981 29.3665 7.4462 28.7283 6.80792C28.09 6.16963 27.587 6.00368 27.1428 5.85751C26.7509 5.72794 26.4119 5.61624 25.9345 5.13944C25.8285 5.03349 25.6792 4.98306 25.5304 5.00349C25.3817 5.02391 25.2515 5.11327 25.1781 5.24412C25.0811 5.41773 23.0405 9.11914 23.2671 13.0312C22.3684 12.2218 21.2176 11.7789 19.9991 11.7789C18.6925 11.7789 17.4644 12.2876 16.5409 13.2112L13.2122 16.5398C11.3676 18.3845 11.3076 21.3487 13.0322 23.2667C9.11952 23.0408 5.41875 25.0801 5.24513 25.1777C5.11428 25.2511 5.02556 25.3814 5.0045 25.5301C4.98407 25.6788 5.03386 25.8282 5.14045 25.9341C5.61789 26.4115 5.72959 26.7498 5.85852 27.1424C6.00469 27.586 6.17064 28.0896 6.80893 28.7279C7.44721 29.3662 7.95018 29.5321 8.39443 29.6783C8.78633 29.8072 9.12526 29.9189 9.6027 30.3964C10.0801 30.8738 10.1918 31.2121 10.3208 31.6046C10.4669 32.0482 10.6329 32.5518 11.2712 33.1901C11.9095 33.8284 12.4124 33.9944 12.8567 34.1405C13.2486 34.2701 13.5875 34.3818 14.0649 34.8586C14.1556 34.9492 14.2775 34.999 14.4032 34.999C14.4249 34.999 14.4473 34.9977 14.469 34.9946C14.6177 34.9741 14.7479 34.8848 14.8213 34.7539C14.9183 34.5803 16.9589 30.8789 16.7323 26.9669C17.631 27.7762 18.7819 28.2192 20.0004 28.2192C21.3069 28.2192 22.535 27.7105 23.4592 26.7869L26.7879 23.4582C28.6332 21.6129 28.6925 18.6487 26.9672 16.7307C27.1728 16.7428 27.3783 16.7492 27.5819 16.7492C31.2591 16.7492 34.5903 14.9129 34.7549 14.8209C34.8858 14.7475 34.9745 14.6173 34.9956 14.4686C35.0154 14.3199 34.9649 14.1705 34.859 14.0639ZM26.11 22.781L22.7814 26.1096C22.0384 26.8526 21.0503 27.2617 19.9997 27.2617C18.9491 27.2617 17.961 26.8526 17.2181 26.1096L13.8894 22.781C12.3556 21.2472 12.3556 18.7515 13.8894 17.2183L17.2181 13.8897C17.961 13.1467 18.9491 12.7376 19.9997 12.7376C21.0503 12.7376 22.0384 13.1467 22.7814 13.8897L26.11 17.2183C27.6438 18.7515 27.6438 21.2472 26.11 22.781ZM13.156 33.2316C12.7641 33.102 12.4252 32.9903 11.9478 32.5135C11.4703 32.0361 11.3586 31.6978 11.2297 31.3053C11.0835 30.8617 10.9176 30.3581 10.2793 29.7198C9.641 29.0815 9.13803 28.9155 8.69378 28.7694C8.30188 28.6404 7.96295 28.5287 7.48551 28.0513C7.00807 27.5739 6.89637 27.2356 6.76744 26.843C6.66085 26.5194 6.5434 26.1645 6.24086 25.7484C7.5104 25.1477 10.8569 23.7805 14.0011 24.3441C13.6041 24.5197 13.172 24.7399 12.7067 25.0054C12.4769 25.1363 12.3971 25.4286 12.528 25.6584C12.616 25.8128 12.7782 25.8996 12.9441 25.8996C13.0245 25.8996 13.1062 25.8792 13.1809 25.8365C13.7924 25.4879 14.3356 25.2243 14.8028 25.0488L14.9496 25.1956C14.3528 26.7843 12.8726 28.8766 12.0122 30.021C11.8533 30.2323 11.8961 30.5323 12.1073 30.6912C12.1935 30.7563 12.2943 30.7876 12.3946 30.7876C12.5401 30.7876 12.6837 30.7219 12.7775 30.5968C13.7598 29.2908 14.9822 27.5202 15.6549 25.9992C16.2172 29.1434 14.8507 32.4893 14.25 33.7582C13.8352 33.455 13.4796 33.3382 13.156 33.2316ZM25.9996 15.6552C27.5206 14.9831 29.2906 13.7601 30.5965 12.7784C30.8078 12.6195 30.8506 12.3195 30.6916 12.1082C30.5327 11.897 30.2327 11.8542 30.0214 12.0131C28.8776 12.8735 26.786 14.3537 25.1966 14.9499L25.0492 14.8024C25.646 13.2137 27.1262 11.1214 27.9866 9.977C28.1455 9.76573 28.1027 9.46573 27.8915 9.3068C27.6802 9.14787 27.3802 9.19063 27.2213 9.4019C26.2389 10.7078 25.0166 12.4784 24.3439 13.9995C23.7809 10.8546 25.1481 7.50939 25.7487 6.24048C26.1649 6.54303 26.5198 6.66047 26.8434 6.76707C27.2353 6.89664 27.5742 7.00834 28.0517 7.48514C28.5291 7.96257 28.6408 8.30086 28.7697 8.69341C28.9159 9.13702 29.0819 9.64062 29.7201 10.2789C30.3584 10.9172 30.8614 11.0831 31.3056 11.2293C31.6976 11.3589 32.0365 11.4706 32.5139 11.9474C32.9914 12.4248 33.1031 12.7631 33.232 13.1557C33.3386 13.4793 33.456 13.8342 33.7586 14.2503C32.489 14.8516 29.1438 16.2175 25.9996 15.6552Z" fill="#1475E6"/>
<path d="M11.0536 26.0416C10.52 26.4016 9.96466 26.7986 9.40297 27.2212C9.19169 27.3801 9.14893 27.6801 9.30786 27.8914C9.40169 28.0165 9.5453 28.0822 9.69083 28.0822C9.79104 28.0822 9.89189 28.051 9.97806 27.9858C10.527 27.5729 11.0689 27.1861 11.5885 26.835C11.8074 26.6869 11.8655 26.3895 11.7174 26.1706C11.5699 25.951 11.2725 25.8936 11.0536 26.0416Z" fill="#1475E6"/>
<path d="M17.8953 14.5665C17.7083 14.7536 17.7083 15.0567 17.8953 15.2438C17.9885 15.3369 18.111 15.3842 18.2336 15.3842C18.3561 15.3842 18.4787 15.3376 18.5719 15.2438C19.3589 14.4568 20.6399 14.4568 21.4269 15.2438C21.6139 15.4308 21.9171 15.4308 22.1041 15.2438C22.2911 15.0567 22.2911 14.7536 22.1041 14.5665C20.9437 13.4061 19.0557 13.4061 17.8953 14.5665Z" stroke="#1475E6" stroke-width="0.5"/>
<path d="M16.5415 15.9203L14.5666 17.8952C14.3796 18.0822 14.3796 18.3854 14.5666 18.5724C14.6598 18.6656 14.7824 18.7128 14.9049 18.7128C15.0275 18.7128 15.15 18.6662 15.2432 18.5724L17.2181 16.5975C17.4051 16.4105 17.4051 16.1073 17.2181 15.9203C17.0311 15.7333 16.7279 15.7333 16.5415 15.9203Z" stroke="#1475E6" stroke-width="0.5"/>
<path d="M34.859 14.0639C34.3815 13.5865 34.2698 13.2482 34.1409 12.8557C33.9947 12.4121 33.8288 11.9084 33.1905 11.2702C32.5522 10.6319 32.0492 10.4659 31.605 10.3198C31.2131 10.1902 30.8742 10.0785 30.3967 9.60169C29.9193 9.12425 29.8076 8.78596 29.6787 8.39341C29.5325 7.94981 29.3665 7.4462 28.7283 6.80792C28.09 6.16963 27.587 6.00368 27.1428 5.85751C26.7509 5.72794 26.4119 5.61624 25.9345 5.13944C25.8285 5.03349 25.6792 4.98306 25.5304 5.00349C25.3817 5.02391 25.2515 5.11327 25.1781 5.24412C25.0811 5.41773 23.0405 9.11914 23.2671 13.0312C22.3684 12.2218 21.2176 11.7789 19.9991 11.7789C18.6925 11.7789 17.4644 12.2876 16.5409 13.2112L13.2122 16.5398C11.3676 18.3845 11.3076 21.3487 13.0322 23.2667C9.11952 23.0408 5.41875 25.0801 5.24513 25.1777C5.11428 25.2511 5.02556 25.3814 5.0045 25.5301C4.98407 25.6788 5.03386 25.8282 5.14045 25.9341C5.61789 26.4115 5.72959 26.7498 5.85852 27.1424C6.00469 27.586 6.17064 28.0896 6.80893 28.7279C7.44721 29.3662 7.95018 29.5321 8.39443 29.6783C8.78633 29.8072 9.12526 29.9189 9.6027 30.3964C10.0801 30.8738 10.1918 31.2121 10.3208 31.6046C10.4669 32.0482 10.6329 32.5518 11.2712 33.1901C11.9095 33.8284 12.4124 33.9944 12.8567 34.1405C13.2486 34.2701 13.5875 34.3818 14.0649 34.8586C14.1556 34.9492 14.2775 34.999 14.4032 34.999C14.4249 34.999 14.4473 34.9977 14.469 34.9946C14.6177 34.9741 14.7479 34.8848 14.8213 34.7539C14.9183 34.5803 16.9589 30.8789 16.7323 26.9669C17.631 27.7762 18.7819 28.2192 20.0004 28.2192C21.3069 28.2192 22.535 27.7105 23.4592 26.7869L26.7879 23.4582C28.6332 21.6129 28.6925 18.6487 26.9672 16.7307C27.1728 16.7428 27.3783 16.7492 27.5819 16.7492C31.2591 16.7492 34.5903 14.9129 34.7549 14.8209C34.8858 14.7475 34.9745 14.6173 34.9956 14.4686C35.0154 14.3199 34.9649 14.1705 34.859 14.0639ZM26.11 22.781L22.7814 26.1096C22.0384 26.8526 21.0503 27.2617 19.9997 27.2617C18.9491 27.2617 17.961 26.8526 17.2181 26.1096L13.8894 22.781C12.3556 21.2472 12.3556 18.7515 13.8894 17.2183L17.2181 13.8897C17.961 13.1467 18.9491 12.7376 19.9997 12.7376C21.0503 12.7376 22.0384 13.1467 22.7814 13.8897L26.11 17.2183C27.6438 18.7515 27.6438 21.2472 26.11 22.781ZM13.156 33.2316C12.7641 33.102 12.4252 32.9903 11.9478 32.5135C11.4703 32.0361 11.3586 31.6978 11.2297 31.3053C11.0835 30.8617 10.9176 30.3581 10.2793 29.7198C9.641 29.0815 9.13803 28.9155 8.69378 28.7694C8.30188 28.6404 7.96295 28.5287 7.48551 28.0513C7.00807 27.5739 6.89637 27.2356 6.76744 26.843C6.66085 26.5194 6.5434 26.1645 6.24086 25.7484C7.5104 25.1477 10.8569 23.7805 14.0011 24.3441C13.6041 24.5197 13.172 24.7399 12.7067 25.0054C12.4769 25.1363 12.3971 25.4286 12.528 25.6584C12.616 25.8128 12.7782 25.8996 12.9441 25.8996C13.0245 25.8996 13.1062 25.8792 13.1809 25.8365C13.7924 25.4879 14.3356 25.2243 14.8028 25.0488L14.9496 25.1956C14.3528 26.7843 12.8726 28.8766 12.0122 30.021C11.8533 30.2323 11.8961 30.5323 12.1073 30.6912C12.1935 30.7563 12.2943 30.7876 12.3946 30.7876C12.5401 30.7876 12.6837 30.7219 12.7775 30.5968C13.7598 29.2908 14.9822 27.5202 15.6549 25.9992C16.2172 29.1434 14.8507 32.4893 14.25 33.7582C13.8352 33.455 13.4796 33.3382 13.156 33.2316ZM25.9996 15.6552C27.5206 14.9831 29.2906 13.7601 30.5965 12.7784C30.8078 12.6195 30.8506 12.3195 30.6916 12.1082C30.5327 11.897 30.2327 11.8542 30.0214 12.0131C28.8776 12.8735 26.786 14.3537 25.1966 14.9499L25.0492 14.8024C25.646 13.2137 27.1262 11.1214 27.9866 9.977C28.1455 9.76573 28.1027 9.46573 27.8915 9.3068C27.6802 9.14787 27.3802 9.19063 27.2213 9.4019C26.2389 10.7078 25.0166 12.4784 24.3439 13.9995C23.7809 10.8546 25.1481 7.50939 25.7487 6.24048C26.1649 6.54303 26.5198 6.66047 26.8434 6.76707C27.2353 6.89664 27.5742 7.00834 28.0517 7.48514C28.5291 7.96257 28.6408 8.30086 28.7697 8.69341C28.9159 9.13702 29.0819 9.64062 29.7201 10.2789C30.3584 10.9172 30.8614 11.0831 31.3056 11.2293C31.6976 11.3589 32.0365 11.4706 32.5139 11.9474C32.9914 12.4248 33.1031 12.7631 33.232 13.1557C33.3386 13.4793 33.456 13.8342 33.7586 14.2503C32.489 14.8516 29.1438 16.2175 25.9996 15.6552Z" stroke="#1475E6" stroke-width="0.5"/>
<path d="M11.0536 26.0416C10.52 26.4016 9.96466 26.7986 9.40297 27.2212C9.19169 27.3801 9.14893 27.6801 9.30786 27.8914C9.40169 28.0165 9.5453 28.0822 9.69083 28.0822C9.79104 28.0822 9.89189 28.051 9.97806 27.9858C10.527 27.5729 11.0689 27.1861 11.5885 26.835C11.8074 26.6869 11.8655 26.3895 11.7174 26.1706C11.5699 25.951 11.2725 25.8936 11.0536 26.0416Z" stroke="#1475E6" stroke-width="0.5"/>
</svg>
