<svg width="1024" height="1024" viewBox="0 0 1024 1024" fill="none" xmlns="http://www.w3.org/2000/svg">
<rect width="1024" height="1024" fill="#1475E6"/>
<circle cx="511.5" cy="511.5" r="342.026" fill="white"/>
<circle opacity="0.3" cx="511.5" cy="511.5" r="382.737" stroke="white" stroke-width="2"/>
<circle opacity="0.2" cx="511.5" cy="511.5" r="424.947" stroke="white"/>
<circle opacity="0.1" cx="511.5" cy="511.5" r="475" stroke="white"/>
<path d="M527.142 664.243H526.642V663.743V636.597V636.137L527.1 636.099C595.317 630.382 652.816 579.332 652.816 503.158C652.816 496.934 648.069 492.187 641.846 492.187C635.622 492.187 630.875 496.934 630.875 503.158C630.875 564.62 580.935 614.538 515.671 614.538C450.407 614.538 400.467 564.62 400.467 503.158C400.467 496.934 395.721 492.187 389.497 492.187C383.273 492.187 378.526 496.934 378.526 503.158C378.526 579.332 436.025 630.382 504.243 636.099L504.701 636.137V636.597V663.743V664.243H504.201H435.761C429.515 664.243 424.408 669.011 424.408 675.214C424.408 681.416 429.515 686.184 435.761 686.184H595.582C601.827 686.184 606.934 681.416 606.934 675.214C606.934 669.011 601.827 664.243 595.582 664.243H527.142ZM446.349 434.336V433.836H446.849H477.437C483.66 433.836 488.407 429.089 488.407 422.865C488.407 416.641 483.66 411.895 477.437 411.895H446.849H446.349V411.395V410.248C446.349 372.493 477.552 342.072 515.671 342.072C553.79 342.072 584.994 372.493 584.994 410.248V411.395V411.895H584.494H553.906C547.682 411.895 542.935 416.641 542.935 422.865C542.935 429.089 547.682 433.836 553.906 433.836H584.494H584.994V434.336V472.57V473.07H584.494H553.906C547.682 473.07 542.935 477.817 542.935 484.041C542.935 490.264 547.682 495.011 553.906 495.011H584.494H584.994V495.511V500.481C584.994 538.237 553.79 568.657 515.671 568.657C477.552 568.657 446.349 538.237 446.349 500.481V495.511V495.011H446.849H477.437C483.66 495.011 488.407 490.264 488.407 484.041C488.407 477.817 483.66 473.07 477.437 473.07H446.849H446.349V472.57V434.336ZM515.671 320.132C465.09 320.132 424.408 360.442 424.408 410.248V500.864C424.408 550.286 465.088 590.598 515.671 590.598C566.253 590.598 606.934 550.287 606.934 500.481V410.248C606.934 360.442 566.253 320.132 515.671 320.132Z" fill="#1475E6" stroke="#1475E6"/>
</svg>
