<svg width="40" height="40" viewBox="0 0 40 40" fill="none" xmlns="http://www.w3.org/2000/svg">
<path d="M13.2833 20.3429C13.0688 20.46 12.9874 20.7327 13.1011 20.9526C13.2153 21.1731 13.4819 21.256 13.6964 21.1394C14.219 20.8547 14.5776 20.3489 14.6807 19.7517C14.9748 18.0463 13.097 16.8124 11.7084 17.809C10.6274 18.5845 10.6268 20.2209 11.692 21.0031C11.8894 21.1478 12.1642 21.1016 12.306 20.8991C12.4478 20.6967 12.4021 20.4149 12.2046 20.2696C11.3105 19.613 11.9216 18.182 12.981 18.3743C13.9342 18.5467 14.1487 19.8719 13.2833 20.3429Z" fill="#1475E6"/>
<path d="M23.8743 24.113C22.7236 24.113 21.7873 25.073 21.7873 26.2528C21.7873 27.4326 22.7236 28.3926 23.8743 28.3926C25.025 28.3926 25.9613 27.4326 25.9613 26.2528C25.9613 25.073 25.025 24.113 23.8743 24.113ZM23.8743 27.4903C23.2087 27.4903 22.6673 26.9352 22.6673 26.2522C22.6673 25.5698 23.2087 25.0147 23.8743 25.0147C24.5399 25.0147 25.0813 25.5698 25.0813 26.2522C25.0813 26.9352 24.5399 27.4903 23.8743 27.4903Z" fill="#1475E6"/>
<path d="M12.7865 24.4104C12.7865 24.7546 12.5146 25.0328 12.1795 25.0328C11.8443 25.0328 11.5725 24.754 11.5725 24.4104C11.5725 24.0668 11.8443 23.788 12.1795 23.788C12.5146 23.7874 12.7865 24.0662 12.7865 24.4104Z" fill="#1475E6"/>
<path d="M34.5573 18.9968C33.7968 18.9968 33.0902 19.3482 32.6185 19.9609C30.8737 22.2287 34.1032 24.7932 33.4499 26.3863C33.2782 26.8051 32.8664 27.076 32.4 27.076H30.5426C30.8309 26.4422 30.6077 26.0662 30.4676 23.7816C30.2046 20.6932 28.2248 17.9539 25.2858 16.8606L25.6321 15.3852C25.6538 15.2927 25.7469 15.2458 25.8319 15.2675L25.8419 15.2699C27.1039 15.581 28.4076 14.7478 28.632 13.374C28.9202 11.6102 27.2252 10.1673 25.5829 10.7932C25.5313 10.8124 25.4739 10.7986 25.4364 10.7572C24.7937 10.0393 23.8011 9.81644 22.9393 10.1565C22.7125 10.246 22.5994 10.5067 22.6861 10.7392C22.7729 10.9716 23.0271 11.0876 23.2545 10.9987C23.8011 10.7836 24.4064 10.9416 24.7884 11.3681C25.0685 11.6811 25.5009 11.7874 25.8893 11.6397C26.8959 11.2558 27.9418 12.1395 27.7642 13.2262C27.6986 13.6275 27.4818 13.9717 27.1525 14.1946C26.8233 14.4174 26.4313 14.4883 26.0422 14.3928C25.4768 14.251 24.9108 14.5994 24.7755 15.1749L24.4415 16.5963C24.2535 16.5494 24.063 16.5098 23.8726 16.4773L24.2107 15.0356C24.3425 14.4727 24.0103 13.8888 23.425 13.747C22.6481 13.5554 22.1793 12.742 22.4049 11.9424C22.4723 11.7033 22.3381 11.4528 22.1043 11.3837C21.8711 11.3147 21.6274 11.4522 21.5594 11.6919C21.4282 12.1563 21.4376 12.6411 21.587 13.094C22.017 14.3988 23.2322 14.6295 23.2263 14.6265C23.316 14.6481 23.3758 14.734 23.3547 14.8253L22.9891 16.3836C21.0438 16.2779 17.9783 17.2 16.1726 17.9125C15.6687 16.7897 14.6691 15.9649 13.4322 15.7408C10.1992 15.1551 7.87839 18.834 9.68886 21.625C8.05182 22.9039 6.56536 24.3763 5.26522 26.0085C4.63654 26.7972 5.18495 27.9795 6.1769 27.9795H10.2203C10.2132 29.2596 11.2251 30.2953 12.4637 30.2953C13.7024 30.2953 14.7142 29.2596 14.7072 27.9795H16.1011C16.3442 27.9795 16.5411 27.7776 16.5411 27.5283C16.5411 27.2796 16.3442 27.0772 16.1011 27.0772H6.17866C5.92789 27.0772 5.78844 26.7792 5.9484 26.5792C7.21455 24.9897 8.66468 23.5557 10.2613 22.3128C10.5414 22.5777 10.7617 22.7742 11.0353 22.6636C11.3587 22.5327 11.4132 22.0851 11.1302 21.8773C10.2461 21.2285 9.79315 20.0979 9.98299 18.995C10.2566 17.4072 11.7313 16.3482 13.2811 16.6293C15.9148 17.1063 16.5188 20.7731 14.1195 22.0809C13.8793 22.2119 13.8096 22.5345 13.9801 22.7579C14.1078 22.9255 14.3404 22.982 14.5326 22.8775C16.036 22.0581 16.7467 20.3628 16.445 18.7727C18.0533 18.1341 19.7244 17.6638 21.4182 17.373C25.4598 16.6786 29.2331 19.648 29.5917 23.8621L29.8044 26.3593C29.8372 26.7438 29.5431 27.0778 29.1622 27.0778H27.732C28.2394 24.5739 26.3698 22.2131 23.8732 22.2131C21.3919 22.2131 19.5029 24.5571 20.0138 27.0778H17.7446C17.5014 27.0778 17.3045 27.2796 17.3045 27.5289C17.3045 27.7782 17.5014 27.9801 17.7446 27.9801H20.3091C21.7329 31.0588 26.0094 31.0672 27.4367 27.9801H32.3994C33.2202 27.9801 33.9509 27.4929 34.2602 26.7384C34.9036 25.1699 33.4019 23.5467 33.014 21.8845C32.7785 20.8759 33.5355 19.9009 34.5573 19.9009C34.8004 19.9009 34.9973 19.699 34.9973 19.4497C34.9973 19.1986 34.8004 18.9968 34.5573 18.9968ZM13.8289 27.9783C13.8377 28.7538 13.2242 29.3918 12.4655 29.3918C11.7062 29.3918 11.0933 28.7532 11.1021 27.9783H13.8289ZM23.8732 29.3918C21.9561 29.3918 20.5153 27.6028 20.8628 25.6781C21.1264 24.2207 22.3762 23.113 23.8732 23.113C26.0001 23.113 27.473 25.2888 26.7518 27.3211C26.3246 28.5279 25.1956 29.3918 23.8732 29.3918Z" fill="#1475E6"/>
<path d="M13.2833 20.3429C13.0688 20.46 12.9874 20.7327 13.1011 20.9526C13.2153 21.1731 13.4819 21.256 13.6964 21.1394C14.219 20.8547 14.5776 20.3489 14.6807 19.7517C14.9748 18.0463 13.097 16.8124 11.7084 17.809C10.6274 18.5845 10.6268 20.2209 11.692 21.0031C11.8894 21.1478 12.1642 21.1016 12.306 20.8991C12.4478 20.6967 12.4021 20.4149 12.2046 20.2696C11.3105 19.613 11.9216 18.182 12.981 18.3743C13.9342 18.5467 14.1487 19.8719 13.2833 20.3429Z" stroke="#1475E6" stroke-width="0.5"/>
<path d="M23.8743 24.113C22.7236 24.113 21.7873 25.073 21.7873 26.2528C21.7873 27.4326 22.7236 28.3926 23.8743 28.3926C25.025 28.3926 25.9613 27.4326 25.9613 26.2528C25.9613 25.073 25.025 24.113 23.8743 24.113ZM23.8743 27.4903C23.2087 27.4903 22.6673 26.9352 22.6673 26.2522C22.6673 25.5698 23.2087 25.0147 23.8743 25.0147C24.5399 25.0147 25.0813 25.5698 25.0813 26.2522C25.0813 26.9352 24.5399 27.4903 23.8743 27.4903Z" stroke="#1475E6" stroke-width="0.5"/>
<path d="M12.7865 24.4104C12.7865 24.7546 12.5146 25.0328 12.1795 25.0328C11.8443 25.0328 11.5725 24.754 11.5725 24.4104C11.5725 24.0668 11.8443 23.788 12.1795 23.788C12.5146 23.7874 12.7865 24.0662 12.7865 24.4104Z" stroke="#1475E6" stroke-width="0.5"/>
<path d="M34.5573 18.9968C33.7968 18.9968 33.0902 19.3482 32.6185 19.9609C30.8737 22.2287 34.1032 24.7932 33.4499 26.3863C33.2782 26.8051 32.8664 27.076 32.4 27.076H30.5426C30.8309 26.4422 30.6077 26.0662 30.4676 23.7816C30.2046 20.6932 28.2248 17.9539 25.2858 16.8606L25.6321 15.3852C25.6538 15.2927 25.7469 15.2458 25.8319 15.2675L25.8419 15.2699C27.1039 15.581 28.4076 14.7478 28.632 13.374C28.9202 11.6102 27.2252 10.1673 25.5829 10.7932C25.5313 10.8124 25.4739 10.7986 25.4364 10.7572C24.7937 10.0393 23.8011 9.81644 22.9393 10.1565C22.7125 10.246 22.5994 10.5067 22.6861 10.7392C22.7729 10.9716 23.0271 11.0876 23.2545 10.9987C23.8011 10.7836 24.4064 10.9416 24.7884 11.3681C25.0685 11.6811 25.5009 11.7874 25.8893 11.6397C26.8959 11.2558 27.9418 12.1395 27.7642 13.2262C27.6986 13.6275 27.4818 13.9717 27.1525 14.1946C26.8233 14.4174 26.4313 14.4883 26.0422 14.3928C25.4768 14.251 24.9108 14.5994 24.7755 15.1749L24.4415 16.5963C24.2535 16.5494 24.063 16.5098 23.8726 16.4773L24.2107 15.0356C24.3425 14.4727 24.0103 13.8888 23.425 13.747C22.6481 13.5554 22.1793 12.742 22.4049 11.9424C22.4723 11.7033 22.3381 11.4528 22.1043 11.3837C21.8711 11.3147 21.6274 11.4522 21.5594 11.6919C21.4282 12.1563 21.4376 12.6411 21.587 13.094C22.017 14.3988 23.2322 14.6295 23.2263 14.6265C23.316 14.6481 23.3758 14.734 23.3547 14.8253L22.9891 16.3836C21.0438 16.2779 17.9783 17.2 16.1726 17.9125C15.6687 16.7897 14.6691 15.9649 13.4322 15.7408C10.1992 15.1551 7.87839 18.834 9.68886 21.625C8.05182 22.9039 6.56536 24.3763 5.26522 26.0085C4.63654 26.7972 5.18495 27.9795 6.1769 27.9795H10.2203C10.2132 29.2596 11.2251 30.2953 12.4637 30.2953C13.7024 30.2953 14.7142 29.2596 14.7072 27.9795H16.1011C16.3442 27.9795 16.5411 27.7776 16.5411 27.5283C16.5411 27.2796 16.3442 27.0772 16.1011 27.0772H6.17866C5.92789 27.0772 5.78844 26.7792 5.9484 26.5792C7.21455 24.9897 8.66468 23.5557 10.2613 22.3128C10.5414 22.5777 10.7617 22.7742 11.0353 22.6636C11.3587 22.5327 11.4132 22.0851 11.1302 21.8773C10.2461 21.2285 9.79315 20.0979 9.98299 18.995C10.2566 17.4072 11.7313 16.3482 13.2811 16.6293C15.9148 17.1063 16.5188 20.7731 14.1195 22.0809C13.8793 22.2119 13.8096 22.5345 13.9801 22.7579C14.1078 22.9255 14.3404 22.982 14.5326 22.8775C16.036 22.0581 16.7467 20.3628 16.445 18.7727C18.0533 18.1341 19.7244 17.6638 21.4182 17.373C25.4598 16.6786 29.2331 19.648 29.5917 23.8621L29.8044 26.3593C29.8372 26.7438 29.5431 27.0778 29.1622 27.0778H27.732C28.2394 24.5739 26.3698 22.2131 23.8732 22.2131C21.3919 22.2131 19.5029 24.5571 20.0138 27.0778H17.7446C17.5014 27.0778 17.3045 27.2796 17.3045 27.5289C17.3045 27.7782 17.5014 27.9801 17.7446 27.9801H20.3091C21.7329 31.0588 26.0094 31.0672 27.4367 27.9801H32.3994C33.2202 27.9801 33.9509 27.4929 34.2602 26.7384C34.9036 25.1699 33.4019 23.5467 33.014 21.8845C32.7785 20.8759 33.5355 19.9009 34.5573 19.9009C34.8004 19.9009 34.9973 19.699 34.9973 19.4497C34.9973 19.1986 34.8004 18.9968 34.5573 18.9968ZM13.8289 27.9783C13.8377 28.7538 13.2242 29.3918 12.4655 29.3918C11.7062 29.3918 11.0933 28.7532 11.1021 27.9783H13.8289ZM23.8732 29.3918C21.9561 29.3918 20.5153 27.6028 20.8628 25.6781C21.1264 24.2207 22.3762 23.113 23.8732 23.113C26.0001 23.113 27.473 25.2888 26.7518 27.3211C26.3246 28.5279 25.1956 29.3918 23.8732 29.3918Z" stroke="#1475E6" stroke-width="0.5"/>
</svg>
