<svg width="40" height="40" viewBox="0 0 40 40" fill="none" xmlns="http://www.w3.org/2000/svg">
<path d="M19.3836 8.51562C19.0622 8.51562 18.8017 8.25329 18.8017 7.92969C18.8017 7.60608 19.0622 7.34375 19.3836 7.34375C19.705 7.34375 19.9655 7.60608 19.9655 7.92969C19.9655 8.25329 19.705 8.51562 19.3836 8.51562Z" fill="#1475E6"/>
<path d="M12.6278 16.9121C12.6802 16.7656 12.7907 16.6484 12.9304 16.584C13.07 16.5195 13.233 16.5137 13.3726 16.5664L18.8425 18.5703C19.145 18.6816 19.3022 19.0156 19.1916 19.3203L18.9938 19.8711C18.3362 21.6934 16.3287 22.6367 14.519 21.9746C12.7035 21.3125 11.7724 19.2969 12.43 17.4688L12.6278 16.9121ZM14.9147 20.8672C16.1192 21.3125 17.4575 20.6797 17.8998 19.4668L16.2588 18.8633L15.9679 19.6719C15.8573 19.9766 15.5256 20.1348 15.2231 20.0234C14.9205 19.9121 14.7634 19.5781 14.8739 19.2734L15.1649 18.4648L13.5239 17.8613C13.0817 19.0801 13.7043 20.4219 14.9147 20.8672Z" fill="#1475E6"/>
<path d="M20.9431 19.8652L20.7453 19.3145C20.6929 19.168 20.6987 19.0098 20.7627 18.8633C20.8267 18.7168 20.9489 18.6113 21.0886 18.5586L26.5584 16.5547C26.7039 16.502 26.861 16.5078 27.0006 16.5723C27.1403 16.6367 27.2509 16.7598 27.3032 16.9004L27.5011 17.4512C28.1644 19.2793 27.2276 21.2949 25.4121 21.957C23.6024 22.6367 21.6006 21.6875 20.9431 19.8652ZM25.0164 20.8672C26.2267 20.4219 26.8494 19.0801 26.4071 17.8613L24.7662 18.4648L25.0571 19.2734C25.1677 19.5781 25.0106 19.9121 24.708 20.0234C24.4054 20.1348 24.0737 19.9766 23.9631 19.6719L23.6722 18.8633L22.0312 19.4668C22.4735 20.6855 23.8119 21.3125 25.0164 20.8672Z" fill="#1475E6"/>
<path d="M16.4741 25.625H23.4569C24.4228 25.625 25.2026 26.4102 25.2026 27.3828C25.2026 29.6445 23.3754 31.4844 21.1293 31.4844H18.8017C16.5614 31.4844 14.7284 29.6562 14.7284 27.3828C14.7284 26.416 15.514 25.625 16.4741 25.625ZM18.2198 30.2539V29.7266C18.2198 29.4043 18.4817 29.1406 18.8017 29.1406C19.1218 29.1406 19.3836 29.4043 19.3836 29.7266V30.3125H20.5474V29.7266C20.5474 29.4043 20.8093 29.1406 21.1293 29.1406C21.4494 29.1406 21.7112 29.4043 21.7112 29.7266V30.2539C23.0379 29.9844 24.0388 28.8008 24.0388 27.3828C24.0388 27.0605 23.7769 26.7969 23.4569 26.7969H22.875V28.5547C22.875 28.877 22.6131 29.1406 22.2931 29.1406C21.9731 29.1406 21.7112 28.877 21.7112 28.5547V26.7969H20.5474V27.3828C20.5474 27.7051 20.2856 27.9688 19.9655 27.9688C19.6455 27.9688 19.3836 27.7051 19.3836 27.3828V26.7969H18.2198V28.5547C18.2198 28.877 17.958 29.1406 17.6379 29.1406C17.3179 29.1406 17.056 28.877 17.056 28.5547V26.7969H16.4741C16.1541 26.7969 15.8922 27.0605 15.8922 27.3828C15.8922 28.8125 16.9047 29.9844 18.2198 30.2539Z" fill="#1475E6"/>
<path d="M6.3084 14.7969C6.50043 14.6973 6.72737 14.709 6.90776 14.8262L9.49138 16.5605V12.6172C9.49138 8.41602 12.8838 5 17.056 5H22.875C27.0472 5 30.4397 8.41602 30.4397 12.6172V16.5605L33.0291 14.8262C33.2095 14.709 33.4364 14.6973 33.6284 14.7969C33.8147 14.8965 33.931 15.0957 33.931 15.3125V20C33.931 22.0625 32.4123 23.7734 30.4397 24.0605V24.4531C30.4397 30.2715 25.7437 35 19.9655 35C14.1873 35 9.49138 30.2715 9.49138 24.4531V24.0605C7.51875 23.7734 6 22.0625 6 20V15.3125C6 15.0957 6.11638 14.8965 6.3084 14.7969ZM30.4397 19.6367L30.7597 19.4727C31.0448 19.3262 31.394 19.4434 31.5394 19.7363C31.6849 20.0234 31.5685 20.375 31.2776 20.5215L30.4338 20.9434V22.8711C31.7606 22.6016 32.7614 21.4121 32.7614 20V16.4082L30.4338 17.9727V19.6367H30.4397ZM22.875 6.17188H17.056C13.9778 6.17188 11.4058 8.36914 10.7948 11.2871C11.2487 10.8242 11.8015 10.4434 12.4183 10.168C13.3203 8.44531 15.1183 7.34375 17.056 7.34375C17.3761 7.34375 17.6379 7.60742 17.6379 7.92969C17.6379 8.25195 17.3761 8.51562 17.056 8.51562C15.9679 8.51562 14.9379 8.96094 14.1873 9.71094C14.3677 9.69336 14.5481 9.6875 14.7284 9.6875C16.6371 9.6875 18.7203 10.5605 19.9655 11.832C21.2108 10.5605 23.294 9.6875 25.2026 9.6875C26.7679 9.6875 28.1761 10.3086 29.1362 11.2871C28.5252 8.36914 25.9532 6.17188 22.875 6.17188ZM10.6552 24.4531C10.6552 29.6211 14.8332 33.8281 19.9655 33.8281C25.0978 33.8281 29.2759 29.6211 29.2759 24.4531C29.2759 22.4785 29.2759 16.3613 29.2759 14.375C29.2759 12.4355 27.4487 10.8594 25.2026 10.8594C23.4336 10.8594 21.3388 11.832 20.4369 13.0742C20.3263 13.2266 20.1517 13.3145 19.9655 13.3145C19.7793 13.3145 19.6047 13.2266 19.4942 13.0742C18.5922 11.832 16.4974 10.8594 14.7284 10.8594C12.4823 10.8594 10.6552 12.4355 10.6552 14.375V24.4531ZM7.16379 20C7.16379 21.4121 8.16465 22.6016 9.49138 22.8711V20.9492L8.64763 20.5273C8.3625 20.3809 8.24612 20.0293 8.38578 19.7422C8.52543 19.4551 8.88039 19.3379 9.16552 19.4785L9.48556 19.6426V17.9727L7.15797 16.4082V20H7.16379Z" fill="#1475E6"/>
<path d="M21.7112 23.8672C21.7112 24.1895 21.4494 24.4531 21.1293 24.4531H18.8017C18.4817 24.4531 18.2198 24.1895 18.2198 23.8672C18.2198 23.5449 18.4817 23.2812 18.8017 23.2812H21.1293C21.4494 23.2812 21.7112 23.5449 21.7112 23.8672Z" fill="#1475E6"/>
<path d="M12.6278 16.9121L12.3924 16.8279L12.3922 16.8284L12.6278 16.9121ZM13.3726 16.5664L13.2843 16.8003L13.2866 16.8011L13.3726 16.5664ZM18.8425 18.5703L18.9288 18.3357L18.9285 18.3356L18.8425 18.5703ZM19.1916 19.3203L18.9566 19.235L18.9563 19.2358L19.1916 19.3203ZM18.9938 19.8711L19.2289 19.9559L19.229 19.9556L18.9938 19.8711ZM14.519 21.9746L14.6049 21.7398L14.6046 21.7397L14.519 21.9746ZM12.43 17.4688L12.6652 17.5534L12.6655 17.5525L12.43 17.4688ZM14.9147 20.8672L15.0014 20.6327L15.001 20.6326L14.9147 20.8672ZM17.8998 19.4668L18.1347 19.5524L18.2201 19.3182L17.9861 19.2322L17.8998 19.4668ZM16.2588 18.8633L16.3451 18.6286L16.1088 18.5417L16.0236 18.7786L16.2588 18.8633ZM15.9679 19.6719L16.2029 19.7572L16.2031 19.7565L15.9679 19.6719ZM14.8739 19.2734L15.1089 19.3587L15.1092 19.3581L14.8739 19.2734ZM15.1649 18.4648L15.4001 18.5495L15.4842 18.3159L15.2512 18.2302L15.1649 18.4648ZM13.5239 17.8613L13.6102 17.6267L13.3746 17.54L13.2889 17.7761L13.5239 17.8613ZM20.9431 19.8652L20.7078 19.9497L20.7079 19.9501L20.9431 19.8652ZM20.7453 19.3145L20.5099 19.3986L20.51 19.399L20.7453 19.3145ZM21.0886 18.5586L21.0026 18.3238L21.0003 18.3247L21.0886 18.5586ZM26.5584 16.5547L26.4732 16.3197L26.4724 16.3199L26.5584 16.5547ZM27.3032 16.9004L27.5385 16.8159L27.5375 16.8131L27.3032 16.9004ZM27.5011 17.4512L27.2658 17.5357L27.2661 17.5364L27.5011 17.4512ZM25.4121 21.957L25.3264 21.7222L25.3242 21.723L25.4121 21.957ZM25.0164 20.8672L24.9301 20.6326L24.9297 20.6327L25.0164 20.8672ZM26.4071 17.8613L26.6421 17.7761L26.5565 17.54L26.3208 17.6267L26.4071 17.8613ZM24.7662 18.4648L24.6799 18.2302L24.4469 18.3159L24.5309 18.5495L24.7662 18.4648ZM25.0571 19.2734L24.8219 19.3581L24.8221 19.3587L25.0571 19.2734ZM23.9631 19.6719L23.7279 19.7565L23.7281 19.7572L23.9631 19.6719ZM23.6722 18.8633L23.9074 18.7786L23.8222 18.5417L23.5859 18.6286L23.6722 18.8633ZM22.0312 19.4668L21.945 19.2322L21.7113 19.3181L21.7962 19.5521L22.0312 19.4668ZM18.2198 30.2539L18.1696 30.4988L18.4698 30.5603V30.2539H18.2198ZM19.3836 30.3125H19.1336V30.5625H19.3836V30.3125ZM20.5474 30.3125V30.5625H20.7974V30.3125H20.5474ZM21.7112 30.2539H21.4612V30.5598L21.761 30.4989L21.7112 30.2539ZM22.875 26.7969V26.5469H22.625V26.7969H22.875ZM21.7112 26.7969H21.9612V26.5469H21.7112V26.7969ZM20.5474 26.7969V26.5469H20.2974V26.7969H20.5474ZM19.3836 26.7969H19.6336V26.5469H19.3836V26.7969ZM18.2198 26.7969V26.5469H17.9698V26.7969H18.2198ZM17.056 26.7969H17.306V26.5469H17.056V26.7969ZM6.90776 14.8262L7.04712 14.6186L7.04395 14.6165L6.90776 14.8262ZM9.49138 16.5605L9.35204 16.7681L9.74138 17.0295V16.5605H9.49138ZM30.4397 16.5605H30.1897V17.0289L30.5788 16.7683L30.4397 16.5605ZM33.0291 14.8262L32.8929 14.6165L32.89 14.6185L33.0291 14.8262ZM33.6284 14.7969L33.7464 14.5764L33.7436 14.575L33.6284 14.7969ZM30.4397 24.0605L30.4036 23.8132L30.1897 23.8443V24.0605H30.4397ZM9.49138 24.0605H9.74138V23.8443L9.52739 23.8132L9.49138 24.0605ZM30.4397 19.6367V19.8867H30.5L30.5537 19.8592L30.4397 19.6367ZM30.7597 19.4727L30.8737 19.6951L30.8739 19.695L30.7597 19.4727ZM31.5394 19.7363L31.3155 19.8475L31.3164 19.8493L31.5394 19.7363ZM31.2776 20.5215L31.3894 20.7451L31.39 20.7448L31.2776 20.5215ZM30.4338 20.9434L30.322 20.7198L30.1838 20.7889V20.9434H30.4338ZM30.4338 22.8711H30.1838V23.177L30.4836 23.1161L30.4338 22.8711ZM32.7614 16.4082H33.0114V15.9389L32.622 16.2007L32.7614 16.4082ZM30.4338 17.9727L30.2944 17.7652L30.1838 17.8395V17.9727H30.4338ZM30.4338 19.6367H30.1838V19.8867H30.4338V19.6367ZM10.7948 11.2871L10.5501 11.2359L10.375 12.0724L10.9733 11.4621L10.7948 11.2871ZM12.4183 10.168L12.5202 10.3962L12.5995 10.3609L12.6398 10.2839L12.4183 10.168ZM14.1873 9.71094L14.0106 9.53408L13.5168 10.0275L14.2115 9.95976L14.1873 9.71094ZM19.9655 11.832L19.7869 12.007L19.9655 12.1893L20.1441 12.007L19.9655 11.832ZM29.1362 11.2871L28.9578 11.4622L29.5559 12.0718L29.3809 11.2359L29.1362 11.2871ZM20.4369 13.0742L20.2346 12.9273L20.2345 12.9274L20.4369 13.0742ZM19.4942 13.0742L19.6965 12.9274L19.6965 12.9273L19.4942 13.0742ZM7.16379 20H7.41379V19.75H7.16379V20ZM9.49138 22.8711L9.44161 23.1161L9.74138 23.177V22.8711H9.49138ZM9.49138 20.9492H9.74138V20.7947L9.60318 20.7256L9.49138 20.9492ZM8.64763 20.5273L8.53338 20.7497L8.53583 20.7509L8.64763 20.5273ZM9.16552 19.4785L9.27957 19.256L9.2761 19.2543L9.16552 19.4785ZM9.48556 19.6426L9.37151 19.865L9.73556 20.0517V19.6426H9.48556ZM9.48556 17.9727H9.73556V17.8395L9.62502 17.7652L9.48556 17.9727ZM7.15797 16.4082L7.29743 16.2007L6.90797 15.9389V16.4082H7.15797ZM7.15797 20H6.90797V20.25H7.15797V20ZM18.5517 7.92969C18.5517 8.38973 18.9225 8.76562 19.3836 8.76562V8.26562C19.2019 8.26562 19.0517 8.11685 19.0517 7.92969H18.5517ZM19.3836 8.76562C19.8447 8.76562 20.2155 8.38973 20.2155 7.92969H19.7155C19.7155 8.11685 19.5653 8.26562 19.3836 8.26562V8.76562ZM20.2155 7.92969C20.2155 7.46965 19.8447 7.09375 19.3836 7.09375V7.59375C19.5653 7.59375 19.7155 7.74252 19.7155 7.92969H20.2155ZM19.3836 7.09375C18.9225 7.09375 18.5517 7.46965 18.5517 7.92969H19.0517C19.0517 7.74252 19.2019 7.59375 19.3836 7.59375V7.09375ZM12.8632 16.9963C12.8921 16.9154 12.9541 16.8484 13.0352 16.811L12.8256 16.357C12.6274 16.4485 12.4682 16.6159 12.3924 16.8279L12.8632 16.9963ZM13.0352 16.811C13.115 16.7741 13.2084 16.7716 13.2843 16.8003L13.4609 16.3325C13.2576 16.2557 13.0251 16.2649 12.8256 16.357L13.0352 16.811ZM13.2866 16.8011L18.7565 18.8051L18.9285 18.3356L13.4586 16.3317L13.2866 16.8011ZM18.7561 18.8049C18.9304 18.869 19.0199 19.0605 18.9566 19.235L19.4266 19.4056C19.5844 18.9707 19.3597 18.4942 18.9288 18.3357L18.7561 18.8049ZM18.9563 19.2358L18.7585 19.7866L19.229 19.9556L19.4269 19.4048L18.9563 19.2358ZM18.7586 19.7862C18.1477 21.4793 16.2834 22.3539 14.6049 21.7398L14.4331 22.2094C16.374 22.9195 18.5248 21.9074 19.2289 19.9559L18.7586 19.7862ZM14.6046 21.7397C12.9203 21.1255 12.0536 19.2538 12.6652 17.5534L12.1947 17.3841C11.4913 19.3399 12.4866 21.4995 14.4333 22.2095L14.6046 21.7397ZM12.6655 17.5525L12.8634 16.9958L12.3922 16.8284L12.1944 17.385L12.6655 17.5525ZM14.828 21.1017C16.1651 21.596 17.646 20.8928 18.1347 19.5524L17.6649 19.3812C17.2691 20.4666 16.0733 21.029 15.0014 20.6327L14.828 21.1017ZM17.9861 19.2322L16.3451 18.6286L16.1725 19.0979L17.8135 19.7014L17.9861 19.2322ZM16.0236 18.7786L15.7327 19.5872L16.2031 19.7565L16.4941 18.9479L16.0236 18.7786ZM15.7329 19.5866C15.6684 19.7643 15.4788 19.8511 15.3094 19.7888L15.1367 20.2581C15.5725 20.4184 16.0463 20.1888 16.2029 19.7572L15.7329 19.5866ZM15.3094 19.7888C15.1352 19.7247 15.0456 19.5332 15.1089 19.3587L14.6389 19.1882C14.4811 19.623 14.7058 20.0995 15.1367 20.2581L15.3094 19.7888ZM15.1092 19.3581L15.4001 18.5495L14.9296 18.3802L14.6387 19.1888L15.1092 19.3581ZM15.2512 18.2302L13.6102 17.6267L13.4376 18.096L15.0786 18.6995L15.2512 18.2302ZM13.2889 17.7761C12.8 19.1236 13.4882 20.6087 14.8283 21.1018L15.001 20.6326C13.9204 20.235 13.3634 19.0366 13.7589 17.9466L13.2889 17.7761ZM21.1784 19.7807L20.9805 19.2299L20.51 19.399L20.7078 19.9497L21.1784 19.7807ZM20.9807 19.2303C20.9502 19.1451 20.9527 19.0528 20.9918 18.9634L20.5336 18.7632C20.4447 18.9668 20.4356 19.1908 20.5099 19.3986L20.9807 19.2303ZM20.9918 18.9634C21.0262 18.8847 21.0938 18.8238 21.1769 18.7925L21.0003 18.3247C20.804 18.3988 20.6273 18.5489 20.5336 18.7632L20.9918 18.9634ZM21.1746 18.7933L26.6444 16.7894L26.4724 16.3199L21.0026 18.3239L21.1746 18.7933ZM26.6436 16.7897C26.7283 16.759 26.8171 16.7629 26.8959 16.7993L27.1054 16.3453C26.9049 16.2527 26.6795 16.2449 26.4732 16.3197L26.6436 16.7897ZM26.8959 16.7993C26.9737 16.8351 27.0389 16.9068 27.069 16.9876L27.5375 16.8131C27.4629 16.6127 27.3069 16.4383 27.1054 16.3453L26.8959 16.7993ZM27.068 16.9849L27.2658 17.5357L27.7364 17.3667L27.5385 16.8159L27.068 16.9849ZM27.2661 17.5364C27.8827 19.2359 27.0114 21.1076 25.3264 21.7222L25.4977 22.1919C27.4437 21.4822 28.4462 19.3227 27.7361 17.3659L27.2661 17.5364ZM25.3242 21.723C23.6479 22.3526 21.7896 21.4746 21.1783 19.7804L20.7079 19.9501C21.4117 21.9004 23.5569 22.9209 25.5 22.1911L25.3242 21.723ZM25.1027 21.1018C26.4428 20.6087 27.1311 19.1236 26.6421 17.7761L26.1721 17.9466C26.5676 19.0366 26.0106 20.235 24.9301 20.6326L25.1027 21.1018ZM26.3208 17.6267L24.6799 18.2302L24.8525 18.6995L26.4934 18.096L26.3208 17.6267ZM24.5309 18.5495L24.8219 19.3581L25.2923 19.1888L25.0014 18.3802L24.5309 18.5495ZM24.8221 19.3587C24.8854 19.5332 24.7959 19.7247 24.6217 19.7888L24.7943 20.2581C25.2252 20.0995 25.4499 19.623 25.2921 19.1882L24.8221 19.3587ZM24.6217 19.7888C24.4522 19.8511 24.2626 19.7643 24.1982 19.5866L23.7281 19.7572C23.8848 20.1888 24.3586 20.4184 24.7943 20.2581L24.6217 19.7888ZM24.1984 19.5872L23.9074 18.7786L23.437 18.9479L23.7279 19.7565L24.1984 19.5872ZM23.5859 18.6286L21.945 19.2322L22.1175 19.7014L23.7585 19.0979L23.5859 18.6286ZM21.7962 19.5521C22.2851 20.8993 23.7666 21.5958 25.1031 21.1017L24.9297 20.6327C23.8571 21.0292 22.6619 20.4718 22.2663 19.3815L21.7962 19.5521ZM16.4741 25.875H23.4569V25.375H16.4741V25.875ZM23.4569 25.875C24.2831 25.875 24.9526 26.5466 24.9526 27.3828H25.4526C25.4526 26.2737 24.5625 25.375 23.4569 25.375V25.875ZM24.9526 27.3828C24.9526 29.5081 23.2357 31.2344 21.1293 31.2344V31.7344C23.5151 31.7344 25.4526 29.781 25.4526 27.3828H24.9526ZM21.1293 31.2344H18.8017V31.7344H21.1293V31.2344ZM18.8017 31.2344C16.7004 31.2344 14.9784 29.5191 14.9784 27.3828H14.4784C14.4784 29.7934 16.4224 31.7344 18.8017 31.7344V31.2344ZM14.9784 27.3828C14.9784 26.5525 15.6537 25.875 16.4741 25.875V25.375C15.3743 25.375 14.4784 26.2796 14.4784 27.3828H14.9784ZM18.4698 30.2539V29.7266H17.9698V30.2539H18.4698ZM18.4698 29.7266C18.4698 29.5407 18.6214 29.3906 18.8017 29.3906V28.8906C18.342 28.8906 17.9698 29.2679 17.9698 29.7266H18.4698ZM18.8017 29.3906C18.9821 29.3906 19.1336 29.5407 19.1336 29.7266H19.6336C19.6336 29.2679 19.2615 28.8906 18.8017 28.8906V29.3906ZM19.1336 29.7266V30.3125H19.6336V29.7266H19.1336ZM19.3836 30.5625H20.5474V30.0625H19.3836V30.5625ZM20.7974 30.3125V29.7266H20.2974V30.3125H20.7974ZM20.7974 29.7266C20.7974 29.5407 20.949 29.3906 21.1293 29.3906V28.8906C20.6696 28.8906 20.2974 29.2679 20.2974 29.7266H20.7974ZM21.1293 29.3906C21.3097 29.3906 21.4612 29.5407 21.4612 29.7266H21.9612C21.9612 29.2679 21.5891 28.8906 21.1293 28.8906V29.3906ZM21.4612 29.7266V30.2539H21.9612V29.7266H21.4612ZM21.761 30.4989C23.2033 30.2059 24.2888 28.9206 24.2888 27.3828H23.7888C23.7888 28.681 22.8726 29.7629 21.6614 30.0089L21.761 30.4989ZM24.2888 27.3828C24.2888 26.9241 23.9166 26.5469 23.4569 26.5469V27.0469C23.6372 27.0469 23.7888 27.197 23.7888 27.3828H24.2888ZM23.4569 26.5469H22.875V27.0469H23.4569V26.5469ZM22.625 26.7969V28.5547H23.125V26.7969H22.625ZM22.625 28.5547C22.625 28.7405 22.4734 28.8906 22.2931 28.8906V29.3906C22.7528 29.3906 23.125 29.0134 23.125 28.5547H22.625ZM22.2931 28.8906C22.1128 28.8906 21.9612 28.7405 21.9612 28.5547H21.4612C21.4612 29.0134 21.8334 29.3906 22.2931 29.3906V28.8906ZM21.9612 28.5547V26.7969H21.4612V28.5547H21.9612ZM21.7112 26.5469H20.5474V27.0469H21.7112V26.5469ZM20.2974 26.7969V27.3828H20.7974V26.7969H20.2974ZM20.2974 27.3828C20.2974 27.5686 20.1459 27.7188 19.9655 27.7188V28.2188C20.4253 28.2188 20.7974 27.8415 20.7974 27.3828H20.2974ZM19.9655 27.7188C19.7852 27.7188 19.6336 27.5686 19.6336 27.3828H19.1336C19.1336 27.8415 19.5058 28.2188 19.9655 28.2188V27.7188ZM19.6336 27.3828V26.7969H19.1336V27.3828H19.6336ZM19.3836 26.5469H18.2198V27.0469H19.3836V26.5469ZM17.9698 26.7969V28.5547H18.4698V26.7969H17.9698ZM17.9698 28.5547C17.9698 28.7405 17.8183 28.8906 17.6379 28.8906V29.3906C18.0977 29.3906 18.4698 29.0134 18.4698 28.5547H17.9698ZM17.6379 28.8906C17.4576 28.8906 17.306 28.7405 17.306 28.5547H16.806C16.806 29.0134 17.1782 29.3906 17.6379 29.3906V28.8906ZM17.306 28.5547V26.7969H16.806V28.5547H17.306ZM17.056 26.5469H16.4741V27.0469H17.056V26.5469ZM16.4741 26.5469C16.0144 26.5469 15.6422 26.9241 15.6422 27.3828H16.1422C16.1422 27.197 16.2938 27.0469 16.4741 27.0469V26.5469ZM15.6422 27.3828C15.6422 28.9339 16.7408 30.206 18.1696 30.4988L18.27 30.009C17.0686 29.7628 16.1422 28.6911 16.1422 27.3828H15.6422ZM6.42352 15.0188C6.5354 14.9608 6.66638 14.9675 6.77157 15.0358L7.04395 14.6165C6.78837 14.4505 6.46546 14.4338 6.19329 14.575L6.42352 15.0188ZM6.76842 15.0337L9.35204 16.7681L9.63072 16.353L7.0471 14.6186L6.76842 15.0337ZM9.74138 16.5605V12.6172H9.24138V16.5605H9.74138ZM9.74138 12.6172C9.74138 8.55245 13.0235 5.25 17.056 5.25V4.75C12.7441 4.75 9.24138 8.27958 9.24138 12.6172H9.74138ZM17.056 5.25H22.875V4.75H17.056V5.25ZM22.875 5.25C26.9075 5.25 30.1897 8.55245 30.1897 12.6172H30.6897C30.6897 8.27958 27.1869 4.75 22.875 4.75V5.25ZM30.1897 12.6172V16.5605H30.6897V12.6172H30.1897ZM30.5788 16.7683L33.1682 15.0339L32.89 14.6185L30.3005 16.3528L30.5788 16.7683ZM33.1653 15.0358C33.2705 14.9675 33.4015 14.9608 33.5133 15.0188L33.7436 14.575C33.4714 14.4338 33.1485 14.4505 32.8929 14.6165L33.1653 15.0358ZM33.5105 15.0173C33.6121 15.0717 33.681 15.1841 33.681 15.3125H34.181C34.181 15.0073 34.0172 14.7213 33.7464 14.5764L33.5105 15.0173ZM33.681 15.3125V20H34.181V15.3125H33.681ZM33.681 20C33.681 21.9376 32.2542 23.5438 30.4036 23.8132L30.4757 24.3079C32.5704 24.0031 34.181 22.1874 34.181 20H33.681ZM30.1897 24.0605V24.4531H30.6897V24.0605H30.1897ZM30.1897 24.4531C30.1897 30.135 25.604 34.75 19.9655 34.75V35.25C25.8834 35.25 30.6897 30.4079 30.6897 24.4531H30.1897ZM19.9655 34.75C14.327 34.75 9.74138 30.135 9.74138 24.4531H9.24138C9.24138 30.4079 14.0476 35.25 19.9655 35.25V34.75ZM9.74138 24.4531V24.0605H9.24138V24.4531H9.74138ZM9.52739 23.8132C7.67685 23.5438 6.25 21.9376 6.25 20H5.75C5.75 22.1874 7.36065 24.0031 9.45537 24.3079L9.52739 23.8132ZM6.25 20V15.3125H5.75V20H6.25ZM6.25 15.3125C6.25 15.1851 6.31779 15.0736 6.42352 15.0188L6.19329 14.575C5.91497 14.7193 5.75 15.0063 5.75 15.3125H6.25ZM30.5537 19.8592L30.8737 19.6951L30.6457 19.2502L30.3256 19.4142L30.5537 19.8592ZM30.8739 19.695C31.0318 19.6139 31.2304 19.6761 31.3155 19.8475L31.7634 19.6251C31.5575 19.2106 31.0578 19.0384 30.6455 19.2503L30.8739 19.695ZM31.3164 19.8493C31.3986 20.0116 31.3341 20.2132 31.1652 20.2982L31.39 20.7448C31.803 20.5368 31.9712 20.0353 31.7624 19.6233L31.3164 19.8493ZM31.1658 20.2979L30.322 20.7198L30.5456 21.167L31.3894 20.7451L31.1658 20.2979ZM30.1838 20.9434V22.8711H30.6838V20.9434H30.1838ZM30.4836 23.1161C31.9262 22.823 33.0114 21.5316 33.0114 20H32.5114C32.5114 21.2926 31.5949 22.3801 30.3841 22.6261L30.4836 23.1161ZM33.0114 20V16.4082H32.5114V20H33.0114ZM32.622 16.2007L30.2944 17.7652L30.5733 18.1801L32.9009 16.6157L32.622 16.2007ZM30.1838 17.9727V19.6367H30.6838V17.9727H30.1838ZM30.4338 19.8867H30.4397V19.3867H30.4338V19.8867ZM22.875 5.92187H17.056V6.42188H22.875V5.92187ZM17.056 5.92187C13.8555 5.92187 11.1846 8.20602 10.5501 11.2359L11.0395 11.3383C11.6271 8.53226 14.1001 6.42188 17.056 6.42188V5.92187ZM10.9733 11.4621C11.4043 11.0226 11.9308 10.6594 12.5202 10.3962L12.3164 9.93969C11.6722 10.2273 11.0931 10.6258 10.6163 11.1121L10.9733 11.4621ZM12.6398 10.2839C13.4992 8.64246 15.2127 7.59375 17.056 7.59375V7.09375C15.0239 7.09375 13.1413 8.24816 12.1968 10.052L12.6398 10.2839ZM17.056 7.59375C17.2364 7.59375 17.3879 7.74386 17.3879 7.92969H17.8879C17.8879 7.47098 17.5158 7.09375 17.056 7.09375V7.59375ZM17.3879 7.92969C17.3879 8.11552 17.2364 8.26562 17.056 8.26562V8.76562C17.5158 8.76562 17.8879 8.38839 17.8879 7.92969H17.3879ZM17.056 8.26562C15.8995 8.26562 14.8066 8.73875 14.0106 9.53408L14.364 9.88779C15.0693 9.18313 16.0362 8.76562 17.056 8.76562V8.26562ZM14.2115 9.95976C14.3814 9.9432 14.5533 9.9375 14.7284 9.9375V9.4375C14.5428 9.4375 14.3539 9.44352 14.163 9.46212L14.2115 9.95976ZM14.7284 9.9375C16.5724 9.9375 18.5904 10.7853 19.7869 12.007L20.1441 11.6571C18.8501 10.3358 16.7018 9.4375 14.7284 9.4375V9.9375ZM20.1441 12.007C21.3406 10.7853 23.3587 9.9375 25.2026 9.9375V9.4375C23.2293 9.4375 21.0809 10.3358 19.7869 11.6571L20.1441 12.007ZM25.2026 9.9375C26.702 9.9375 28.0455 10.5325 28.9578 11.4622L29.3147 11.112C28.3066 10.0847 26.8338 9.4375 25.2026 9.4375V9.9375ZM29.3809 11.2359C28.7465 8.20602 26.0755 5.92187 22.875 5.92187V6.42188C25.8309 6.42188 28.3039 8.53226 28.8915 11.3383L29.3809 11.2359ZM10.4052 24.4531C10.4052 29.7575 14.6935 34.0781 19.9655 34.0781V33.5781C14.9729 33.5781 10.9052 29.4847 10.9052 24.4531H10.4052ZM19.9655 34.0781C25.2375 34.0781 29.5259 29.7575 29.5259 24.4531H29.0259C29.0259 29.4847 24.9581 33.5781 19.9655 33.5781V34.0781ZM29.5259 24.4531C29.5259 24.4493 29.5259 24.4454 29.5259 24.4415C29.5259 24.4376 29.5259 24.4337 29.5259 24.4298C29.5259 24.4259 29.5259 24.4219 29.5259 24.418C29.5259 24.414 29.5259 24.4101 29.5259 24.4061C29.5259 24.4021 29.5259 24.3981 29.5259 24.3941C29.5259 24.3901 29.5259 24.3861 29.5259 24.382C29.5259 24.378 29.5259 24.3739 29.5259 24.3698C29.5259 24.3658 29.5259 24.3617 29.5259 24.3576C29.5259 24.3535 29.5259 24.3493 29.5259 24.3452C29.5259 24.3411 29.5259 24.3369 29.5259 24.3327C29.5259 24.3286 29.5259 24.3244 29.5259 24.3202C29.5259 24.316 29.5259 24.3118 29.5259 24.3076C29.5259 24.3033 29.5259 24.2991 29.5259 24.2948C29.5259 24.2906 29.5259 24.2863 29.5259 24.282C29.5259 24.2777 29.5259 24.2734 29.5259 24.2691C29.5259 24.2648 29.5259 24.2605 29.5259 24.2561C29.5259 24.2518 29.5259 24.2474 29.5259 24.243C29.5259 24.2387 29.5259 24.2343 29.5259 24.2299C29.5259 24.2255 29.5259 24.221 29.5259 24.2166C29.5259 24.2122 29.5259 24.2077 29.5259 24.2033C29.5259 24.1988 29.5259 24.1943 29.5259 24.1898C29.5259 24.1853 29.5259 24.1808 29.5259 24.1763C29.5259 24.1718 29.5259 24.1672 29.5259 24.1627C29.5259 24.1581 29.5259 24.1536 29.5259 24.149C29.5259 24.1444 29.5259 24.1398 29.5259 24.1352C29.5259 24.1306 29.5259 24.126 29.5259 24.1213C29.5259 24.1167 29.5259 24.1121 29.5259 24.1074C29.5259 24.1027 29.5259 24.098 29.5259 24.0933C29.5259 24.0887 29.5259 24.084 29.5259 24.0792C29.5259 24.0745 29.5259 24.0698 29.5259 24.065C29.5259 24.0603 29.5259 24.0555 29.5259 24.0507C29.5259 24.046 29.5259 24.0412 29.5259 24.0364C29.5259 24.0316 29.5259 24.0267 29.5259 24.0219C29.5259 24.0171 29.5259 24.0122 29.5259 24.0074C29.5259 24.0025 29.5259 23.9976 29.5259 23.9927C29.5259 23.9879 29.5259 23.983 29.5259 23.978C29.5259 23.9731 29.5259 23.9682 29.5259 23.9633C29.5259 23.9583 29.5259 23.9534 29.5259 23.9484C29.5259 23.9434 29.5259 23.9384 29.5259 23.9334C29.5259 23.9284 29.5259 23.9234 29.5259 23.9184C29.5259 23.9134 29.5259 23.9084 29.5259 23.9033C29.5259 23.8983 29.5259 23.8932 29.5259 23.8881C29.5259 23.883 29.5259 23.878 29.5259 23.8729C29.5259 23.8678 29.5259 23.8626 29.5259 23.8575C29.5259 23.8524 29.5259 23.8472 29.5259 23.8421C29.5259 23.8369 29.5259 23.8318 29.5259 23.8266C29.5259 23.8214 29.5259 23.8162 29.5259 23.811C29.5259 23.8058 29.5259 23.8006 29.5259 23.7954C29.5259 23.7901 29.5259 23.7849 29.5259 23.7796C29.5259 23.7744 29.5259 23.7691 29.5259 23.7638C29.5259 23.7585 29.5259 23.7532 29.5259 23.7479C29.5259 23.7426 29.5259 23.7373 29.5259 23.732C29.5259 23.7266 29.5259 23.7213 29.5259 23.7159C29.5259 23.7106 29.5259 23.7052 29.5259 23.6998C29.5259 23.6944 29.5259 23.689 29.5259 23.6836C29.5259 23.6782 29.5259 23.6728 29.5259 23.6674C29.5259 23.6619 29.5259 23.6565 29.5259 23.651C29.5259 23.6456 29.5259 23.6401 29.5259 23.6346C29.5259 23.6291 29.5259 23.6236 29.5259 23.6181C29.5259 23.6126 29.5259 23.6071 29.5259 23.6016C29.5259 23.596 29.5259 23.5905 29.5259 23.5849C29.5259 23.5794 29.5259 23.5738 29.5259 23.5682C29.5259 23.5627 29.5259 23.5571 29.5259 23.5515C29.5259 23.5459 29.5259 23.5402 29.5259 23.5346C29.5259 23.529 29.5259 23.5234 29.5259 23.5177C29.5259 23.5121 29.5259 23.5064 29.5259 23.5007C29.5259 23.495 29.5259 23.4894 29.5259 23.4837C29.5259 23.478 29.5259 23.4723 29.5259 23.4665C29.5259 23.4608 29.5259 23.4551 29.5259 23.4493C29.5259 23.4436 29.5259 23.4378 29.5259 23.4321C29.5259 23.4263 29.5259 23.4205 29.5259 23.4147C29.5259 23.4089 29.5259 23.4031 29.5259 23.3973C29.5259 23.3915 29.5259 23.3857 29.5259 23.3799C29.5259 23.374 29.5259 23.3682 29.5259 23.3623C29.5259 23.3565 29.5259 23.3506 29.5259 23.3447C29.5259 23.3388 29.5259 23.3329 29.5259 23.327C29.5259 23.3211 29.5259 23.3152 29.5259 23.3093C29.5259 23.3034 29.5259 23.2974 29.5259 23.2915C29.5259 23.2855 29.5259 23.2796 29.5259 23.2736C29.5259 23.2676 29.5259 23.2617 29.5259 23.2557C29.5259 23.2497 29.5259 23.2437 29.5259 23.2377C29.5259 23.2317 29.5259 23.2256 29.5259 23.2196C29.5259 23.2136 29.5259 23.2075 29.5259 23.2015C29.5259 23.1954 29.5259 23.1893 29.5259 23.1833C29.5259 23.1772 29.5259 23.1711 29.5259 23.165C29.5259 23.1589 29.5259 23.1528 29.5259 23.1467C29.5259 23.1406 29.5259 23.1344 29.5259 23.1283C29.5259 23.1222 29.5259 23.116 29.5259 23.1098C29.5259 23.1037 29.5259 23.0975 29.5259 23.0913C29.5259 23.0852 29.5259 23.079 29.5259 23.0728C29.5259 23.0666 29.5259 23.0603 29.5259 23.0541C29.5259 23.0479 29.5259 23.0417 29.5259 23.0354C29.5259 23.0292 29.5259 23.0229 29.5259 23.0167C29.5259 23.0104 29.5259 23.0041 29.5259 22.9978C29.5259 22.9916 29.5259 22.9853 29.5259 22.979C29.5259 22.9727 29.5259 22.9664 29.5259 22.96C29.5259 22.9537 29.5259 22.9474 29.5259 22.941C29.5259 22.9347 29.5259 22.9283 29.5259 22.922C29.5259 22.9156 29.5259 22.9092 29.5259 22.9029C29.5259 22.8965 29.5259 22.8901 29.5259 22.8837C29.5259 22.8773 29.5259 22.8709 29.5259 22.8645C29.5259 22.858 29.5259 22.8516 29.5259 22.8452C29.5259 22.8387 29.5259 22.8323 29.5259 22.8258C29.5259 22.8194 29.5259 22.8129 29.5259 22.8064C29.5259 22.7999 29.5259 22.7935 29.5259 22.787C29.5259 22.7805 29.5259 22.774 29.5259 22.7674C29.5259 22.7609 29.5259 22.7544 29.5259 22.7479C29.5259 22.7413 29.5259 22.7348 29.5259 22.7283C29.5259 22.7217 29.5259 22.7151 29.5259 22.7086C29.5259 22.702 29.5259 22.6954 29.5259 22.6888C29.5259 22.6822 29.5259 22.6757 29.5259 22.669C29.5259 22.6624 29.5259 22.6558 29.5259 22.6492C29.5259 22.6426 29.5259 22.6359 29.5259 22.6293C29.5259 22.6227 29.5259 22.616 29.5259 22.6094C29.5259 22.6027 29.5259 22.596 29.5259 22.5894C29.5259 22.5827 29.5259 22.576 29.5259 22.5693C29.5259 22.5626 29.5259 22.5559 29.5259 22.5492C29.5259 22.5425 29.5259 22.5358 29.5259 22.529C29.5259 22.5223 29.5259 22.5156 29.5259 22.5088C29.5259 22.5021 29.5259 22.4953 29.5259 22.4886C29.5259 22.4818 29.5259 22.475 29.5259 22.4683C29.5259 22.4615 29.5259 22.4547 29.5259 22.4479C29.5259 22.4411 29.5259 22.4343 29.5259 22.4275C29.5259 22.4207 29.5259 22.4139 29.5259 22.407C29.5259 22.4002 29.5259 22.3934 29.5259 22.3865C29.5259 22.3797 29.5259 22.3728 29.5259 22.366C29.5259 22.3591 29.5259 22.3522 29.5259 22.3454C29.5259 22.3385 29.5259 22.3316 29.5259 22.3247C29.5259 22.3178 29.5259 22.3109 29.5259 22.304C29.5259 22.2971 29.5259 22.2902 29.5259 22.2833C29.5259 22.2763 29.5259 22.2694 29.5259 22.2625C29.5259 22.2555 29.5259 22.2486 29.5259 22.2416C29.5259 22.2347 29.5259 22.2277 29.5259 22.2207C29.5259 22.2138 29.5259 22.2068 29.5259 22.1998C29.5259 22.1928 29.5259 22.1858 29.5259 22.1788C29.5259 22.1718 29.5259 22.1648 29.5259 22.1578C29.5259 22.1508 29.5259 22.1438 29.5259 22.1367C29.5259 22.1297 29.5259 22.1227 29.5259 22.1156C29.5259 22.1086 29.5259 22.1015 29.5259 22.0945C29.5259 22.0874 29.5259 22.0803 29.5259 22.0733C29.5259 22.0662 29.5259 22.0591 29.5259 22.052C29.5259 22.0449 29.5259 22.0379 29.5259 22.0308C29.5259 22.0236 29.5259 22.0165 29.5259 22.0094C29.5259 22.0023 29.5259 21.9952 29.5259 21.9881C29.5259 21.9809 29.5259 21.9738 29.5259 21.9666C29.5259 21.9595 29.5259 21.9524 29.5259 21.9452C29.5259 21.938 29.5259 21.9309 29.5259 21.9237C29.5259 21.9165 29.5259 21.9094 29.5259 21.9022C29.5259 21.895 29.5259 21.8878 29.5259 21.8806C29.5259 21.8734 29.5259 21.8662 29.5259 21.859C29.5259 21.8518 29.5259 21.8446 29.5259 21.8373C29.5259 21.8301 29.5259 21.8229 29.5259 21.8156C29.5259 21.8084 29.5259 21.8012 29.5259 21.7939C29.5259 21.7867 29.5259 21.7794 29.5259 21.7722C29.5259 21.7649 29.5259 21.7576 29.5259 21.7503C29.5259 21.7431 29.5259 21.7358 29.5259 21.7285C29.5259 21.7212 29.5259 21.7139 29.5259 21.7066C29.5259 21.6993 29.5259 21.692 29.5259 21.6847C29.5259 21.6774 29.5259 21.6701 29.5259 21.6628C29.5259 21.6554 29.5259 21.6481 29.5259 21.6408C29.5259 21.6334 29.5259 21.6261 29.5259 21.6187C29.5259 21.6114 29.5259 21.604 29.5259 21.5967C29.5259 21.5893 29.5259 21.582 29.5259 21.5746C29.5259 21.5672 29.5259 21.5598 29.5259 21.5525C29.5259 21.5451 29.5259 21.5377 29.5259 21.5303C29.5259 21.5229 29.5259 21.5155 29.5259 21.5081C29.5259 21.5007 29.5259 21.4933 29.5259 21.4859C29.5259 21.4785 29.5259 21.471 29.5259 21.4636C29.5259 21.4562 29.5259 21.4487 29.5259 21.4413C29.5259 21.4339 29.5259 21.4264 29.5259 21.419C29.5259 21.4115 29.5259 21.4041 29.5259 21.3966C29.5259 21.3892 29.5259 21.3817 29.5259 21.3742C29.5259 21.3668 29.5259 21.3593 29.5259 21.3518C29.5259 21.3443 29.5259 21.3368 29.5259 21.3294C29.5259 21.3219 29.5259 21.3144 29.5259 21.3069C29.5259 21.2994 29.5259 21.2919 29.5259 21.2844C29.5259 21.2768 29.5259 21.2693 29.5259 21.2618C29.5259 21.2543 29.5259 21.2468 29.5259 21.2392C29.5259 21.2317 29.5259 21.2242 29.5259 21.2166C29.5259 21.2091 29.5259 21.2016 29.5259 21.194C29.5259 21.1865 29.5259 21.1789 29.5259 21.1713C29.5259 21.1638 29.5259 21.1562 29.5259 21.1487C29.5259 21.1411 29.5259 21.1335 29.5259 21.1259C29.5259 21.1184 29.5259 21.1108 29.5259 21.1032C29.5259 21.0956 29.5259 21.088 29.5259 21.0804C29.5259 21.0728 29.5259 21.0652 29.5259 21.0576C29.5259 21.05 29.5259 21.0424 29.5259 21.0348C29.5259 21.0272 29.5259 21.0196 29.5259 21.012C29.5259 21.0043 29.5259 20.9967 29.5259 20.9891C29.5259 20.9815 29.5259 20.9738 29.5259 20.9662C29.5259 20.9586 29.5259 20.9509 29.5259 20.9433C29.5259 20.9356 29.5259 20.928 29.5259 20.9203C29.5259 20.9127 29.5259 20.905 29.5259 20.8974C29.5259 20.8897 29.5259 20.882 29.5259 20.8744C29.5259 20.8667 29.5259 20.859 29.5259 20.8514C29.5259 20.8437 29.5259 20.836 29.5259 20.8283C29.5259 20.8206 29.5259 20.8129 29.5259 20.8053C29.5259 20.7976 29.5259 20.7899 29.5259 20.7822C29.5259 20.7745 29.5259 20.7668 29.5259 20.7591C29.5259 20.7514 29.5259 20.7437 29.5259 20.7359C29.5259 20.7282 29.5259 20.7205 29.5259 20.7128C29.5259 20.7051 29.5259 20.6974 29.5259 20.6896C29.5259 20.6819 29.5259 20.6742 29.5259 20.6664C29.5259 20.6587 29.5259 20.651 29.5259 20.6432C29.5259 20.6355 29.5259 20.6278 29.5259 20.62C29.5259 20.6123 29.5259 20.6045 29.5259 20.5968C29.5259 20.589 29.5259 20.5813 29.5259 20.5735C29.5259 20.5657 29.5259 20.558 29.5259 20.5502C29.5259 20.5425 29.5259 20.5347 29.5259 20.5269C29.5259 20.5191 29.5259 20.5114 29.5259 20.5036C29.5259 20.4958 29.5259 20.488 29.5259 20.4803C29.5259 20.4725 29.5259 20.4647 29.5259 20.4569C29.5259 20.4491 29.5259 20.4413 29.5259 20.4335C29.5259 20.4258 29.5259 20.418 29.5259 20.4102C29.5259 20.4024 29.5259 20.3946 29.5259 20.3868C29.5259 20.379 29.5259 20.3712 29.5259 20.3633C29.5259 20.3555 29.5259 20.3477 29.5259 20.3399C29.5259 20.3321 29.5259 20.3243 29.5259 20.3165C29.5259 20.3087 29.5259 20.3008 29.5259 20.293C29.5259 20.2852 29.5259 20.2774 29.5259 20.2695C29.5259 20.2617 29.5259 20.2539 29.5259 20.2461C29.5259 20.2382 29.5259 20.2304 29.5259 20.2226C29.5259 20.2147 29.5259 20.2069 29.5259 20.199C29.5259 20.1912 29.5259 20.1834 29.5259 20.1755C29.5259 20.1677 29.5259 20.1598 29.5259 20.152C29.5259 20.1441 29.5259 20.1363 29.5259 20.1284C29.5259 20.1206 29.5259 20.1127 29.5259 20.1049C29.5259 20.097 29.5259 20.0892 29.5259 20.0813C29.5259 20.0735 29.5259 20.0656 29.5259 20.0577C29.5259 20.0499 29.5259 20.042 29.5259 20.0341C29.5259 20.0263 29.5259 20.0184 29.5259 20.0105C29.5259 20.0027 29.5259 19.9948 29.5259 19.9869C29.5259 19.9791 29.5259 19.9712 29.5259 19.9633C29.5259 19.9554 29.5259 19.9476 29.5259 19.9397C29.5259 19.9318 29.5259 19.9239 29.5259 19.9161C29.5259 19.9082 29.5259 19.9003 29.5259 19.8924C29.5259 19.8845 29.5259 19.8766 29.5259 19.8688C29.5259 19.8609 29.5259 19.853 29.5259 19.8451C29.5259 19.8372 29.5259 19.8293 29.5259 19.8214C29.5259 19.8135 29.5259 19.8057 29.5259 19.7978C29.5259 19.7899 29.5259 19.782 29.5259 19.7741C29.5259 19.7662 29.5259 19.7583 29.5259 19.7504C29.5259 19.7425 29.5259 19.7346 29.5259 19.7267C29.5259 19.7188 29.5259 19.7109 29.5259 19.703C29.5259 19.6951 29.5259 19.6872 29.5259 19.6793C29.5259 19.6714 29.5259 19.6635 29.5259 19.6556C29.5259 19.6477 29.5259 19.6398 29.5259 19.6319C29.5259 19.624 29.5259 19.6161 29.5259 19.6082C29.5259 19.6003 29.5259 19.5924 29.5259 19.5845C29.5259 19.5766 29.5259 19.5687 29.5259 19.5608C29.5259 19.5529 29.5259 19.545 29.5259 19.5371C29.5259 19.5292 29.5259 19.5213 29.5259 19.5133C29.5259 19.5054 29.5259 19.4975 29.5259 19.4896C29.5259 19.4817 29.5259 19.4738 29.5259 19.4659C29.5259 19.458 29.5259 19.4501 29.5259 19.4422C29.5259 19.4343 29.5259 19.4264 29.5259 19.4185C29.5259 19.4105 29.5259 19.4026 29.5259 19.3947C29.5259 19.3868 29.5259 19.3789 29.5259 19.371C29.5259 19.3631 29.5259 19.3552 29.5259 19.3473C29.5259 19.3394 29.5259 19.3315 29.5259 19.3236C29.5259 19.3157 29.5259 19.3078 29.5259 19.2998C29.5259 19.2919 29.5259 19.284 29.5259 19.2761C29.5259 19.2682 29.5259 19.2603 29.5259 19.2524C29.5259 19.2445 29.5259 19.2366 29.5259 19.2287C29.5259 19.2208 29.5259 19.2129 29.5259 19.205C29.5259 19.1971 29.5259 19.1892 29.5259 19.1813C29.5259 19.1734 29.5259 19.1655 29.5259 19.1576C29.5259 19.1497 29.5259 19.1418 29.5259 19.1339C29.5259 19.126 29.5259 19.1181 29.5259 19.1102C29.5259 19.1023 29.5259 19.0944 29.5259 19.0865C29.5259 19.0786 29.5259 19.0707 29.5259 19.0628C29.5259 19.0549 29.5259 19.047 29.5259 19.0391C29.5259 19.0312 29.5259 19.0233 29.5259 19.0154C29.5259 19.0075 29.5259 18.9997 29.5259 18.9918C29.5259 18.9839 29.5259 18.976 29.5259 18.9681C29.5259 18.9602 29.5259 18.9523 29.5259 18.9445C29.5259 18.9366 29.5259 18.9287 29.5259 18.9208C29.5259 18.9129 29.5259 18.905 29.5259 18.8972C29.5259 18.8893 29.5259 18.8814 29.5259 18.8735C29.5259 18.8657 29.5259 18.8578 29.5259 18.8499C29.5259 18.842 29.5259 18.8342 29.5259 18.8263C29.5259 18.8184 29.5259 18.8105 29.5259 18.8027C29.5259 18.7948 29.5259 18.7869 29.5259 18.7791C29.5259 18.7712 29.5259 18.7634 29.5259 18.7555C29.5259 18.7476 29.5259 18.7398 29.5259 18.7319C29.5259 18.7241 29.5259 18.7162 29.5259 18.7084C29.5259 18.7005 29.5259 18.6926 29.5259 18.6848C29.5259 18.6769 29.5259 18.6691 29.5259 18.6613C29.5259 18.6534 29.5259 18.6456 29.5259 18.6377C29.5259 18.6299 29.5259 18.622 29.5259 18.6142C29.5259 18.6064 29.5259 18.5985 29.5259 18.5907C29.5259 18.5829 29.5259 18.575 29.5259 18.5672C29.5259 18.5594 29.5259 18.5515 29.5259 18.5437C29.5259 18.5359 29.5259 18.5281 29.5259 18.5202C29.5259 18.5124 29.5259 18.5046 29.5259 18.4968C29.5259 18.489 29.5259 18.4812 29.5259 18.4734C29.5259 18.4655 29.5259 18.4577 29.5259 18.4499C29.5259 18.4421 29.5259 18.4343 29.5259 18.4265C29.5259 18.4187 29.5259 18.4109 29.5259 18.4031C29.5259 18.3953 29.5259 18.3875 29.5259 18.3797C29.5259 18.3719 29.5259 18.3642 29.5259 18.3564C29.5259 18.3486 29.5259 18.3408 29.5259 18.333C29.5259 18.3252 29.5259 18.3175 29.5259 18.3097C29.5259 18.3019 29.5259 18.2942 29.5259 18.2864C29.5259 18.2786 29.5259 18.2709 29.5259 18.2631C29.5259 18.2553 29.5259 18.2476 29.5259 18.2398C29.5259 18.2321 29.5259 18.2243 29.5259 18.2166C29.5259 18.2088 29.5259 18.2011 29.5259 18.1933C29.5259 18.1856 29.5259 18.1778 29.5259 18.1701C29.5259 18.1624 29.5259 18.1546 29.5259 18.1469C29.5259 18.1392 29.5259 18.1314 29.5259 18.1237C29.5259 18.116 29.5259 18.1083 29.5259 18.1005C29.5259 18.0928 29.5259 18.0851 29.5259 18.0774C29.5259 18.0697 29.5259 18.062 29.5259 18.0543C29.5259 18.0466 29.5259 18.0389 29.5259 18.0312C29.5259 18.0235 29.5259 18.0158 29.5259 18.0081C29.5259 18.0004 29.5259 17.9927 29.5259 17.9851C29.5259 17.9774 29.5259 17.9697 29.5259 17.962C29.5259 17.9544 29.5259 17.9467 29.5259 17.939C29.5259 17.9314 29.5259 17.9237 29.5259 17.916C29.5259 17.9084 29.5259 17.9007 29.5259 17.8931C29.5259 17.8854 29.5259 17.8778 29.5259 17.8701C29.5259 17.8625 29.5259 17.8548 29.5259 17.8472C29.5259 17.8396 29.5259 17.8319 29.5259 17.8243C29.5259 17.8167 29.5259 17.8091 29.5259 17.8015C29.5259 17.7938 29.5259 17.7862 29.5259 17.7786C29.5259 17.771 29.5259 17.7634 29.5259 17.7558C29.5259 17.7482 29.5259 17.7406 29.5259 17.733C29.5259 17.7254 29.5259 17.7178 29.5259 17.7103C29.5259 17.7027 29.5259 17.6951 29.5259 17.6875C29.5259 17.6799 29.5259 17.6724 29.5259 17.6648C29.5259 17.6572 29.5259 17.6497 29.5259 17.6421C29.5259 17.6346 29.5259 17.627 29.5259 17.6195C29.5259 17.6119 29.5259 17.6044 29.5259 17.5969C29.5259 17.5893 29.5259 17.5818 29.5259 17.5743C29.5259 17.5667 29.5259 17.5592 29.5259 17.5517C29.5259 17.5442 29.5259 17.5367 29.5259 17.5292C29.5259 17.5217 29.5259 17.5142 29.5259 17.5067C29.5259 17.4992 29.5259 17.4917 29.5259 17.4842C29.5259 17.4767 29.5259 17.4692 29.5259 17.4617C29.5259 17.4543 29.5259 17.4468 29.5259 17.4393C29.5259 17.4319 29.5259 17.4244 29.5259 17.4169C29.5259 17.4095 29.5259 17.402 29.5259 17.3946C29.5259 17.3871 29.5259 17.3797 29.5259 17.3723C29.5259 17.3648 29.5259 17.3574 29.5259 17.35C29.5259 17.3426 29.5259 17.3351 29.5259 17.3277C29.5259 17.3203 29.5259 17.3129 29.5259 17.3055C29.5259 17.2981 29.5259 17.2907 29.5259 17.2833C29.5259 17.2759 29.5259 17.2685 29.5259 17.2612C29.5259 17.2538 29.5259 17.2464 29.5259 17.239C29.5259 17.2317 29.5259 17.2243 29.5259 17.217C29.5259 17.2096 29.5259 17.2023 29.5259 17.1949C29.5259 17.1876 29.5259 17.1802 29.5259 17.1729C29.5259 17.1656 29.5259 17.1582 29.5259 17.1509C29.5259 17.1436 29.5259 17.1363 29.5259 17.129C29.5259 17.1217 29.5259 17.1144 29.5259 17.1071C29.5259 17.0998 29.5259 17.0925 29.5259 17.0852C29.5259 17.0779 29.5259 17.0706 29.5259 17.0634C29.5259 17.0561 29.5259 17.0488 29.5259 17.0416C29.5259 17.0343 29.5259 17.0271 29.5259 17.0198C29.5259 17.0126 29.5259 17.0053 29.5259 16.9981C29.5259 16.9909 29.5259 16.9836 29.5259 16.9764C29.5259 16.9692 29.5259 16.962 29.5259 16.9548C29.5259 16.9476 29.5259 16.9404 29.5259 16.9332C29.5259 16.926 29.5259 16.9188 29.5259 16.9116C29.5259 16.9044 29.5259 16.8973 29.5259 16.8901C29.5259 16.8829 29.5259 16.8758 29.5259 16.8686C29.5259 16.8615 29.5259 16.8543 29.5259 16.8472C29.5259 16.84 29.5259 16.8329 29.5259 16.8258C29.5259 16.8187 29.5259 16.8115 29.5259 16.8044C29.5259 16.7973 29.5259 16.7902 29.5259 16.7831C29.5259 16.776 29.5259 16.7689 29.5259 16.7618C29.5259 16.7547 29.5259 16.7477 29.5259 16.7406C29.5259 16.7335 29.5259 16.7265 29.5259 16.7194C29.5259 16.7124 29.5259 16.7053 29.5259 16.6983C29.5259 16.6912 29.5259 16.6842 29.5259 16.6772C29.5259 16.6702 29.5259 16.6631 29.5259 16.6561C29.5259 16.6491 29.5259 16.6421 29.5259 16.6351C29.5259 16.6281 29.5259 16.6211 29.5259 16.6141C29.5259 16.6072 29.5259 16.6002 29.5259 16.5932C29.5259 16.5863 29.5259 16.5793 29.5259 16.5724C29.5259 16.5654 29.5259 16.5585 29.5259 16.5515C29.5259 16.5446 29.5259 16.5377 29.5259 16.5307C29.5259 16.5238 29.5259 16.5169 29.5259 16.51C29.5259 16.5031 29.5259 16.4962 29.5259 16.4893C29.5259 16.4824 29.5259 16.4756 29.5259 16.4687C29.5259 16.4618 29.5259 16.4549 29.5259 16.4481C29.5259 16.4412 29.5259 16.4344 29.5259 16.4275C29.5259 16.4207 29.5259 16.4139 29.5259 16.4071C29.5259 16.4002 29.5259 16.3934 29.5259 16.3866C29.5259 16.3798 29.5259 16.373 29.5259 16.3662C29.5259 16.3594 29.5259 16.3526 29.5259 16.3459C29.5259 16.3391 29.5259 16.3323 29.5259 16.3256C29.5259 16.3188 29.5259 16.3121 29.5259 16.3053C29.5259 16.2986 29.5259 16.2919 29.5259 16.2851C29.5259 16.2784 29.5259 16.2717 29.5259 16.265C29.5259 16.2583 29.5259 16.2516 29.5259 16.2449C29.5259 16.2382 29.5259 16.2315 29.5259 16.2249C29.5259 16.2182 29.5259 16.2115 29.5259 16.2049C29.5259 16.1982 29.5259 16.1916 29.5259 16.1849C29.5259 16.1783 29.5259 16.1717 29.5259 16.165C29.5259 16.1584 29.5259 16.1518 29.5259 16.1452C29.5259 16.1386 29.5259 16.132 29.5259 16.1254C29.5259 16.1189 29.5259 16.1123 29.5259 16.1057C29.5259 16.0992 29.5259 16.0926 29.5259 16.0861C29.5259 16.0795 29.5259 16.073 29.5259 16.0664C29.5259 16.0599 29.5259 16.0534 29.5259 16.0469C29.5259 16.0404 29.5259 16.0339 29.5259 16.0274C29.5259 16.0209 29.5259 16.0144 29.5259 16.008C29.5259 16.0015 29.5259 15.995 29.5259 15.9886C29.5259 15.9821 29.5259 15.9757 29.5259 15.9692C29.5259 15.9628 29.5259 15.9564 29.5259 15.95C29.5259 15.9435 29.5259 15.9371 29.5259 15.9307C29.5259 15.9244 29.5259 15.918 29.5259 15.9116C29.5259 15.9052 29.5259 15.8988 29.5259 15.8925C29.5259 15.8861 29.5259 15.8798 29.5259 15.8734C29.5259 15.8671 29.5259 15.8608 29.5259 15.8545C29.5259 15.8482 29.5259 15.8418 29.5259 15.8355C29.5259 15.8292 29.5259 15.823 29.5259 15.8167C29.5259 15.8104 29.5259 15.8041 29.5259 15.7979C29.5259 15.7916 29.5259 15.7854 29.5259 15.7791C29.5259 15.7729 29.5259 15.7667 29.5259 15.7605C29.5259 15.7542 29.5259 15.748 29.5259 15.7418C29.5259 15.7356 29.5259 15.7295 29.5259 15.7233C29.5259 15.7171 29.5259 15.7109 29.5259 15.7048C29.5259 15.6986 29.5259 15.6925 29.5259 15.6864C29.5259 15.6802 29.5259 15.6741 29.5259 15.668C29.5259 15.6619 29.5259 15.6558 29.5259 15.6497C29.5259 15.6436 29.5259 15.6375 29.5259 15.6314C29.5259 15.6254 29.5259 15.6193 29.5259 15.6133C29.5259 15.6072 29.5259 15.6012 29.5259 15.5951C29.5259 15.5891 29.5259 15.5831 29.5259 15.5771C29.5259 15.5711 29.5259 15.5651 29.5259 15.5591C29.5259 15.5531 29.5259 15.5471 29.5259 15.5412C29.5259 15.5352 29.5259 15.5293 29.5259 15.5233C29.5259 15.5174 29.5259 15.5114 29.5259 15.5055C29.5259 15.4996 29.5259 15.4937 29.5259 15.4878C29.5259 15.4819 29.5259 15.476 29.5259 15.4702C29.5259 15.4643 29.5259 15.4584 29.5259 15.4526C29.5259 15.4467 29.5259 15.4409 29.5259 15.435C29.5259 15.4292 29.5259 15.4234 29.5259 15.4176C29.5259 15.4118 29.5259 15.406 29.5259 15.4002C29.5259 15.3944 29.5259 15.3886 29.5259 15.3829C29.5259 15.3771 29.5259 15.3714 29.5259 15.3656C29.5259 15.3599 29.5259 15.3542 29.5259 15.3485C29.5259 15.3427 29.5259 15.337 29.5259 15.3314C29.5259 15.3257 29.5259 15.32 29.5259 15.3143C29.5259 15.3086 29.5259 15.303 29.5259 15.2973C29.5259 15.2917 29.5259 15.2861 29.5259 15.2805C29.5259 15.2748 29.5259 15.2692 29.5259 15.2636C29.5259 15.258 29.5259 15.2524 29.5259 15.2469C29.5259 15.2413 29.5259 15.2357 29.5259 15.2302C29.5259 15.2246 29.5259 15.2191 29.5259 15.2136C29.5259 15.2081 29.5259 15.2025 29.5259 15.197C29.5259 15.1915 29.5259 15.1861 29.5259 15.1806C29.5259 15.1751 29.5259 15.1696 29.5259 15.1642C29.5259 15.1587 29.5259 15.1533 29.5259 15.1479C29.5259 15.1424 29.5259 15.137 29.5259 15.1316C29.5259 15.1262 29.5259 15.1208 29.5259 15.1155C29.5259 15.1101 29.5259 15.1047 29.5259 15.0994C29.5259 15.094 29.5259 15.0887 29.5259 15.0834C29.5259 15.078 29.5259 15.0727 29.5259 15.0674C29.5259 15.0621 29.5259 15.0568 29.5259 15.0515C29.5259 15.0463 29.5259 15.041 29.5259 15.0358C29.5259 15.0305 29.5259 15.0253 29.5259 15.02C29.5259 15.0148 29.5259 15.0096 29.5259 15.0044C29.5259 14.9992 29.5259 14.994 29.5259 14.9889C29.5259 14.9837 29.5259 14.9785 29.5259 14.9734C29.5259 14.9682 29.5259 14.9631 29.5259 14.958C29.5259 14.9528 29.5259 14.9477 29.5259 14.9426C29.5259 14.9376 29.5259 14.9325 29.5259 14.9274C29.5259 14.9223 29.5259 14.9173 29.5259 14.9122C29.5259 14.9072 29.5259 14.9022 29.5259 14.8972C29.5259 14.8921 29.5259 14.8871 29.5259 14.8821C29.5259 14.8772 29.5259 14.8722 29.5259 14.8672C29.5259 14.8623 29.5259 14.8573 29.5259 14.8524C29.5259 14.8474 29.5259 14.8425 29.5259 14.8376C29.5259 14.8327 29.5259 14.8278 29.5259 14.8229C29.5259 14.8181 29.5259 14.8132 29.5259 14.8083C29.5259 14.8035 29.5259 14.7986 29.5259 14.7938C29.5259 14.789 29.5259 14.7842 29.5259 14.7794C29.5259 14.7746 29.5259 14.7698 29.5259 14.765C29.5259 14.7603 29.5259 14.7555 29.5259 14.7508C29.5259 14.746 29.5259 14.7413 29.5259 14.7366C29.5259 14.7319 29.5259 14.7272 29.5259 14.7225C29.5259 14.7178 29.5259 14.7131 29.5259 14.7085C29.5259 14.7038 29.5259 14.6992 29.5259 14.6945C29.5259 14.6899 29.5259 14.6853 29.5259 14.6807C29.5259 14.6761 29.5259 14.6715 29.5259 14.6669C29.5259 14.6624 29.5259 14.6578 29.5259 14.6533C29.5259 14.6487 29.5259 14.6442 29.5259 14.6397C29.5259 14.6352 29.5259 14.6307 29.5259 14.6262C29.5259 14.6217 29.5259 14.6172 29.5259 14.6128C29.5259 14.6083 29.5259 14.6039 29.5259 14.5995C29.5259 14.595 29.5259 14.5906 29.5259 14.5862C29.5259 14.5818 29.5259 14.5774 29.5259 14.5731C29.5259 14.5687 29.5259 14.5643 29.5259 14.56C29.5259 14.5557 29.5259 14.5513 29.5259 14.547C29.5259 14.5427 29.5259 14.5384 29.5259 14.5342C29.5259 14.5299 29.5259 14.5256 29.5259 14.5214C29.5259 14.5171 29.5259 14.5129 29.5259 14.5087C29.5259 14.5044 29.5259 14.5002 29.5259 14.4961C29.5259 14.4919 29.5259 14.4877 29.5259 14.4835C29.5259 14.4794 29.5259 14.4752 29.5259 14.4711C29.5259 14.467 29.5259 14.4629 29.5259 14.4588C29.5259 14.4547 29.5259 14.4506 29.5259 14.4465C29.5259 14.4425 29.5259 14.4384 29.5259 14.4344C29.5259 14.4303 29.5259 14.4263 29.5259 14.4223C29.5259 14.4183 29.5259 14.4143 29.5259 14.4103C29.5259 14.4064 29.5259 14.4024 29.5259 14.3985C29.5259 14.3945 29.5259 14.3906 29.5259 14.3867C29.5259 14.3828 29.5259 14.3789 29.5259 14.375H29.0259C29.0259 14.3789 29.0259 14.3828 29.0259 14.3867C29.0259 14.3906 29.0259 14.3945 29.0259 14.3985C29.0259 14.4024 29.0259 14.4064 29.0259 14.4103C29.0259 14.4143 29.0259 14.4183 29.0259 14.4223C29.0259 14.4263 29.0259 14.4303 29.0259 14.4344C29.0259 14.4384 29.0259 14.4425 29.0259 14.4465C29.0259 14.4506 29.0259 14.4547 29.0259 14.4588C29.0259 14.4629 29.0259 14.467 29.0259 14.4711C29.0259 14.4752 29.0259 14.4794 29.0259 14.4835C29.0259 14.4877 29.0259 14.4919 29.0259 14.4961C29.0259 14.5002 29.0259 14.5044 29.0259 14.5087C29.0259 14.5129 29.0259 14.5171 29.0259 14.5214C29.0259 14.5256 29.0259 14.5299 29.0259 14.5342C29.0259 14.5384 29.0259 14.5427 29.0259 14.547C29.0259 14.5513 29.0259 14.5557 29.0259 14.56C29.0259 14.5643 29.0259 14.5687 29.0259 14.5731C29.0259 14.5774 29.0259 14.5818 29.0259 14.5862C29.0259 14.5906 29.0259 14.595 29.0259 14.5995C29.0259 14.6039 29.0259 14.6083 29.0259 14.6128C29.0259 14.6172 29.0259 14.6217 29.0259 14.6262C29.0259 14.6307 29.0259 14.6352 29.0259 14.6397C29.0259 14.6442 29.0259 14.6487 29.0259 14.6533C29.0259 14.6578 29.0259 14.6624 29.0259 14.6669C29.0259 14.6715 29.0259 14.6761 29.0259 14.6807C29.0259 14.6853 29.0259 14.6899 29.0259 14.6945C29.0259 14.6992 29.0259 14.7038 29.0259 14.7085C29.0259 14.7131 29.0259 14.7178 29.0259 14.7225C29.0259 14.7272 29.0259 14.7319 29.0259 14.7366C29.0259 14.7413 29.0259 14.746 29.0259 14.7508C29.0259 14.7555 29.0259 14.7603 29.0259 14.765C29.0259 14.7698 29.0259 14.7746 29.0259 14.7794C29.0259 14.7842 29.0259 14.789 29.0259 14.7938C29.0259 14.7986 29.0259 14.8035 29.0259 14.8083C29.0259 14.8132 29.0259 14.8181 29.0259 14.8229C29.0259 14.8278 29.0259 14.8327 29.0259 14.8376C29.0259 14.8425 29.0259 14.8474 29.0259 14.8524C29.0259 14.8573 29.0259 14.8623 29.0259 14.8672C29.0259 14.8722 29.0259 14.8772 29.0259 14.8821C29.0259 14.8871 29.0259 14.8921 29.0259 14.8972C29.0259 14.9022 29.0259 14.9072 29.0259 14.9122C29.0259 14.9173 29.0259 14.9223 29.0259 14.9274C29.0259 14.9325 29.0259 14.9376 29.0259 14.9426C29.0259 14.9477 29.0259 14.9528 29.0259 14.958C29.0259 14.9631 29.0259 14.9682 29.0259 14.9734C29.0259 14.9785 29.0259 14.9837 29.0259 14.9889C29.0259 14.994 29.0259 14.9992 29.0259 15.0044C29.0259 15.0096 29.0259 15.0148 29.0259 15.02C29.0259 15.0253 29.0259 15.0305 29.0259 15.0358C29.0259 15.041 29.0259 15.0463 29.0259 15.0515C29.0259 15.0568 29.0259 15.0621 29.0259 15.0674C29.0259 15.0727 29.0259 15.078 29.0259 15.0834C29.0259 15.0887 29.0259 15.094 29.0259 15.0994C29.0259 15.1047 29.0259 15.1101 29.0259 15.1155C29.0259 15.1208 29.0259 15.1262 29.0259 15.1316C29.0259 15.137 29.0259 15.1424 29.0259 15.1479C29.0259 15.1533 29.0259 15.1587 29.0259 15.1642C29.0259 15.1696 29.0259 15.1751 29.0259 15.1806C29.0259 15.1861 29.0259 15.1915 29.0259 15.197C29.0259 15.2025 29.0259 15.2081 29.0259 15.2136C29.0259 15.2191 29.0259 15.2246 29.0259 15.2302C29.0259 15.2357 29.0259 15.2413 29.0259 15.2469C29.0259 15.2524 29.0259 15.258 29.0259 15.2636C29.0259 15.2692 29.0259 15.2748 29.0259 15.2805C29.0259 15.2861 29.0259 15.2917 29.0259 15.2973C29.0259 15.303 29.0259 15.3086 29.0259 15.3143C29.0259 15.32 29.0259 15.3257 29.0259 15.3314C29.0259 15.337 29.0259 15.3427 29.0259 15.3485C29.0259 15.3542 29.0259 15.3599 29.0259 15.3656C29.0259 15.3714 29.0259 15.3771 29.0259 15.3829C29.0259 15.3886 29.0259 15.3944 29.0259 15.4002C29.0259 15.406 29.0259 15.4118 29.0259 15.4176C29.0259 15.4234 29.0259 15.4292 29.0259 15.435C29.0259 15.4409 29.0259 15.4467 29.0259 15.4526C29.0259 15.4584 29.0259 15.4643 29.0259 15.4702C29.0259 15.476 29.0259 15.4819 29.0259 15.4878C29.0259 15.4937 29.0259 15.4996 29.0259 15.5055C29.0259 15.5114 29.0259 15.5174 29.0259 15.5233C29.0259 15.5293 29.0259 15.5352 29.0259 15.5412C29.0259 15.5471 29.0259 15.5531 29.0259 15.5591C29.0259 15.5651 29.0259 15.5711 29.0259 15.5771C29.0259 15.5831 29.0259 15.5891 29.0259 15.5951C29.0259 15.6012 29.0259 15.6072 29.0259 15.6133C29.0259 15.6193 29.0259 15.6254 29.0259 15.6314C29.0259 15.6375 29.0259 15.6436 29.0259 15.6497C29.0259 15.6558 29.0259 15.6619 29.0259 15.668C29.0259 15.6741 29.0259 15.6802 29.0259 15.6864C29.0259 15.6925 29.0259 15.6986 29.0259 15.7048C29.0259 15.7109 29.0259 15.7171 29.0259 15.7233C29.0259 15.7295 29.0259 15.7356 29.0259 15.7418C29.0259 15.748 29.0259 15.7542 29.0259 15.7605C29.0259 15.7667 29.0259 15.7729 29.0259 15.7791C29.0259 15.7854 29.0259 15.7916 29.0259 15.7979C29.0259 15.8041 29.0259 15.8104 29.0259 15.8167C29.0259 15.823 29.0259 15.8292 29.0259 15.8355C29.0259 15.8418 29.0259 15.8482 29.0259 15.8545C29.0259 15.8608 29.0259 15.8671 29.0259 15.8734C29.0259 15.8798 29.0259 15.8861 29.0259 15.8925C29.0259 15.8988 29.0259 15.9052 29.0259 15.9116C29.0259 15.918 29.0259 15.9244 29.0259 15.9307C29.0259 15.9371 29.0259 15.9435 29.0259 15.95C29.0259 15.9564 29.0259 15.9628 29.0259 15.9692C29.0259 15.9757 29.0259 15.9821 29.0259 15.9886C29.0259 15.995 29.0259 16.0015 29.0259 16.008C29.0259 16.0144 29.0259 16.0209 29.0259 16.0274C29.0259 16.0339 29.0259 16.0404 29.0259 16.0469C29.0259 16.0534 29.0259 16.0599 29.0259 16.0664C29.0259 16.073 29.0259 16.0795 29.0259 16.0861C29.0259 16.0926 29.0259 16.0992 29.0259 16.1057C29.0259 16.1123 29.0259 16.1189 29.0259 16.1254C29.0259 16.132 29.0259 16.1386 29.0259 16.1452C29.0259 16.1518 29.0259 16.1584 29.0259 16.165C29.0259 16.1717 29.0259 16.1783 29.0259 16.1849C29.0259 16.1916 29.0259 16.1982 29.0259 16.2049C29.0259 16.2115 29.0259 16.2182 29.0259 16.2249C29.0259 16.2315 29.0259 16.2382 29.0259 16.2449C29.0259 16.2516 29.0259 16.2583 29.0259 16.265C29.0259 16.2717 29.0259 16.2784 29.0259 16.2851C29.0259 16.2919 29.0259 16.2986 29.0259 16.3053C29.0259 16.3121 29.0259 16.3188 29.0259 16.3256C29.0259 16.3323 29.0259 16.3391 29.0259 16.3459C29.0259 16.3526 29.0259 16.3594 29.0259 16.3662C29.0259 16.373 29.0259 16.3798 29.0259 16.3866C29.0259 16.3934 29.0259 16.4002 29.0259 16.4071C29.0259 16.4139 29.0259 16.4207 29.0259 16.4275C29.0259 16.4344 29.0259 16.4412 29.0259 16.4481C29.0259 16.4549 29.0259 16.4618 29.0259 16.4687C29.0259 16.4756 29.0259 16.4824 29.0259 16.4893C29.0259 16.4962 29.0259 16.5031 29.0259 16.51C29.0259 16.5169 29.0259 16.5238 29.0259 16.5307C29.0259 16.5377 29.0259 16.5446 29.0259 16.5515C29.0259 16.5585 29.0259 16.5654 29.0259 16.5724C29.0259 16.5793 29.0259 16.5863 29.0259 16.5932C29.0259 16.6002 29.0259 16.6072 29.0259 16.6141C29.0259 16.6211 29.0259 16.6281 29.0259 16.6351C29.0259 16.6421 29.0259 16.6491 29.0259 16.6561C29.0259 16.6631 29.0259 16.6702 29.0259 16.6772C29.0259 16.6842 29.0259 16.6912 29.0259 16.6983C29.0259 16.7053 29.0259 16.7124 29.0259 16.7194C29.0259 16.7265 29.0259 16.7335 29.0259 16.7406C29.0259 16.7477 29.0259 16.7547 29.0259 16.7618C29.0259 16.7689 29.0259 16.776 29.0259 16.7831C29.0259 16.7902 29.0259 16.7973 29.0259 16.8044C29.0259 16.8115 29.0259 16.8187 29.0259 16.8258C29.0259 16.8329 29.0259 16.84 29.0259 16.8472C29.0259 16.8543 29.0259 16.8615 29.0259 16.8686C29.0259 16.8758 29.0259 16.8829 29.0259 16.8901C29.0259 16.8973 29.0259 16.9044 29.0259 16.9116C29.0259 16.9188 29.0259 16.926 29.0259 16.9332C29.0259 16.9404 29.0259 16.9476 29.0259 16.9548C29.0259 16.962 29.0259 16.9692 29.0259 16.9764C29.0259 16.9836 29.0259 16.9909 29.0259 16.9981C29.0259 17.0053 29.0259 17.0126 29.0259 17.0198C29.0259 17.0271 29.0259 17.0343 29.0259 17.0416C29.0259 17.0488 29.0259 17.0561 29.0259 17.0634C29.0259 17.0706 29.0259 17.0779 29.0259 17.0852C29.0259 17.0925 29.0259 17.0998 29.0259 17.1071C29.0259 17.1144 29.0259 17.1217 29.0259 17.129C29.0259 17.1363 29.0259 17.1436 29.0259 17.1509C29.0259 17.1582 29.0259 17.1656 29.0259 17.1729C29.0259 17.1802 29.0259 17.1876 29.0259 17.1949C29.0259 17.2023 29.0259 17.2096 29.0259 17.217C29.0259 17.2243 29.0259 17.2317 29.0259 17.239C29.0259 17.2464 29.0259 17.2538 29.0259 17.2612C29.0259 17.2685 29.0259 17.2759 29.0259 17.2833C29.0259 17.2907 29.0259 17.2981 29.0259 17.3055C29.0259 17.3129 29.0259 17.3203 29.0259 17.3277C29.0259 17.3351 29.0259 17.3426 29.0259 17.35C29.0259 17.3574 29.0259 17.3648 29.0259 17.3723C29.0259 17.3797 29.0259 17.3871 29.0259 17.3946C29.0259 17.402 29.0259 17.4095 29.0259 17.4169C29.0259 17.4244 29.0259 17.4319 29.0259 17.4393C29.0259 17.4468 29.0259 17.4543 29.0259 17.4617C29.0259 17.4692 29.0259 17.4767 29.0259 17.4842C29.0259 17.4917 29.0259 17.4992 29.0259 17.5067C29.0259 17.5142 29.0259 17.5217 29.0259 17.5292C29.0259 17.5367 29.0259 17.5442 29.0259 17.5517C29.0259 17.5592 29.0259 17.5667 29.0259 17.5743C29.0259 17.5818 29.0259 17.5893 29.0259 17.5969C29.0259 17.6044 29.0259 17.6119 29.0259 17.6195C29.0259 17.627 29.0259 17.6346 29.0259 17.6421C29.0259 17.6497 29.0259 17.6572 29.0259 17.6648C29.0259 17.6724 29.0259 17.6799 29.0259 17.6875C29.0259 17.6951 29.0259 17.7027 29.0259 17.7103C29.0259 17.7178 29.0259 17.7254 29.0259 17.733C29.0259 17.7406 29.0259 17.7482 29.0259 17.7558C29.0259 17.7634 29.0259 17.771 29.0259 17.7786C29.0259 17.7862 29.0259 17.7938 29.0259 17.8015C29.0259 17.8091 29.0259 17.8167 29.0259 17.8243C29.0259 17.8319 29.0259 17.8396 29.0259 17.8472C29.0259 17.8548 29.0259 17.8625 29.0259 17.8701C29.0259 17.8778 29.0259 17.8854 29.0259 17.8931C29.0259 17.9007 29.0259 17.9084 29.0259 17.916C29.0259 17.9237 29.0259 17.9314 29.0259 17.939C29.0259 17.9467 29.0259 17.9544 29.0259 17.962C29.0259 17.9697 29.0259 17.9774 29.0259 17.9851C29.0259 17.9927 29.0259 18.0004 29.0259 18.0081C29.0259 18.0158 29.0259 18.0235 29.0259 18.0312C29.0259 18.0389 29.0259 18.0466 29.0259 18.0543C29.0259 18.062 29.0259 18.0697 29.0259 18.0774C29.0259 18.0851 29.0259 18.0928 29.0259 18.1005C29.0259 18.1083 29.0259 18.116 29.0259 18.1237C29.0259 18.1314 29.0259 18.1392 29.0259 18.1469C29.0259 18.1546 29.0259 18.1624 29.0259 18.1701C29.0259 18.1778 29.0259 18.1856 29.0259 18.1933C29.0259 18.2011 29.0259 18.2088 29.0259 18.2166C29.0259 18.2243 29.0259 18.2321 29.0259 18.2398C29.0259 18.2476 29.0259 18.2553 29.0259 18.2631C29.0259 18.2709 29.0259 18.2786 29.0259 18.2864C29.0259 18.2942 29.0259 18.3019 29.0259 18.3097C29.0259 18.3175 29.0259 18.3252 29.0259 18.333C29.0259 18.3408 29.0259 18.3486 29.0259 18.3564C29.0259 18.3642 29.0259 18.3719 29.0259 18.3797C29.0259 18.3875 29.0259 18.3953 29.0259 18.4031C29.0259 18.4109 29.0259 18.4187 29.0259 18.4265C29.0259 18.4343 29.0259 18.4421 29.0259 18.4499C29.0259 18.4577 29.0259 18.4655 29.0259 18.4734C29.0259 18.4812 29.0259 18.489 29.0259 18.4968C29.0259 18.5046 29.0259 18.5124 29.0259 18.5202C29.0259 18.5281 29.0259 18.5359 29.0259 18.5437C29.0259 18.5515 29.0259 18.5594 29.0259 18.5672C29.0259 18.575 29.0259 18.5829 29.0259 18.5907C29.0259 18.5985 29.0259 18.6064 29.0259 18.6142C29.0259 18.622 29.0259 18.6299 29.0259 18.6377C29.0259 18.6456 29.0259 18.6534 29.0259 18.6613C29.0259 18.6691 29.0259 18.6769 29.0259 18.6848C29.0259 18.6926 29.0259 18.7005 29.0259 18.7084C29.0259 18.7162 29.0259 18.7241 29.0259 18.7319C29.0259 18.7398 29.0259 18.7476 29.0259 18.7555C29.0259 18.7634 29.0259 18.7712 29.0259 18.7791C29.0259 18.7869 29.0259 18.7948 29.0259 18.8027C29.0259 18.8105 29.0259 18.8184 29.0259 18.8263C29.0259 18.8342 29.0259 18.842 29.0259 18.8499C29.0259 18.8578 29.0259 18.8657 29.0259 18.8735C29.0259 18.8814 29.0259 18.8893 29.0259 18.8972C29.0259 18.905 29.0259 18.9129 29.0259 18.9208C29.0259 18.9287 29.0259 18.9366 29.0259 18.9445C29.0259 18.9523 29.0259 18.9602 29.0259 18.9681C29.0259 18.976 29.0259 18.9839 29.0259 18.9918C29.0259 18.9997 29.0259 19.0075 29.0259 19.0154C29.0259 19.0233 29.0259 19.0312 29.0259 19.0391C29.0259 19.047 29.0259 19.0549 29.0259 19.0628C29.0259 19.0707 29.0259 19.0786 29.0259 19.0865C29.0259 19.0944 29.0259 19.1023 29.0259 19.1102C29.0259 19.1181 29.0259 19.126 29.0259 19.1339C29.0259 19.1418 29.0259 19.1497 29.0259 19.1576C29.0259 19.1655 29.0259 19.1734 29.0259 19.1813C29.0259 19.1892 29.0259 19.1971 29.0259 19.205C29.0259 19.2129 29.0259 19.2208 29.0259 19.2287C29.0259 19.2366 29.0259 19.2445 29.0259 19.2524C29.0259 19.2603 29.0259 19.2682 29.0259 19.2761C29.0259 19.284 29.0259 19.2919 29.0259 19.2998C29.0259 19.3078 29.0259 19.3157 29.0259 19.3236C29.0259 19.3315 29.0259 19.3394 29.0259 19.3473C29.0259 19.3552 29.0259 19.3631 29.0259 19.371C29.0259 19.3789 29.0259 19.3868 29.0259 19.3947C29.0259 19.4026 29.0259 19.4105 29.0259 19.4185C29.0259 19.4264 29.0259 19.4343 29.0259 19.4422C29.0259 19.4501 29.0259 19.458 29.0259 19.4659C29.0259 19.4738 29.0259 19.4817 29.0259 19.4896C29.0259 19.4975 29.0259 19.5054 29.0259 19.5133C29.0259 19.5213 29.0259 19.5292 29.0259 19.5371C29.0259 19.545 29.0259 19.5529 29.0259 19.5608C29.0259 19.5687 29.0259 19.5766 29.0259 19.5845C29.0259 19.5924 29.0259 19.6003 29.0259 19.6082C29.0259 19.6161 29.0259 19.624 29.0259 19.6319C29.0259 19.6398 29.0259 19.6477 29.0259 19.6556C29.0259 19.6635 29.0259 19.6714 29.0259 19.6793C29.0259 19.6872 29.0259 19.6951 29.0259 19.703C29.0259 19.7109 29.0259 19.7188 29.0259 19.7267C29.0259 19.7346 29.0259 19.7425 29.0259 19.7504C29.0259 19.7583 29.0259 19.7662 29.0259 19.7741C29.0259 19.782 29.0259 19.7899 29.0259 19.7978C29.0259 19.8057 29.0259 19.8135 29.0259 19.8214C29.0259 19.8293 29.0259 19.8372 29.0259 19.8451C29.0259 19.853 29.0259 19.8609 29.0259 19.8688C29.0259 19.8766 29.0259 19.8845 29.0259 19.8924C29.0259 19.9003 29.0259 19.9082 29.0259 19.9161C29.0259 19.9239 29.0259 19.9318 29.0259 19.9397C29.0259 19.9476 29.0259 19.9554 29.0259 19.9633C29.0259 19.9712 29.0259 19.9791 29.0259 19.9869C29.0259 19.9948 29.0259 20.0027 29.0259 20.0105C29.0259 20.0184 29.0259 20.0263 29.0259 20.0341C29.0259 20.042 29.0259 20.0499 29.0259 20.0577C29.0259 20.0656 29.0259 20.0735 29.0259 20.0813C29.0259 20.0892 29.0259 20.097 29.0259 20.1049C29.0259 20.1127 29.0259 20.1206 29.0259 20.1284C29.0259 20.1363 29.0259 20.1441 29.0259 20.152C29.0259 20.1598 29.0259 20.1677 29.0259 20.1755C29.0259 20.1834 29.0259 20.1912 29.0259 20.199C29.0259 20.2069 29.0259 20.2147 29.0259 20.2226C29.0259 20.2304 29.0259 20.2382 29.0259 20.2461C29.0259 20.2539 29.0259 20.2617 29.0259 20.2695C29.0259 20.2774 29.0259 20.2852 29.0259 20.293C29.0259 20.3008 29.0259 20.3087 29.0259 20.3165C29.0259 20.3243 29.0259 20.3321 29.0259 20.3399C29.0259 20.3477 29.0259 20.3555 29.0259 20.3633C29.0259 20.3712 29.0259 20.379 29.0259 20.3868C29.0259 20.3946 29.0259 20.4024 29.0259 20.4102C29.0259 20.418 29.0259 20.4258 29.0259 20.4335C29.0259 20.4413 29.0259 20.4491 29.0259 20.4569C29.0259 20.4647 29.0259 20.4725 29.0259 20.4803C29.0259 20.488 29.0259 20.4958 29.0259 20.5036C29.0259 20.5114 29.0259 20.5191 29.0259 20.5269C29.0259 20.5347 29.0259 20.5425 29.0259 20.5502C29.0259 20.558 29.0259 20.5657 29.0259 20.5735C29.0259 20.5813 29.0259 20.589 29.0259 20.5968C29.0259 20.6045 29.0259 20.6123 29.0259 20.62C29.0259 20.6278 29.0259 20.6355 29.0259 20.6432C29.0259 20.651 29.0259 20.6587 29.0259 20.6664C29.0259 20.6742 29.0259 20.6819 29.0259 20.6896C29.0259 20.6974 29.0259 20.7051 29.0259 20.7128C29.0259 20.7205 29.0259 20.7282 29.0259 20.7359C29.0259 20.7437 29.0259 20.7514 29.0259 20.7591C29.0259 20.7668 29.0259 20.7745 29.0259 20.7822C29.0259 20.7899 29.0259 20.7976 29.0259 20.8053C29.0259 20.8129 29.0259 20.8206 29.0259 20.8283C29.0259 20.836 29.0259 20.8437 29.0259 20.8514C29.0259 20.859 29.0259 20.8667 29.0259 20.8744C29.0259 20.882 29.0259 20.8897 29.0259 20.8974C29.0259 20.905 29.0259 20.9127 29.0259 20.9203C29.0259 20.928 29.0259 20.9356 29.0259 20.9433C29.0259 20.9509 29.0259 20.9586 29.0259 20.9662C29.0259 20.9738 29.0259 20.9815 29.0259 20.9891C29.0259 20.9967 29.0259 21.0043 29.0259 21.012C29.0259 21.0196 29.0259 21.0272 29.0259 21.0348C29.0259 21.0424 29.0259 21.05 29.0259 21.0576C29.0259 21.0652 29.0259 21.0728 29.0259 21.0804C29.0259 21.088 29.0259 21.0956 29.0259 21.1032C29.0259 21.1108 29.0259 21.1184 29.0259 21.1259C29.0259 21.1335 29.0259 21.1411 29.0259 21.1487C29.0259 21.1562 29.0259 21.1638 29.0259 21.1713C29.0259 21.1789 29.0259 21.1865 29.0259 21.194C29.0259 21.2016 29.0259 21.2091 29.0259 21.2166C29.0259 21.2242 29.0259 21.2317 29.0259 21.2392C29.0259 21.2468 29.0259 21.2543 29.0259 21.2618C29.0259 21.2693 29.0259 21.2768 29.0259 21.2844C29.0259 21.2919 29.0259 21.2994 29.0259 21.3069C29.0259 21.3144 29.0259 21.3219 29.0259 21.3294C29.0259 21.3368 29.0259 21.3443 29.0259 21.3518C29.0259 21.3593 29.0259 21.3668 29.0259 21.3742C29.0259 21.3817 29.0259 21.3892 29.0259 21.3966C29.0259 21.4041 29.0259 21.4115 29.0259 21.419C29.0259 21.4264 29.0259 21.4339 29.0259 21.4413C29.0259 21.4487 29.0259 21.4562 29.0259 21.4636C29.0259 21.471 29.0259 21.4785 29.0259 21.4859C29.0259 21.4933 29.0259 21.5007 29.0259 21.5081C29.0259 21.5155 29.0259 21.5229 29.0259 21.5303C29.0259 21.5377 29.0259 21.5451 29.0259 21.5525C29.0259 21.5598 29.0259 21.5672 29.0259 21.5746C29.0259 21.582 29.0259 21.5893 29.0259 21.5967C29.0259 21.604 29.0259 21.6114 29.0259 21.6187C29.0259 21.6261 29.0259 21.6334 29.0259 21.6408C29.0259 21.6481 29.0259 21.6554 29.0259 21.6628C29.0259 21.6701 29.0259 21.6774 29.0259 21.6847C29.0259 21.692 29.0259 21.6993 29.0259 21.7066C29.0259 21.7139 29.0259 21.7212 29.0259 21.7285C29.0259 21.7358 29.0259 21.7431 29.0259 21.7503C29.0259 21.7576 29.0259 21.7649 29.0259 21.7722C29.0259 21.7794 29.0259 21.7867 29.0259 21.7939C29.0259 21.8012 29.0259 21.8084 29.0259 21.8156C29.0259 21.8229 29.0259 21.8301 29.0259 21.8373C29.0259 21.8446 29.0259 21.8518 29.0259 21.859C29.0259 21.8662 29.0259 21.8734 29.0259 21.8806C29.0259 21.8878 29.0259 21.895 29.0259 21.9022C29.0259 21.9094 29.0259 21.9165 29.0259 21.9237C29.0259 21.9309 29.0259 21.938 29.0259 21.9452C29.0259 21.9524 29.0259 21.9595 29.0259 21.9666C29.0259 21.9738 29.0259 21.9809 29.0259 21.9881C29.0259 21.9952 29.0259 22.0023 29.0259 22.0094C29.0259 22.0165 29.0259 22.0236 29.0259 22.0308C29.0259 22.0379 29.0259 22.0449 29.0259 22.052C29.0259 22.0591 29.0259 22.0662 29.0259 22.0733C29.0259 22.0803 29.0259 22.0874 29.0259 22.0945C29.0259 22.1015 29.0259 22.1086 29.0259 22.1156C29.0259 22.1227 29.0259 22.1297 29.0259 22.1367C29.0259 22.1438 29.0259 22.1508 29.0259 22.1578C29.0259 22.1648 29.0259 22.1718 29.0259 22.1788C29.0259 22.1858 29.0259 22.1928 29.0259 22.1998C29.0259 22.2068 29.0259 22.2138 29.0259 22.2207C29.0259 22.2277 29.0259 22.2347 29.0259 22.2416C29.0259 22.2486 29.0259 22.2555 29.0259 22.2625C29.0259 22.2694 29.0259 22.2763 29.0259 22.2833C29.0259 22.2902 29.0259 22.2971 29.0259 22.304C29.0259 22.3109 29.0259 22.3178 29.0259 22.3247C29.0259 22.3316 29.0259 22.3385 29.0259 22.3454C29.0259 22.3522 29.0259 22.3591 29.0259 22.366C29.0259 22.3728 29.0259 22.3797 29.0259 22.3865C29.0259 22.3934 29.0259 22.4002 29.0259 22.407C29.0259 22.4139 29.0259 22.4207 29.0259 22.4275C29.0259 22.4343 29.0259 22.4411 29.0259 22.4479C29.0259 22.4547 29.0259 22.4615 29.0259 22.4683C29.0259 22.475 29.0259 22.4818 29.0259 22.4886C29.0259 22.4953 29.0259 22.5021 29.0259 22.5088C29.0259 22.5156 29.0259 22.5223 29.0259 22.529C29.0259 22.5358 29.0259 22.5425 29.0259 22.5492C29.0259 22.5559 29.0259 22.5626 29.0259 22.5693C29.0259 22.576 29.0259 22.5827 29.0259 22.5894C29.0259 22.596 29.0259 22.6027 29.0259 22.6094C29.0259 22.616 29.0259 22.6227 29.0259 22.6293C29.0259 22.6359 29.0259 22.6426 29.0259 22.6492C29.0259 22.6558 29.0259 22.6624 29.0259 22.669C29.0259 22.6757 29.0259 22.6822 29.0259 22.6888C29.0259 22.6954 29.0259 22.702 29.0259 22.7086C29.0259 22.7151 29.0259 22.7217 29.0259 22.7283C29.0259 22.7348 29.0259 22.7413 29.0259 22.7479C29.0259 22.7544 29.0259 22.7609 29.0259 22.7674C29.0259 22.774 29.0259 22.7805 29.0259 22.787C29.0259 22.7935 29.0259 22.7999 29.0259 22.8064C29.0259 22.8129 29.0259 22.8194 29.0259 22.8258C29.0259 22.8323 29.0259 22.8387 29.0259 22.8452C29.0259 22.8516 29.0259 22.858 29.0259 22.8645C29.0259 22.8709 29.0259 22.8773 29.0259 22.8837C29.0259 22.8901 29.0259 22.8965 29.0259 22.9029C29.0259 22.9092 29.0259 22.9156 29.0259 22.922C29.0259 22.9283 29.0259 22.9347 29.0259 22.941C29.0259 22.9474 29.0259 22.9537 29.0259 22.96C29.0259 22.9664 29.0259 22.9727 29.0259 22.979C29.0259 22.9853 29.0259 22.9916 29.0259 22.9978C29.0259 23.0041 29.0259 23.0104 29.0259 23.0167C29.0259 23.0229 29.0259 23.0292 29.0259 23.0354C29.0259 23.0417 29.0259 23.0479 29.0259 23.0541C29.0259 23.0603 29.0259 23.0666 29.0259 23.0728C29.0259 23.079 29.0259 23.0852 29.0259 23.0913C29.0259 23.0975 29.0259 23.1037 29.0259 23.1098C29.0259 23.116 29.0259 23.1222 29.0259 23.1283C29.0259 23.1344 29.0259 23.1406 29.0259 23.1467C29.0259 23.1528 29.0259 23.1589 29.0259 23.165C29.0259 23.1711 29.0259 23.1772 29.0259 23.1833C29.0259 23.1893 29.0259 23.1954 29.0259 23.2015C29.0259 23.2075 29.0259 23.2136 29.0259 23.2196C29.0259 23.2256 29.0259 23.2317 29.0259 23.2377C29.0259 23.2437 29.0259 23.2497 29.0259 23.2557C29.0259 23.2617 29.0259 23.2676 29.0259 23.2736C29.0259 23.2796 29.0259 23.2855 29.0259 23.2915C29.0259 23.2974 29.0259 23.3034 29.0259 23.3093C29.0259 23.3152 29.0259 23.3211 29.0259 23.327C29.0259 23.3329 29.0259 23.3388 29.0259 23.3447C29.0259 23.3506 29.0259 23.3565 29.0259 23.3623C29.0259 23.3682 29.0259 23.374 29.0259 23.3799C29.0259 23.3857 29.0259 23.3915 29.0259 23.3973C29.0259 23.4031 29.0259 23.4089 29.0259 23.4147C29.0259 23.4205 29.0259 23.4263 29.0259 23.4321C29.0259 23.4378 29.0259 23.4436 29.0259 23.4493C29.0259 23.4551 29.0259 23.4608 29.0259 23.4665C29.0259 23.4723 29.0259 23.478 29.0259 23.4837C29.0259 23.4894 29.0259 23.495 29.0259 23.5007C29.0259 23.5064 29.0259 23.5121 29.0259 23.5177C29.0259 23.5234 29.0259 23.529 29.0259 23.5346C29.0259 23.5402 29.0259 23.5459 29.0259 23.5515C29.0259 23.5571 29.0259 23.5627 29.0259 23.5682C29.0259 23.5738 29.0259 23.5794 29.0259 23.5849C29.0259 23.5905 29.0259 23.596 29.0259 23.6016C29.0259 23.6071 29.0259 23.6126 29.0259 23.6181C29.0259 23.6236 29.0259 23.6291 29.0259 23.6346C29.0259 23.6401 29.0259 23.6456 29.0259 23.651C29.0259 23.6565 29.0259 23.6619 29.0259 23.6674C29.0259 23.6728 29.0259 23.6782 29.0259 23.6836C29.0259 23.689 29.0259 23.6944 29.0259 23.6998C29.0259 23.7052 29.0259 23.7106 29.0259 23.7159C29.0259 23.7213 29.0259 23.7266 29.0259 23.732C29.0259 23.7373 29.0259 23.7426 29.0259 23.7479C29.0259 23.7532 29.0259 23.7585 29.0259 23.7638C29.0259 23.7691 29.0259 23.7744 29.0259 23.7796C29.0259 23.7849 29.0259 23.7901 29.0259 23.7954C29.0259 23.8006 29.0259 23.8058 29.0259 23.811C29.0259 23.8162 29.0259 23.8214 29.0259 23.8266C29.0259 23.8318 29.0259 23.8369 29.0259 23.8421C29.0259 23.8472 29.0259 23.8524 29.0259 23.8575C29.0259 23.8626 29.0259 23.8678 29.0259 23.8729C29.0259 23.878 29.0259 23.883 29.0259 23.8881C29.0259 23.8932 29.0259 23.8983 29.0259 23.9033C29.0259 23.9084 29.0259 23.9134 29.0259 23.9184C29.0259 23.9234 29.0259 23.9284 29.0259 23.9334C29.0259 23.9384 29.0259 23.9434 29.0259 23.9484C29.0259 23.9534 29.0259 23.9583 29.0259 23.9633C29.0259 23.9682 29.0259 23.9731 29.0259 23.978C29.0259 23.983 29.0259 23.9879 29.0259 23.9927C29.0259 23.9976 29.0259 24.0025 29.0259 24.0074C29.0259 24.0122 29.0259 24.0171 29.0259 24.0219C29.0259 24.0267 29.0259 24.0316 29.0259 24.0364C29.0259 24.0412 29.0259 24.046 29.0259 24.0507C29.0259 24.0555 29.0259 24.0603 29.0259 24.065C29.0259 24.0698 29.0259 24.0745 29.0259 24.0792C29.0259 24.084 29.0259 24.0887 29.0259 24.0933C29.0259 24.098 29.0259 24.1027 29.0259 24.1074C29.0259 24.1121 29.0259 24.1167 29.0259 24.1213C29.0259 24.126 29.0259 24.1306 29.0259 24.1352C29.0259 24.1398 29.0259 24.1444 29.0259 24.149C29.0259 24.1536 29.0259 24.1581 29.0259 24.1627C29.0259 24.1672 29.0259 24.1718 29.0259 24.1763C29.0259 24.1808 29.0259 24.1853 29.0259 24.1898C29.0259 24.1943 29.0259 24.1988 29.0259 24.2033C29.0259 24.2077 29.0259 24.2122 29.0259 24.2166C29.0259 24.221 29.0259 24.2255 29.0259 24.2299C29.0259 24.2343 29.0259 24.2387 29.0259 24.243C29.0259 24.2474 29.0259 24.2518 29.0259 24.2561C29.0259 24.2605 29.0259 24.2648 29.0259 24.2691C29.0259 24.2734 29.0259 24.2777 29.0259 24.282C29.0259 24.2863 29.0259 24.2906 29.0259 24.2948C29.0259 24.2991 29.0259 24.3033 29.0259 24.3076C29.0259 24.3118 29.0259 24.316 29.0259 24.3202C29.0259 24.3244 29.0259 24.3286 29.0259 24.3327C29.0259 24.3369 29.0259 24.3411 29.0259 24.3452C29.0259 24.3493 29.0259 24.3535 29.0259 24.3576C29.0259 24.3617 29.0259 24.3658 29.0259 24.3698C29.0259 24.3739 29.0259 24.378 29.0259 24.382C29.0259 24.3861 29.0259 24.3901 29.0259 24.3941C29.0259 24.3981 29.0259 24.4021 29.0259 24.4061C29.0259 24.4101 29.0259 24.414 29.0259 24.418C29.0259 24.4219 29.0259 24.4259 29.0259 24.4298C29.0259 24.4337 29.0259 24.4376 29.0259 24.4415C29.0259 24.4454 29.0259 24.4493 29.0259 24.4531H29.5259ZM29.5259 14.375C29.5259 12.2642 27.5509 10.6094 25.2026 10.6094V11.1094C27.3465 11.1094 29.0259 12.6069 29.0259 14.375H29.5259ZM25.2026 10.6094C24.2756 10.6094 23.2737 10.8633 22.3892 11.2743C21.5067 11.6843 20.7181 12.2614 20.2346 12.9273L20.6392 13.2211C21.0576 12.6448 21.7673 12.1145 22.5999 11.7277C23.4306 11.3418 24.3607 11.1094 25.2026 11.1094V10.6094ZM20.2345 12.9274C20.1713 13.0145 20.0722 13.0645 19.9655 13.0645V13.5645C20.2312 13.5645 20.4813 13.4387 20.6392 13.2211L20.2345 12.9274ZM19.9655 13.0645C19.8588 13.0645 19.7597 13.0145 19.6965 12.9274L19.2918 13.2211C19.4498 13.4387 19.6998 13.5645 19.9655 13.5645V13.0645ZM19.6965 12.9273C19.213 12.2614 18.4243 11.6843 17.5418 11.2743C16.6573 10.8633 15.6555 10.6094 14.7284 10.6094V11.1094C15.5704 11.1094 16.5005 11.3418 17.3311 11.7277C18.1637 12.1145 18.8735 12.6448 19.2919 13.2211L19.6965 12.9273ZM14.7284 10.6094C12.3801 10.6094 10.4052 12.2642 10.4052 14.375H10.9052C10.9052 12.6069 12.5845 11.1094 14.7284 11.1094V10.6094ZM10.4052 14.375V24.4531H10.9052V14.375H10.4052ZM6.91379 20C6.91379 21.5316 7.99899 22.823 9.44161 23.1161L9.54115 22.6261C8.33032 22.3801 7.41379 21.2926 7.41379 20H6.91379ZM9.74138 22.8711V20.9492H9.24138V22.8711H9.74138ZM9.60318 20.7256L8.75943 20.3037L8.53583 20.7509L9.37958 21.1728L9.60318 20.7256ZM8.76187 20.305C8.59788 20.2207 8.53029 20.0166 8.61059 19.8515L8.16096 19.6328C7.96195 20.042 8.12712 20.541 8.53339 20.7497L8.76187 20.305ZM8.61059 19.8515C8.68836 19.6917 8.89152 19.6221 9.05493 19.7027L9.2761 19.2543C8.86926 19.0536 8.3625 19.2185 8.16096 19.6328L8.61059 19.8515ZM9.05147 19.701L9.37151 19.865L9.5996 19.4201L9.27956 19.256L9.05147 19.701ZM9.73556 19.6426V17.9727H9.23556V19.6426H9.73556ZM9.62502 17.7652L7.29743 16.2007L7.01851 16.6157L9.3461 18.1801L9.62502 17.7652ZM6.90797 16.4082V20H7.40797V16.4082H6.90797ZM7.15797 20.25H7.16379V19.75H7.15797V20.25ZM21.4612 23.8672C21.4612 24.053 21.3097 24.2031 21.1293 24.2031V24.7031C21.5891 24.7031 21.9612 24.3259 21.9612 23.8672H21.4612ZM21.1293 24.2031H18.8017V24.7031H21.1293V24.2031ZM18.8017 24.2031C18.6214 24.2031 18.4698 24.053 18.4698 23.8672H17.9698C17.9698 24.3259 18.342 24.7031 18.8017 24.7031V24.2031ZM18.4698 23.8672C18.4698 23.6814 18.6214 23.5312 18.8017 23.5312V23.0312C18.342 23.0312 17.9698 23.4085 17.9698 23.8672H18.4698ZM18.8017 23.5312H21.1293V23.0312H18.8017V23.5312ZM21.1293 23.5312C21.3097 23.5312 21.4612 23.6814 21.4612 23.8672H21.9612C21.9612 23.4085 21.5891 23.0312 21.1293 23.0312V23.5312Z" fill="#1475E6"/>
</svg>
